<?xml version="1.0" encoding="utf-8" standalone="no"?>
<!DOCTYPE svg PUBLIC "-//W3C//DTD SVG 1.1//EN"
  "http://www.w3.org/Graphics/SVG/1.1/DTD/svg11.dtd">
<svg xmlns:xlink="http://www.w3.org/1999/xlink" width="1538.748pt" height="410.4pt" viewBox="0 0 1538.748 410.4" xmlns="http://www.w3.org/2000/svg" version="1.1">
 <metadata>
  <rdf:RDF xmlns:dc="http://purl.org/dc/elements/1.1/" xmlns:cc="http://creativecommons.org/ns#" xmlns:rdf="http://www.w3.org/1999/02/22-rdf-syntax-ns#">
   <cc:Work>
    <dc:type rdf:resource="http://purl.org/dc/dcmitype/StillImage"/>
    <dc:date>2026-03-15T19:44:08.854598</dc:date>
    <dc:format>image/svg+xml</dc:format>
    <dc:creator>
     <cc:Agent>
      <dc:title>Matplotlib v3.10.8, https://matplotlib.org/</dc:title>
     </cc:Agent>
    </dc:creator>
   </cc:Work>
  </rdf:RDF>
 </metadata>
 <defs>
  <style type="text/css">*{stroke-linejoin: round; stroke-linecap: butt}</style>
 </defs>
 <g id="figure_1">
  <g id="patch_1">
   <path d="M 0 410.4 
L 1538.748 410.4 
L 1538.748 0 
L 0 0 
L 0 410.4 
z
" style="fill: none"/>
  </g>
  <g id="axes_1">
   <g id="patch_2">
    <path d="M 250.220323 197.598319 
C 249.211224 196.895492 247.803342 196.315436 246.130469 195.913274 
C 244.457596 195.511112 242.574455 195.3 240.66 195.3 
C 238.745545 195.3 236.862404 195.511112 235.189531 195.913274 
C 233.516658 196.315436 232.108776 196.895492 231.099677 197.598319 
" clip-path="url(#pc19c000649)" style="fill: none; stroke: #e65100; stroke-width: 2; stroke-linejoin: miter"/>
   </g>
   <g id="patch_3">
    <path d="M 334.820323 332.598319 
C 333.811224 331.895492 332.403342 331.315436 330.730469 330.913274 
C 329.057596 330.511112 327.174455 330.3 325.26 330.3 
C 323.345545 330.3 321.462404 330.511112 319.789531 330.913274 
C 318.116658 331.315436 316.708776 331.895492 315.699677 332.598319 
" clip-path="url(#pc19c000649)" style="fill: none; stroke: #c62828; stroke-width: 2; stroke-linejoin: miter"/>
   </g>
   <g id="patch_4">
    <path d="M 906.66 86.58 
L 915.66 73.98 
L 924.66 86.58 
L 906.66 86.58 
z
" clip-path="url(#pc19c000649)" style="fill: none; stroke: #1565c0; stroke-width: 2; stroke-linecap: round"/>
   </g>
   <g id="patch_5">
    <path d="M 1122.66 86.58 
L 1131.66 73.98 
L 1140.66 86.58 
L 1122.66 86.58 
z
" clip-path="url(#pc19c000649)" style="fill: none; stroke: #1565c0; stroke-width: 2; stroke-linecap: round"/>
   </g>
   <g id="patch_6">
    <path d="M 1338.66 86.58 
L 1347.66 73.98 
L 1356.66 86.58 
L 1338.66 86.58 
z
" clip-path="url(#pc19c000649)" style="fill: none; stroke: #1565c0; stroke-width: 2; stroke-linecap: round"/>
   </g>
   <g id="line2d_1">
    <path d="M 96.66 161.28 
L 201.06 161.28 
L 201.06 67.68 
L 96.66 67.68 
L 96.66 161.28 
" clip-path="url(#pc19c000649)" style="fill: none; stroke: #000000; stroke-width: 2; stroke-linecap: round"/>
   </g>
   <g id="line2d_2">
    <path d="M 96.66 114.48 
L 78.66 114.48 
" clip-path="url(#pc19c000649)" style="fill: none; stroke: #000000; stroke-width: 2; stroke-linecap: round"/>
   </g>
   <g id="line2d_3">
    <path d="M 201.06 139.68 
L 219.06 139.68 
" clip-path="url(#pc19c000649)" style="fill: none; stroke: #000000; stroke-width: 2; stroke-linecap: round"/>
   </g>
   <g id="line2d_4">
    <path d="M 201.06 89.28 
L 219.06 89.28 
" clip-path="url(#pc19c000649)" style="fill: none; stroke: #000000; stroke-width: 2; stroke-linecap: round"/>
   </g>
   <g id="line2d_5">
    <path d="M 78.66 114.48 
L 64.26 114.48 
L 49.86 114.48 
" clip-path="url(#pc19c000649)" style="fill: none; stroke: #212121; stroke-width: 2; stroke-linecap: round"/>
   </g>
   <g id="line2d_6">
    <path d="M 219.06 89.28 
L 229.86 89.28 
L 240.66 89.28 
" clip-path="url(#pc19c000649)" style="fill: none; stroke: #546e7a; stroke-width: 2; stroke-linecap: round"/>
   </g>
   <g id="line2d_7">
    <path d="M 240.66 89.28 
L 240.66 103.68 
L 231.66 103.68 
L 249.66 103.68 
M 234.36 108 
L 246.96 108 
M 238.86 112.32 
L 242.46 112.32 
" clip-path="url(#pc19c000649)" style="fill: none; stroke: #546e7a; stroke-width: 2; stroke-linecap: round"/>
   </g>
   <g id="line2d_8">
    <path d="M 219.06 139.68 
L 229.86 139.68 
L 240.66 139.68 
" clip-path="url(#pc19c000649)" style="fill: none; stroke: #e65100; stroke-width: 2; stroke-linecap: round"/>
   </g>
   <g id="line2d_9">
    <path d="M 240.66 139.68 
L 303.66 139.68 
L 366.66 139.68 
" clip-path="url(#pc19c000649)" style="fill: none; stroke: #e65100; stroke-width: 2; stroke-linecap: round"/>
   </g>
   <g id="line2d_10">
    <path d="M 366.66 139.68 
L 582.66 139.68 
L 798.66 139.68 
" clip-path="url(#pc19c000649)" style="fill: none; stroke: #e65100; stroke-width: 2; stroke-linecap: round"/>
   </g>
   <g id="line2d_11">
    <path d="M 240.66 139.68 
L 240.66 190.44 
M 249.66 190.44 
L 231.66 190.44 
M 240.66 196.92 
L 240.66 247.68 
" clip-path="url(#pc19c000649)" style="fill: none; stroke: #e65100; stroke-width: 2; stroke-linecap: round"/>
   </g>
   <g id="line2d_12">
    <path d="M 240.66 247.68 
L 240.66 262.08 
L 231.66 262.08 
L 249.66 262.08 
M 234.36 266.4 
L 246.96 266.4 
M 238.86 270.72 
L 242.46 270.72 
" clip-path="url(#pc19c000649)" style="fill: none; stroke: #546e7a; stroke-width: 2; stroke-linecap: round"/>
   </g>
   <g id="line2d_13">
    <path d="M 366.66 139.68 
L 366.66 172.08 
L 366.66 204.48 
" clip-path="url(#pc19c000649)" style="fill: none; stroke: #e65100; stroke-width: 2; stroke-linecap: round"/>
   </g>
   <g id="line2d_14">
    <path d="M 258.66 152.28 
L 258.66 256.68 
L 348.66 256.68 
L 348.66 152.28 
L 258.66 152.28 
" clip-path="url(#pc19c000649)" style="fill: none; stroke: #000000; stroke-width: 2; stroke-linecap: round"/>
   </g>
   <g id="line2d_15">
    <path d="M 303.66 256.68 
L 303.66 274.68 
" clip-path="url(#pc19c000649)" style="fill: none; stroke: #000000; stroke-width: 2; stroke-linecap: round"/>
   </g>
   <g id="line2d_16">
    <path d="M 348.66 204.48 
L 366.66 204.48 
" clip-path="url(#pc19c000649)" style="fill: none; stroke: #000000; stroke-width: 2; stroke-linecap: round"/>
   </g>
   <g id="line2d_17">
    <path d="M 258.66 204.48 
L 240.66 204.48 
" clip-path="url(#pc19c000649)" style="fill: none; stroke: #000000; stroke-width: 2; stroke-linecap: round"/>
   </g>
   <g id="line2d_18">
    <path d="M 240.66 204.48 
L 240.66 215.28 
L 240.66 226.08 
" clip-path="url(#pc19c000649)" style="fill: none; stroke: #546e7a; stroke-width: 2; stroke-linecap: round"/>
   </g>
   <g id="line2d_19">
    <path d="M 240.66 226.08 
L 240.66 240.48 
L 231.66 240.48 
L 249.66 240.48 
M 234.36 244.8 
L 246.96 244.8 
M 238.86 249.12 
L 242.46 249.12 
" clip-path="url(#pc19c000649)" style="fill: none; stroke: #546e7a; stroke-width: 2; stroke-linecap: round"/>
   </g>
   <g id="line2d_20">
    <path d="M 303.66 274.68 
L 314.46 274.68 
L 325.26 274.68 
" clip-path="url(#pc19c000649)" style="fill: none; stroke: #c62828; stroke-width: 2; stroke-linecap: round"/>
   </g>
   <g id="line2d_21">
    <path d="M 325.26 274.68 
L 361.26 274.68 
L 397.26 274.68 
" clip-path="url(#pc19c000649)" style="fill: none; stroke: #c62828; stroke-width: 2; stroke-linecap: round"/>
   </g>
   <g id="line2d_22">
    <path d="M 397.26 274.68 
L 442.26 274.68 
L 487.26 274.68 
" clip-path="url(#pc19c000649)" style="fill: none; stroke: #c62828; stroke-width: 2; stroke-linecap: round"/>
   </g>
   <g id="line2d_23">
    <path d="M 325.26 274.68 
L 325.26 325.44 
M 334.26 325.44 
L 316.26 325.44 
M 325.26 331.92 
L 325.26 382.68 
" clip-path="url(#pc19c000649)" style="fill: none; stroke: #c62828; stroke-width: 2; stroke-linecap: round"/>
   </g>
   <g id="line2d_24">
    <path d="M 325.26 382.68 
L 325.26 397.08 
L 316.26 397.08 
L 334.26 397.08 
M 318.96 401.4 
L 331.56 401.4 
M 323.46 405.72 
L 327.06 405.72 
" clip-path="url(#pc19c000649)" style="fill: none; stroke: #546e7a; stroke-width: 2; stroke-linecap: round"/>
   </g>
   <g id="line2d_25">
    <path d="M 397.26 274.68 
L 397.26 325.44 
M 406.26 325.44 
L 388.26 325.44 
M 406.26 331.92 
L 388.26 331.92 
M 397.26 331.92 
L 397.26 382.68 
" clip-path="url(#pc19c000649)" style="fill: none; stroke: #c62828; stroke-width: 2; stroke-linecap: round"/>
   </g>
   <g id="line2d_26">
    <path d="M 397.26 382.68 
L 397.26 397.08 
L 388.26 397.08 
L 406.26 397.08 
M 390.96 401.4 
L 403.56 401.4 
M 395.46 405.72 
L 399.06 405.72 
" clip-path="url(#pc19c000649)" style="fill: none; stroke: #546e7a; stroke-width: 2; stroke-linecap: round"/>
   </g>
   <g id="line2d_27">
    <path d="M 505.26 328.68 
L 619.932 328.68 
L 619.932 188.28 
L 505.26 188.28 
L 505.26 328.68 
" clip-path="url(#pc19c000649)" style="fill: none; stroke: #000000; stroke-width: 2; stroke-linecap: round"/>
   </g>
   <g id="line2d_28">
    <path d="M 505.26 274.68 
L 487.26 274.68 
" clip-path="url(#pc19c000649)" style="fill: none; stroke: #000000; stroke-width: 2; stroke-linecap: round"/>
   </g>
   <g id="line2d_29">
    <path d="M 505.26 242.28 
L 487.26 242.28 
" clip-path="url(#pc19c000649)" style="fill: none; stroke: #000000; stroke-width: 2; stroke-linecap: round"/>
   </g>
   <g id="line2d_30">
    <path d="M 619.932 307.08 
L 637.932 307.08 
" clip-path="url(#pc19c000649)" style="fill: none; stroke: #000000; stroke-width: 2; stroke-linecap: round"/>
   </g>
   <g id="line2d_31">
    <path d="M 619.932 274.68 
L 637.932 274.68 
" clip-path="url(#pc19c000649)" style="fill: none; stroke: #000000; stroke-width: 2; stroke-linecap: round"/>
   </g>
   <g id="line2d_32">
    <path d="M 619.932 242.28 
L 637.932 242.28 
" clip-path="url(#pc19c000649)" style="fill: none; stroke: #000000; stroke-width: 2; stroke-linecap: round"/>
   </g>
   <g id="line2d_33">
    <path d="M 619.932 209.88 
L 637.932 209.88 
" clip-path="url(#pc19c000649)" style="fill: none; stroke: #000000; stroke-width: 2; stroke-linecap: round"/>
   </g>
   <g id="line2d_34">
    <path d="M 487.26 242.28 
L 476.46 242.28 
L 465.66 242.28 
" clip-path="url(#pc19c000649)" style="fill: none; stroke: #546e7a; stroke-width: 2; stroke-linecap: round"/>
   </g>
   <g id="line2d_35">
    <path d="M 465.66 242.28 
L 465.66 256.68 
L 456.66 256.68 
L 474.66 256.68 
M 459.36 261 
L 471.96 261 
M 463.86 265.32 
L 467.46 265.32 
" clip-path="url(#pc19c000649)" style="fill: none; stroke: #546e7a; stroke-width: 2; stroke-linecap: round"/>
   </g>
   <g id="line2d_36">
    <path d="M 637.932 307.08 
L 646.932 307.08 
L 655.932 307.08 
" clip-path="url(#pc19c000649)" style="fill: none; stroke: #2e7d32; stroke-width: 2; stroke-linecap: round"/>
   </g>
   <g id="line2d_37">
    <path d="M 637.932 274.68 
L 646.932 274.68 
L 655.932 274.68 
" clip-path="url(#pc19c000649)" style="fill: none; stroke: #2e7d32; stroke-width: 2; stroke-linecap: round"/>
   </g>
   <g id="line2d_38">
    <path d="M 637.932 242.28 
L 646.932 242.28 
L 655.932 242.28 
" clip-path="url(#pc19c000649)" style="fill: none; stroke: #2e7d32; stroke-width: 2; stroke-linecap: round"/>
   </g>
   <g id="line2d_39">
    <path d="M 637.932 209.88 
L 646.932 209.88 
L 655.932 209.88 
" clip-path="url(#pc19c000649)" style="fill: none; stroke: #2e7d32; stroke-width: 2; stroke-linecap: round"/>
   </g>
   <g id="line2d_40">
    <path d="M 958.86 17.28 
L 958.86 26.28 
L 958.86 35.28 
" clip-path="url(#pc19c000649)" style="fill: none; stroke: #e65100; stroke-width: 2; stroke-linecap: round"/>
   </g>
   <g id="line2d_41">
    <path d="M 958.86 35.28 
L 958.86 71.28 
L 958.86 107.28 
" clip-path="url(#pc19c000649)" style="fill: none; stroke: #1565c0; stroke-width: 2; stroke-linecap: round"/>
   </g>
   <g id="line2d_42">
    <path d="M 958.86 107.28 
L 958.86 125.28 
L 958.86 143.28 
" clip-path="url(#pc19c000649)" style="fill: none; stroke: #1565c0; stroke-width: 2; stroke-linecap: round"/>
   </g>
   <g id="line2d_43">
    <path d="M 958.86 143.28 
L 943.86 143.28 
L 943.86 167.28 
L 919.86 167.28 
L 919.86 143.28 
L 904.86 143.28 
" clip-path="url(#pc19c000649)" style="fill: none; stroke: #212121; stroke-width: 2; stroke-linecap: round"/>
   </g>
   <g id="line2d_44">
    <path d="M 943.86 173.28 
L 919.86 173.28 
" clip-path="url(#pc19c000649)" style="fill: none; stroke: #212121; stroke-width: 2; stroke-linecap: round"/>
   </g>
   <g id="line2d_45">
    <path d="M 931.86 173.28 
L 931.86 192.48 
" clip-path="url(#pc19c000649)" style="fill: none; stroke: #212121; stroke-width: 2; stroke-linecap: round"/>
   </g>
   <g id="line2d_46">
    <path d="M 904.86 143.28 
L 904.86 154.08 
L 904.86 164.88 
" clip-path="url(#pc19c000649)" style="fill: none; stroke: #546e7a; stroke-width: 2; stroke-linecap: round"/>
   </g>
   <g id="line2d_47">
    <path d="M 904.86 164.88 
L 904.86 179.28 
L 895.86 179.28 
L 913.86 179.28 
M 898.56 183.6 
L 911.16 183.6 
M 903.06 187.92 
L 906.66 187.92 
" clip-path="url(#pc19c000649)" style="fill: none; stroke: #546e7a; stroke-width: 2; stroke-linecap: round"/>
   </g>
   <g id="line2d_48">
    <path d="M 931.86 192.48 
L 940.86 192.48 
L 949.86 192.48 
" clip-path="url(#pc19c000649)" style="fill: none; stroke: #2e7d32; stroke-width: 2; stroke-linecap: round"/>
   </g>
   <g id="line2d_49">
    <path d="M 949.86 192.48 
L 949.86 228.48 
L 958.86 231.48 
L 940.86 237.48 
L 958.86 243.48 
L 940.86 249.48 
L 958.86 255.48 
L 940.86 261.48 
L 949.86 264.48 
L 949.86 300.48 
" clip-path="url(#pc19c000649)" style="fill: none; stroke: #546e7a; stroke-width: 2; stroke-linecap: round"/>
   </g>
   <g id="line2d_50">
    <path d="M 949.86 300.48 
L 949.86 314.88 
L 940.86 314.88 
L 958.86 314.88 
M 943.56 319.2 
L 956.16 319.2 
M 948.06 323.52 
L 951.66 323.52 
" clip-path="url(#pc19c000649)" style="fill: none; stroke: #546e7a; stroke-width: 2; stroke-linecap: round"/>
   </g>
   <g id="line2d_51">
    <path d="M 949.86 192.48 
L 985.86 192.48 
L 988.86 183.48 
L 994.86 201.48 
L 1000.86 183.48 
L 1006.86 201.48 
L 1012.86 183.48 
L 1018.86 201.48 
L 1021.86 192.48 
L 1057.86 192.48 
" clip-path="url(#pc19c000649)" style="fill: none; stroke: #2e7d32; stroke-width: 2; stroke-linecap: round"/>
   </g>
   <g id="line2d_52">
    <path d="M 958.86 143.28 
L 937.26 143.28 
L 915.66 143.28 
" clip-path="url(#pc19c000649)" style="fill: none; stroke: #1565c0; stroke-width: 2; stroke-linecap: round"/>
   </g>
   <g id="line2d_53">
    <path d="M 915.66 143.28 
L 915.66 86.58 
M 906.66 73.98 
L 924.66 73.98 
M 915.66 73.98 
L 915.66 17.28 
" clip-path="url(#pc19c000649)" style="fill: none; stroke: #1565c0; stroke-width: 2; stroke-linecap: round"/>
   </g>
   <g id="line2d_54">
    <path d="M 1174.86 17.28 
L 1174.86 26.28 
L 1174.86 35.28 
" clip-path="url(#pc19c000649)" style="fill: none; stroke: #e65100; stroke-width: 2; stroke-linecap: round"/>
   </g>
   <g id="line2d_55">
    <path d="M 1174.86 35.28 
L 1174.86 71.28 
L 1174.86 107.28 
" clip-path="url(#pc19c000649)" style="fill: none; stroke: #1565c0; stroke-width: 2; stroke-linecap: round"/>
   </g>
   <g id="line2d_56">
    <path d="M 1174.86 107.28 
L 1174.86 125.28 
L 1174.86 143.28 
" clip-path="url(#pc19c000649)" style="fill: none; stroke: #1565c0; stroke-width: 2; stroke-linecap: round"/>
   </g>
   <g id="line2d_57">
    <path d="M 1174.86 143.28 
L 1159.86 143.28 
L 1159.86 167.28 
L 1135.86 167.28 
L 1135.86 143.28 
L 1120.86 143.28 
" clip-path="url(#pc19c000649)" style="fill: none; stroke: #212121; stroke-width: 2; stroke-linecap: round"/>
   </g>
   <g id="line2d_58">
    <path d="M 1159.86 173.28 
L 1135.86 173.28 
" clip-path="url(#pc19c000649)" style="fill: none; stroke: #212121; stroke-width: 2; stroke-linecap: round"/>
   </g>
   <g id="line2d_59">
    <path d="M 1147.86 173.28 
L 1147.86 192.48 
" clip-path="url(#pc19c000649)" style="fill: none; stroke: #212121; stroke-width: 2; stroke-linecap: round"/>
   </g>
   <g id="line2d_60">
    <path d="M 1120.86 143.28 
L 1120.86 154.08 
L 1120.86 164.88 
" clip-path="url(#pc19c000649)" style="fill: none; stroke: #546e7a; stroke-width: 2; stroke-linecap: round"/>
   </g>
   <g id="line2d_61">
    <path d="M 1120.86 164.88 
L 1120.86 179.28 
L 1111.86 179.28 
L 1129.86 179.28 
M 1114.56 183.6 
L 1127.16 183.6 
M 1119.06 187.92 
L 1122.66 187.92 
" clip-path="url(#pc19c000649)" style="fill: none; stroke: #546e7a; stroke-width: 2; stroke-linecap: round"/>
   </g>
   <g id="line2d_62">
    <path d="M 1147.86 192.48 
L 1156.86 192.48 
L 1165.86 192.48 
" clip-path="url(#pc19c000649)" style="fill: none; stroke: #2e7d32; stroke-width: 2; stroke-linecap: round"/>
   </g>
   <g id="line2d_63">
    <path d="M 1165.86 192.48 
L 1165.86 228.48 
L 1174.86 231.48 
L 1156.86 237.48 
L 1174.86 243.48 
L 1156.86 249.48 
L 1174.86 255.48 
L 1156.86 261.48 
L 1165.86 264.48 
L 1165.86 300.48 
" clip-path="url(#pc19c000649)" style="fill: none; stroke: #546e7a; stroke-width: 2; stroke-linecap: round"/>
   </g>
   <g id="line2d_64">
    <path d="M 1165.86 300.48 
L 1165.86 314.88 
L 1156.86 314.88 
L 1174.86 314.88 
M 1159.56 319.2 
L 1172.16 319.2 
M 1164.06 323.52 
L 1167.66 323.52 
" clip-path="url(#pc19c000649)" style="fill: none; stroke: #546e7a; stroke-width: 2; stroke-linecap: round"/>
   </g>
   <g id="line2d_65">
    <path d="M 1165.86 192.48 
L 1201.86 192.48 
L 1204.86 183.48 
L 1210.86 201.48 
L 1216.86 183.48 
L 1222.86 201.48 
L 1228.86 183.48 
L 1234.86 201.48 
L 1237.86 192.48 
L 1273.86 192.48 
" clip-path="url(#pc19c000649)" style="fill: none; stroke: #2e7d32; stroke-width: 2; stroke-linecap: round"/>
   </g>
   <g id="line2d_66">
    <path d="M 1174.86 143.28 
L 1153.26 143.28 
L 1131.66 143.28 
" clip-path="url(#pc19c000649)" style="fill: none; stroke: #1565c0; stroke-width: 2; stroke-linecap: round"/>
   </g>
   <g id="line2d_67">
    <path d="M 1131.66 143.28 
L 1131.66 86.58 
M 1122.66 73.98 
L 1140.66 73.98 
M 1131.66 73.98 
L 1131.66 17.28 
" clip-path="url(#pc19c000649)" style="fill: none; stroke: #1565c0; stroke-width: 2; stroke-linecap: round"/>
   </g>
   <g id="line2d_68">
    <path d="M 1390.86 17.28 
L 1390.86 26.28 
L 1390.86 35.28 
" clip-path="url(#pc19c000649)" style="fill: none; stroke: #e65100; stroke-width: 2; stroke-linecap: round"/>
   </g>
   <g id="line2d_69">
    <path d="M 1390.86 35.28 
L 1390.86 71.28 
L 1390.86 107.28 
" clip-path="url(#pc19c000649)" style="fill: none; stroke: #1565c0; stroke-width: 2; stroke-linecap: round"/>
   </g>
   <g id="line2d_70">
    <path d="M 1390.86 107.28 
L 1390.86 125.28 
L 1390.86 143.28 
" clip-path="url(#pc19c000649)" style="fill: none; stroke: #1565c0; stroke-width: 2; stroke-linecap: round"/>
   </g>
   <g id="line2d_71">
    <path d="M 1390.86 143.28 
L 1375.86 143.28 
L 1375.86 167.28 
L 1351.86 167.28 
L 1351.86 143.28 
L 1336.86 143.28 
" clip-path="url(#pc19c000649)" style="fill: none; stroke: #212121; stroke-width: 2; stroke-linecap: round"/>
   </g>
   <g id="line2d_72">
    <path d="M 1375.86 173.28 
L 1351.86 173.28 
" clip-path="url(#pc19c000649)" style="fill: none; stroke: #212121; stroke-width: 2; stroke-linecap: round"/>
   </g>
   <g id="line2d_73">
    <path d="M 1363.86 173.28 
L 1363.86 192.48 
" clip-path="url(#pc19c000649)" style="fill: none; stroke: #212121; stroke-width: 2; stroke-linecap: round"/>
   </g>
   <g id="line2d_74">
    <path d="M 1336.86 143.28 
L 1336.86 154.08 
L 1336.86 164.88 
" clip-path="url(#pc19c000649)" style="fill: none; stroke: #546e7a; stroke-width: 2; stroke-linecap: round"/>
   </g>
   <g id="line2d_75">
    <path d="M 1336.86 164.88 
L 1336.86 179.28 
L 1327.86 179.28 
L 1345.86 179.28 
M 1330.56 183.6 
L 1343.16 183.6 
M 1335.06 187.92 
L 1338.66 187.92 
" clip-path="url(#pc19c000649)" style="fill: none; stroke: #546e7a; stroke-width: 2; stroke-linecap: round"/>
   </g>
   <g id="line2d_76">
    <path d="M 1363.86 192.48 
L 1372.86 192.48 
L 1381.86 192.48 
" clip-path="url(#pc19c000649)" style="fill: none; stroke: #2e7d32; stroke-width: 2; stroke-linecap: round"/>
   </g>
   <g id="line2d_77">
    <path d="M 1381.86 192.48 
L 1381.86 228.48 
L 1390.86 231.48 
L 1372.86 237.48 
L 1390.86 243.48 
L 1372.86 249.48 
L 1390.86 255.48 
L 1372.86 261.48 
L 1381.86 264.48 
L 1381.86 300.48 
" clip-path="url(#pc19c000649)" style="fill: none; stroke: #546e7a; stroke-width: 2; stroke-linecap: round"/>
   </g>
   <g id="line2d_78">
    <path d="M 1381.86 300.48 
L 1381.86 314.88 
L 1372.86 314.88 
L 1390.86 314.88 
M 1375.56 319.2 
L 1388.16 319.2 
M 1380.06 323.52 
L 1383.66 323.52 
" clip-path="url(#pc19c000649)" style="fill: none; stroke: #546e7a; stroke-width: 2; stroke-linecap: round"/>
   </g>
   <g id="line2d_79">
    <path d="M 1381.86 192.48 
L 1417.86 192.48 
L 1420.86 183.48 
L 1426.86 201.48 
L 1432.86 183.48 
L 1438.86 201.48 
L 1444.86 183.48 
L 1450.86 201.48 
L 1453.86 192.48 
L 1489.86 192.48 
" clip-path="url(#pc19c000649)" style="fill: none; stroke: #2e7d32; stroke-width: 2; stroke-linecap: round"/>
   </g>
   <g id="line2d_80">
    <path d="M 1390.86 143.28 
L 1369.26 143.28 
L 1347.66 143.28 
" clip-path="url(#pc19c000649)" style="fill: none; stroke: #1565c0; stroke-width: 2; stroke-linecap: round"/>
   </g>
   <g id="line2d_81">
    <path d="M 1347.66 143.28 
L 1347.66 86.58 
M 1338.66 73.98 
L 1356.66 73.98 
M 1347.66 73.98 
L 1347.66 17.28 
" clip-path="url(#pc19c000649)" style="fill: none; stroke: #1565c0; stroke-width: 2; stroke-linecap: round"/>
   </g>
   <g id="text_1">
    <!-- A -->
    <g transform="translate(86.435313 109.492344) scale(0.11 -0.11)">
     <defs>
      <path id="DejaVuSans-41" d="M 2188 4044 
L 1331 1722 
L 3047 1722 
L 2188 4044 
z
M 1831 4666 
L 2547 4666 
L 4325 0 
L 3669 0 
L 3244 1197 
L 1141 1197 
L 716 0 
L 50 0 
L 1831 4666 
z
" transform="scale(0.015625)"/>
     </defs>
     <use xlink:href="#DejaVuSans-41"/>
    </g>
   </g>
   <g id="text_2">
    <!-- USB -->
    <g transform="translate(102.06 118.343125) scale(0.14 -0.14)">
     <defs>
      <path id="DejaVuSans-55" d="M 556 4666 
L 1191 4666 
L 1191 1831 
Q 1191 1081 1462 751 
Q 1734 422 2344 422 
Q 2950 422 3222 751 
Q 3494 1081 3494 1831 
L 3494 4666 
L 4128 4666 
L 4128 1753 
Q 4128 841 3676 375 
Q 3225 -91 2344 -91 
Q 1459 -91 1007 375 
Q 556 841 556 1753 
L 556 4666 
z
" transform="scale(0.015625)"/>
      <path id="DejaVuSans-53" d="M 3425 4513 
L 3425 3897 
Q 3066 4069 2747 4153 
Q 2428 4238 2131 4238 
Q 1616 4238 1336 4038 
Q 1056 3838 1056 3469 
Q 1056 3159 1242 3001 
Q 1428 2844 1947 2747 
L 2328 2669 
Q 3034 2534 3370 2195 
Q 3706 1856 3706 1288 
Q 3706 609 3251 259 
Q 2797 -91 1919 -91 
Q 1588 -91 1214 -16 
Q 841 59 441 206 
L 441 856 
Q 825 641 1194 531 
Q 1563 422 1919 422 
Q 2459 422 2753 634 
Q 3047 847 3047 1241 
Q 3047 1584 2836 1778 
Q 2625 1972 2144 2069 
L 1759 2144 
Q 1053 2284 737 2584 
Q 422 2884 422 3419 
Q 422 4038 858 4394 
Q 1294 4750 2059 4750 
Q 2388 4750 2728 4690 
Q 3069 4631 3425 4513 
z
" transform="scale(0.015625)"/>
      <path id="DejaVuSans-42" d="M 1259 2228 
L 1259 519 
L 2272 519 
Q 2781 519 3026 730 
Q 3272 941 3272 1375 
Q 3272 1813 3026 2020 
Q 2781 2228 2272 2228 
L 1259 2228 
z
M 1259 4147 
L 1259 2741 
L 2194 2741 
Q 2656 2741 2882 2914 
Q 3109 3088 3109 3444 
Q 3109 3797 2882 3972 
Q 2656 4147 2194 4147 
L 1259 4147 
z
M 628 4666 
L 2241 4666 
Q 2963 4666 3353 4366 
Q 3744 4066 3744 3513 
Q 3744 3084 3544 2831 
Q 3344 2578 2956 2516 
Q 3422 2416 3680 2098 
Q 3938 1781 3938 1306 
Q 3938 681 3513 340 
Q 3088 0 2303 0 
L 628 0 
L 628 4666 
z
" transform="scale(0.015625)"/>
     </defs>
     <use xlink:href="#DejaVuSans-55"/>
     <use xlink:href="#DejaVuSans-53" transform="translate(73.193359 0)"/>
     <use xlink:href="#DejaVuSans-42" transform="translate(136.669922 0)"/>
    </g>
   </g>
   <g id="text_3">
    <!-- 1 -->
    <g transform="translate(203.76 134.692344) scale(0.11 -0.11)">
     <defs>
      <path id="DejaVuSans-31" d="M 794 531 
L 1825 531 
L 1825 4091 
L 703 3866 
L 703 4441 
L 1819 4666 
L 2450 4666 
L 2450 531 
L 3481 531 
L 3481 0 
L 794 0 
L 794 531 
z
" transform="scale(0.015625)"/>
     </defs>
     <use xlink:href="#DejaVuSans-31"/>
    </g>
   </g>
   <g id="text_4">
    <!-- VOUT -->
    <g transform="translate(156.510312 143.543125) scale(0.14 -0.14)">
     <defs>
      <path id="DejaVuSans-56" d="M 1831 0 
L 50 4666 
L 709 4666 
L 2188 738 
L 3669 4666 
L 4325 4666 
L 2547 0 
L 1831 0 
z
" transform="scale(0.015625)"/>
      <path id="DejaVuSans-4f" d="M 2522 4238 
Q 1834 4238 1429 3725 
Q 1025 3213 1025 2328 
Q 1025 1447 1429 934 
Q 1834 422 2522 422 
Q 3209 422 3611 934 
Q 4013 1447 4013 2328 
Q 4013 3213 3611 3725 
Q 3209 4238 2522 4238 
z
M 2522 4750 
Q 3503 4750 4090 4092 
Q 4678 3434 4678 2328 
Q 4678 1225 4090 567 
Q 3503 -91 2522 -91 
Q 1538 -91 948 565 
Q 359 1222 359 2328 
Q 359 3434 948 4092 
Q 1538 4750 2522 4750 
z
" transform="scale(0.015625)"/>
      <path id="DejaVuSans-54" d="M -19 4666 
L 3928 4666 
L 3928 4134 
L 2272 4134 
L 2272 0 
L 1638 0 
L 1638 4134 
L -19 4134 
L -19 4666 
z
" transform="scale(0.015625)"/>
     </defs>
     <use xlink:href="#DejaVuSans-56"/>
     <use xlink:href="#DejaVuSans-4f" transform="translate(66.658203 0)"/>
     <use xlink:href="#DejaVuSans-55" transform="translate(145.369141 0)"/>
     <use xlink:href="#DejaVuSans-54" transform="translate(218.5625 0)"/>
    </g>
   </g>
   <g id="text_5">
    <!-- 2 -->
    <g transform="translate(203.76 84.292344) scale(0.11 -0.11)">
     <defs>
      <path id="DejaVuSans-32" d="M 1228 531 
L 3431 531 
L 3431 0 
L 469 0 
L 469 531 
Q 828 903 1448 1529 
Q 2069 2156 2228 2338 
Q 2531 2678 2651 2914 
Q 2772 3150 2772 3378 
Q 2772 3750 2511 3984 
Q 2250 4219 1831 4219 
Q 1534 4219 1204 4116 
Q 875 4013 500 3803 
L 500 4441 
Q 881 4594 1212 4672 
Q 1544 4750 1819 4750 
Q 2544 4750 2975 4387 
Q 3406 4025 3406 3419 
Q 3406 3131 3298 2873 
Q 3191 2616 2906 2266 
Q 2828 2175 2409 1742 
Q 1991 1309 1228 531 
z
" transform="scale(0.015625)"/>
     </defs>
     <use xlink:href="#DejaVuSans-32"/>
    </g>
   </g>
   <g id="text_6">
    <!-- GND -->
    <g transform="translate(163.558437 93.143125) scale(0.14 -0.14)">
     <defs>
      <path id="DejaVuSans-47" d="M 3809 666 
L 3809 1919 
L 2778 1919 
L 2778 2438 
L 4434 2438 
L 4434 434 
Q 4069 175 3628 42 
Q 3188 -91 2688 -91 
Q 1594 -91 976 548 
Q 359 1188 359 2328 
Q 359 3472 976 4111 
Q 1594 4750 2688 4750 
Q 3144 4750 3555 4637 
Q 3966 4525 4313 4306 
L 4313 3634 
Q 3963 3931 3569 4081 
Q 3175 4231 2741 4231 
Q 1884 4231 1454 3753 
Q 1025 3275 1025 2328 
Q 1025 1384 1454 906 
Q 1884 428 2741 428 
Q 3075 428 3337 486 
Q 3600 544 3809 666 
z
" transform="scale(0.015625)"/>
      <path id="DejaVuSans-4e" d="M 628 4666 
L 1478 4666 
L 3547 763 
L 3547 4666 
L 4159 4666 
L 4159 0 
L 3309 0 
L 1241 3903 
L 1241 0 
L 628 0 
L 628 4666 
z
" transform="scale(0.015625)"/>
      <path id="DejaVuSans-44" d="M 1259 4147 
L 1259 519 
L 2022 519 
Q 2988 519 3436 956 
Q 3884 1394 3884 2338 
Q 3884 3275 3436 3711 
Q 2988 4147 2022 4147 
L 1259 4147 
z
M 628 4666 
L 1925 4666 
Q 3281 4666 3915 4102 
Q 4550 3538 4550 2338 
Q 4550 1131 3912 565 
Q 3275 0 1925 0 
L 628 0 
L 628 4666 
z
" transform="scale(0.015625)"/>
     </defs>
     <use xlink:href="#DejaVuSans-47"/>
     <use xlink:href="#DejaVuSans-4e" transform="translate(77.490234 0)"/>
     <use xlink:href="#DejaVuSans-44" transform="translate(152.294922 0)"/>
    </g>
   </g>
   <g id="text_7">
    <!-- U1 -->
    <g transform="translate(146.303438 104.653125) scale(0.09 -0.09)">
     <use xlink:href="#DejaVuSans-55"/>
     <use xlink:href="#DejaVuSans-31" transform="translate(73.193359 0)"/>
    </g>
    <!-- Hailege H-1-1765 -->
    <g transform="translate(113.046328 113.363437) scale(0.09 -0.09)">
     <defs>
      <path id="DejaVuSans-48" d="M 628 4666 
L 1259 4666 
L 1259 2753 
L 3553 2753 
L 3553 4666 
L 4184 4666 
L 4184 0 
L 3553 0 
L 3553 2222 
L 1259 2222 
L 1259 0 
L 628 0 
L 628 4666 
z
" transform="scale(0.015625)"/>
      <path id="DejaVuSans-61" d="M 2194 1759 
Q 1497 1759 1228 1600 
Q 959 1441 959 1056 
Q 959 750 1161 570 
Q 1363 391 1709 391 
Q 2188 391 2477 730 
Q 2766 1069 2766 1631 
L 2766 1759 
L 2194 1759 
z
M 3341 1997 
L 3341 0 
L 2766 0 
L 2766 531 
Q 2569 213 2275 61 
Q 1981 -91 1556 -91 
Q 1019 -91 701 211 
Q 384 513 384 1019 
Q 384 1609 779 1909 
Q 1175 2209 1959 2209 
L 2766 2209 
L 2766 2266 
Q 2766 2663 2505 2880 
Q 2244 3097 1772 3097 
Q 1472 3097 1187 3025 
Q 903 2953 641 2809 
L 641 3341 
Q 956 3463 1253 3523 
Q 1550 3584 1831 3584 
Q 2591 3584 2966 3190 
Q 3341 2797 3341 1997 
z
" transform="scale(0.015625)"/>
      <path id="DejaVuSans-69" d="M 603 3500 
L 1178 3500 
L 1178 0 
L 603 0 
L 603 3500 
z
M 603 4863 
L 1178 4863 
L 1178 4134 
L 603 4134 
L 603 4863 
z
" transform="scale(0.015625)"/>
      <path id="DejaVuSans-6c" d="M 603 4863 
L 1178 4863 
L 1178 0 
L 603 0 
L 603 4863 
z
" transform="scale(0.015625)"/>
      <path id="DejaVuSans-65" d="M 3597 1894 
L 3597 1613 
L 953 1613 
Q 991 1019 1311 708 
Q 1631 397 2203 397 
Q 2534 397 2845 478 
Q 3156 559 3463 722 
L 3463 178 
Q 3153 47 2828 -22 
Q 2503 -91 2169 -91 
Q 1331 -91 842 396 
Q 353 884 353 1716 
Q 353 2575 817 3079 
Q 1281 3584 2069 3584 
Q 2775 3584 3186 3129 
Q 3597 2675 3597 1894 
z
M 3022 2063 
Q 3016 2534 2758 2815 
Q 2500 3097 2075 3097 
Q 1594 3097 1305 2825 
Q 1016 2553 972 2059 
L 3022 2063 
z
" transform="scale(0.015625)"/>
      <path id="DejaVuSans-67" d="M 2906 1791 
Q 2906 2416 2648 2759 
Q 2391 3103 1925 3103 
Q 1463 3103 1205 2759 
Q 947 2416 947 1791 
Q 947 1169 1205 825 
Q 1463 481 1925 481 
Q 2391 481 2648 825 
Q 2906 1169 2906 1791 
z
M 3481 434 
Q 3481 -459 3084 -895 
Q 2688 -1331 1869 -1331 
Q 1566 -1331 1297 -1286 
Q 1028 -1241 775 -1147 
L 775 -588 
Q 1028 -725 1275 -790 
Q 1522 -856 1778 -856 
Q 2344 -856 2625 -561 
Q 2906 -266 2906 331 
L 2906 616 
Q 2728 306 2450 153 
Q 2172 0 1784 0 
Q 1141 0 747 490 
Q 353 981 353 1791 
Q 353 2603 747 3093 
Q 1141 3584 1784 3584 
Q 2172 3584 2450 3431 
Q 2728 3278 2906 2969 
L 2906 3500 
L 3481 3500 
L 3481 434 
z
" transform="scale(0.015625)"/>
      <path id="DejaVuSans-20" transform="scale(0.015625)"/>
      <path id="DejaVuSans-2d" d="M 313 2009 
L 1997 2009 
L 1997 1497 
L 313 1497 
L 313 2009 
z
" transform="scale(0.015625)"/>
      <path id="DejaVuSans-37" d="M 525 4666 
L 3525 4666 
L 3525 4397 
L 1831 0 
L 1172 0 
L 2766 4134 
L 525 4134 
L 525 4666 
z
" transform="scale(0.015625)"/>
      <path id="DejaVuSans-36" d="M 2113 2584 
Q 1688 2584 1439 2293 
Q 1191 2003 1191 1497 
Q 1191 994 1439 701 
Q 1688 409 2113 409 
Q 2538 409 2786 701 
Q 3034 994 3034 1497 
Q 3034 2003 2786 2293 
Q 2538 2584 2113 2584 
z
M 3366 4563 
L 3366 3988 
Q 3128 4100 2886 4159 
Q 2644 4219 2406 4219 
Q 1781 4219 1451 3797 
Q 1122 3375 1075 2522 
Q 1259 2794 1537 2939 
Q 1816 3084 2150 3084 
Q 2853 3084 3261 2657 
Q 3669 2231 3669 1497 
Q 3669 778 3244 343 
Q 2819 -91 2113 -91 
Q 1303 -91 875 529 
Q 447 1150 447 2328 
Q 447 3434 972 4092 
Q 1497 4750 2381 4750 
Q 2619 4750 2861 4703 
Q 3103 4656 3366 4563 
z
" transform="scale(0.015625)"/>
      <path id="DejaVuSans-35" d="M 691 4666 
L 3169 4666 
L 3169 4134 
L 1269 4134 
L 1269 2991 
Q 1406 3038 1543 3061 
Q 1681 3084 1819 3084 
Q 2600 3084 3056 2656 
Q 3513 2228 3513 1497 
Q 3513 744 3044 326 
Q 2575 -91 1722 -91 
Q 1428 -91 1123 -41 
Q 819 9 494 109 
L 494 744 
Q 775 591 1075 516 
Q 1375 441 1709 441 
Q 2250 441 2565 725 
Q 2881 1009 2881 1497 
Q 2881 1984 2565 2268 
Q 2250 2553 1709 2553 
Q 1456 2553 1204 2497 
Q 953 2441 691 2322 
L 691 4666 
z
" transform="scale(0.015625)"/>
     </defs>
     <use xlink:href="#DejaVuSans-48"/>
     <use xlink:href="#DejaVuSans-61" transform="translate(75.195312 0)"/>
     <use xlink:href="#DejaVuSans-69" transform="translate(136.474609 0)"/>
     <use xlink:href="#DejaVuSans-6c" transform="translate(164.257812 0)"/>
     <use xlink:href="#DejaVuSans-65" transform="translate(192.041016 0)"/>
     <use xlink:href="#DejaVuSans-67" transform="translate(253.564453 0)"/>
     <use xlink:href="#DejaVuSans-65" transform="translate(317.041016 0)"/>
     <use xlink:href="#DejaVuSans-20" transform="translate(378.564453 0)"/>
     <use xlink:href="#DejaVuSans-48" transform="translate(410.351562 0)"/>
     <use xlink:href="#DejaVuSans-2d" transform="translate(485.546875 0)"/>
     <use xlink:href="#DejaVuSans-31" transform="translate(521.630859 0)"/>
     <use xlink:href="#DejaVuSans-2d" transform="translate(585.253906 0)"/>
     <use xlink:href="#DejaVuSans-31" transform="translate(621.337891 0)"/>
     <use xlink:href="#DejaVuSans-37" transform="translate(684.960938 0)"/>
     <use xlink:href="#DejaVuSans-36" transform="translate(748.583984 0)"/>
     <use xlink:href="#DejaVuSans-35" transform="translate(812.207031 0)"/>
    </g>
    <!-- (USB-C PD → 12 V) -->
    <g transform="translate(110.470781 122.07375) scale(0.09 -0.09)">
     <defs>
      <path id="DejaVuSans-28" d="M 1984 4856 
Q 1566 4138 1362 3434 
Q 1159 2731 1159 2009 
Q 1159 1288 1364 580 
Q 1569 -128 1984 -844 
L 1484 -844 
Q 1016 -109 783 600 
Q 550 1309 550 2009 
Q 550 2706 781 3412 
Q 1013 4119 1484 4856 
L 1984 4856 
z
" transform="scale(0.015625)"/>
      <path id="DejaVuSans-43" d="M 4122 4306 
L 4122 3641 
Q 3803 3938 3442 4084 
Q 3081 4231 2675 4231 
Q 1875 4231 1450 3742 
Q 1025 3253 1025 2328 
Q 1025 1406 1450 917 
Q 1875 428 2675 428 
Q 3081 428 3442 575 
Q 3803 722 4122 1019 
L 4122 359 
Q 3791 134 3420 21 
Q 3050 -91 2638 -91 
Q 1578 -91 968 557 
Q 359 1206 359 2328 
Q 359 3453 968 4101 
Q 1578 4750 2638 4750 
Q 3056 4750 3426 4639 
Q 3797 4528 4122 4306 
z
" transform="scale(0.015625)"/>
      <path id="DejaVuSans-50" d="M 1259 4147 
L 1259 2394 
L 2053 2394 
Q 2494 2394 2734 2622 
Q 2975 2850 2975 3272 
Q 2975 3691 2734 3919 
Q 2494 4147 2053 4147 
L 1259 4147 
z
M 628 4666 
L 2053 4666 
Q 2838 4666 3239 4311 
Q 3641 3956 3641 3272 
Q 3641 2581 3239 2228 
Q 2838 1875 2053 1875 
L 1259 1875 
L 1259 0 
L 628 0 
L 628 4666 
z
" transform="scale(0.015625)"/>
      <path id="DejaVuSans-2192" d="M 5050 2147 
L 5050 1866 
L 3822 638 
L 3447 1013 
L 4175 1741 
L 366 1741 
L 366 2272 
L 4175 2272 
L 3447 3000 
L 3822 3375 
L 5050 2147 
z
" transform="scale(0.015625)"/>
      <path id="DejaVuSans-29" d="M 513 4856 
L 1013 4856 
Q 1481 4119 1714 3412 
Q 1947 2706 1947 2009 
Q 1947 1309 1714 600 
Q 1481 -109 1013 -844 
L 513 -844 
Q 928 -128 1133 580 
Q 1338 1288 1338 2009 
Q 1338 2731 1133 3434 
Q 928 4138 513 4856 
z
" transform="scale(0.015625)"/>
     </defs>
     <use xlink:href="#DejaVuSans-28"/>
     <use xlink:href="#DejaVuSans-55" transform="translate(39.013672 0)"/>
     <use xlink:href="#DejaVuSans-53" transform="translate(112.207031 0)"/>
     <use xlink:href="#DejaVuSans-42" transform="translate(175.683594 0)"/>
     <use xlink:href="#DejaVuSans-2d" transform="translate(244.287109 0)"/>
     <use xlink:href="#DejaVuSans-43" transform="translate(280.371094 0)"/>
     <use xlink:href="#DejaVuSans-20" transform="translate(350.195312 0)"/>
     <use xlink:href="#DejaVuSans-50" transform="translate(381.982422 0)"/>
     <use xlink:href="#DejaVuSans-44" transform="translate(442.285156 0)"/>
     <use xlink:href="#DejaVuSans-20" transform="translate(519.287109 0)"/>
     <use xlink:href="#DejaVuSans-2192" transform="translate(551.074219 0)"/>
     <use xlink:href="#DejaVuSans-20" transform="translate(634.863281 0)"/>
     <use xlink:href="#DejaVuSans-31" transform="translate(666.650391 0)"/>
     <use xlink:href="#DejaVuSans-32" transform="translate(730.273438 0)"/>
     <use xlink:href="#DejaVuSans-20" transform="translate(793.896484 0)"/>
     <use xlink:href="#DejaVuSans-56" transform="translate(825.683594 0)"/>
     <use xlink:href="#DejaVuSans-29" transform="translate(894.091797 0)"/>
    </g>
   </g>
   <g id="text_8">
    <!-- USB-C -->
    <g transform="translate(18.253125 116.208281) scale(0.09 -0.09)">
     <use xlink:href="#DejaVuSans-55"/>
     <use xlink:href="#DejaVuSans-53" transform="translate(73.193359 0)"/>
     <use xlink:href="#DejaVuSans-42" transform="translate(136.669922 0)"/>
     <use xlink:href="#DejaVuSans-2d" transform="translate(205.273438 0)"/>
     <use xlink:href="#DejaVuSans-43" transform="translate(241.357422 0)"/>
    </g>
    <!-- 5–20 V PD -->
    <g transform="translate(0.347344 124.918594) scale(0.09 -0.09)">
     <defs>
      <path id="DejaVuSans-2013" d="M 313 1978 
L 2888 1978 
L 2888 1528 
L 313 1528 
L 313 1978 
z
" transform="scale(0.015625)"/>
      <path id="DejaVuSans-30" d="M 2034 4250 
Q 1547 4250 1301 3770 
Q 1056 3291 1056 2328 
Q 1056 1369 1301 889 
Q 1547 409 2034 409 
Q 2525 409 2770 889 
Q 3016 1369 3016 2328 
Q 3016 3291 2770 3770 
Q 2525 4250 2034 4250 
z
M 2034 4750 
Q 2819 4750 3233 4129 
Q 3647 3509 3647 2328 
Q 3647 1150 3233 529 
Q 2819 -91 2034 -91 
Q 1250 -91 836 529 
Q 422 1150 422 2328 
Q 422 3509 836 4129 
Q 1250 4750 2034 4750 
z
" transform="scale(0.015625)"/>
     </defs>
     <use xlink:href="#DejaVuSans-35"/>
     <use xlink:href="#DejaVuSans-2013" transform="translate(63.623047 0)"/>
     <use xlink:href="#DejaVuSans-32" transform="translate(113.623047 0)"/>
     <use xlink:href="#DejaVuSans-30" transform="translate(177.246094 0)"/>
     <use xlink:href="#DejaVuSans-20" transform="translate(240.869141 0)"/>
     <use xlink:href="#DejaVuSans-56" transform="translate(272.65625 0)"/>
     <use xlink:href="#DejaVuSans-20" transform="translate(341.064453 0)"/>
     <use xlink:href="#DejaVuSans-50" transform="translate(372.851562 0)"/>
     <use xlink:href="#DejaVuSans-44" transform="translate(433.154297 0)"/>
    </g>
   </g>
   <g id="text_9">
    <!-- → 12 V (to LED channels) -->
    <g style="fill: #e65100" transform="translate(802.26 138.563437) scale(0.09 -0.09)">
     <defs>
      <path id="DejaVuSans-74" d="M 1172 4494 
L 1172 3500 
L 2356 3500 
L 2356 3053 
L 1172 3053 
L 1172 1153 
Q 1172 725 1289 603 
Q 1406 481 1766 481 
L 2356 481 
L 2356 0 
L 1766 0 
Q 1100 0 847 248 
Q 594 497 594 1153 
L 594 3053 
L 172 3053 
L 172 3500 
L 594 3500 
L 594 4494 
L 1172 4494 
z
" transform="scale(0.015625)"/>
      <path id="DejaVuSans-6f" d="M 1959 3097 
Q 1497 3097 1228 2736 
Q 959 2375 959 1747 
Q 959 1119 1226 758 
Q 1494 397 1959 397 
Q 2419 397 2687 759 
Q 2956 1122 2956 1747 
Q 2956 2369 2687 2733 
Q 2419 3097 1959 3097 
z
M 1959 3584 
Q 2709 3584 3137 3096 
Q 3566 2609 3566 1747 
Q 3566 888 3137 398 
Q 2709 -91 1959 -91 
Q 1206 -91 779 398 
Q 353 888 353 1747 
Q 353 2609 779 3096 
Q 1206 3584 1959 3584 
z
" transform="scale(0.015625)"/>
      <path id="DejaVuSans-4c" d="M 628 4666 
L 1259 4666 
L 1259 531 
L 3531 531 
L 3531 0 
L 628 0 
L 628 4666 
z
" transform="scale(0.015625)"/>
      <path id="DejaVuSans-45" d="M 628 4666 
L 3578 4666 
L 3578 4134 
L 1259 4134 
L 1259 2753 
L 3481 2753 
L 3481 2222 
L 1259 2222 
L 1259 531 
L 3634 531 
L 3634 0 
L 628 0 
L 628 4666 
z
" transform="scale(0.015625)"/>
      <path id="DejaVuSans-63" d="M 3122 3366 
L 3122 2828 
Q 2878 2963 2633 3030 
Q 2388 3097 2138 3097 
Q 1578 3097 1268 2742 
Q 959 2388 959 1747 
Q 959 1106 1268 751 
Q 1578 397 2138 397 
Q 2388 397 2633 464 
Q 2878 531 3122 666 
L 3122 134 
Q 2881 22 2623 -34 
Q 2366 -91 2075 -91 
Q 1284 -91 818 406 
Q 353 903 353 1747 
Q 353 2603 823 3093 
Q 1294 3584 2113 3584 
Q 2378 3584 2631 3529 
Q 2884 3475 3122 3366 
z
" transform="scale(0.015625)"/>
      <path id="DejaVuSans-68" d="M 3513 2113 
L 3513 0 
L 2938 0 
L 2938 2094 
Q 2938 2591 2744 2837 
Q 2550 3084 2163 3084 
Q 1697 3084 1428 2787 
Q 1159 2491 1159 1978 
L 1159 0 
L 581 0 
L 581 4863 
L 1159 4863 
L 1159 2956 
Q 1366 3272 1645 3428 
Q 1925 3584 2291 3584 
Q 2894 3584 3203 3211 
Q 3513 2838 3513 2113 
z
" transform="scale(0.015625)"/>
      <path id="DejaVuSans-6e" d="M 3513 2113 
L 3513 0 
L 2938 0 
L 2938 2094 
Q 2938 2591 2744 2837 
Q 2550 3084 2163 3084 
Q 1697 3084 1428 2787 
Q 1159 2491 1159 1978 
L 1159 0 
L 581 0 
L 581 3500 
L 1159 3500 
L 1159 2956 
Q 1366 3272 1645 3428 
Q 1925 3584 2291 3584 
Q 2894 3584 3203 3211 
Q 3513 2838 3513 2113 
z
" transform="scale(0.015625)"/>
      <path id="DejaVuSans-73" d="M 2834 3397 
L 2834 2853 
Q 2591 2978 2328 3040 
Q 2066 3103 1784 3103 
Q 1356 3103 1142 2972 
Q 928 2841 928 2578 
Q 928 2378 1081 2264 
Q 1234 2150 1697 2047 
L 1894 2003 
Q 2506 1872 2764 1633 
Q 3022 1394 3022 966 
Q 3022 478 2636 193 
Q 2250 -91 1575 -91 
Q 1294 -91 989 -36 
Q 684 19 347 128 
L 347 722 
Q 666 556 975 473 
Q 1284 391 1588 391 
Q 1994 391 2212 530 
Q 2431 669 2431 922 
Q 2431 1156 2273 1281 
Q 2116 1406 1581 1522 
L 1381 1569 
Q 847 1681 609 1914 
Q 372 2147 372 2553 
Q 372 3047 722 3315 
Q 1072 3584 1716 3584 
Q 2034 3584 2315 3537 
Q 2597 3491 2834 3397 
z
" transform="scale(0.015625)"/>
     </defs>
     <use xlink:href="#DejaVuSans-2192"/>
     <use xlink:href="#DejaVuSans-20" transform="translate(83.789062 0)"/>
     <use xlink:href="#DejaVuSans-31" transform="translate(115.576172 0)"/>
     <use xlink:href="#DejaVuSans-32" transform="translate(179.199219 0)"/>
     <use xlink:href="#DejaVuSans-20" transform="translate(242.822266 0)"/>
     <use xlink:href="#DejaVuSans-56" transform="translate(274.609375 0)"/>
     <use xlink:href="#DejaVuSans-20" transform="translate(343.017578 0)"/>
     <use xlink:href="#DejaVuSans-28" transform="translate(374.804688 0)"/>
     <use xlink:href="#DejaVuSans-74" transform="translate(413.818359 0)"/>
     <use xlink:href="#DejaVuSans-6f" transform="translate(453.027344 0)"/>
     <use xlink:href="#DejaVuSans-20" transform="translate(514.208984 0)"/>
     <use xlink:href="#DejaVuSans-4c" transform="translate(545.996094 0)"/>
     <use xlink:href="#DejaVuSans-45" transform="translate(601.708984 0)"/>
     <use xlink:href="#DejaVuSans-44" transform="translate(664.892578 0)"/>
     <use xlink:href="#DejaVuSans-20" transform="translate(741.894531 0)"/>
     <use xlink:href="#DejaVuSans-63" transform="translate(773.681641 0)"/>
     <use xlink:href="#DejaVuSans-68" transform="translate(828.662109 0)"/>
     <use xlink:href="#DejaVuSans-61" transform="translate(892.041016 0)"/>
     <use xlink:href="#DejaVuSans-6e" transform="translate(953.320312 0)"/>
     <use xlink:href="#DejaVuSans-6e" transform="translate(1016.699219 0)"/>
     <use xlink:href="#DejaVuSans-65" transform="translate(1080.078125 0)"/>
     <use xlink:href="#DejaVuSans-6c" transform="translate(1141.601562 0)"/>
     <use xlink:href="#DejaVuSans-73" transform="translate(1169.384766 0)"/>
     <use xlink:href="#DejaVuSans-29" transform="translate(1221.484375 0)"/>
    </g>
   </g>
   <g id="text_10">
    <!-- C1 -->
    <g style="fill: #e65100" transform="translate(234.654609 116.787656) scale(0.09 -0.09)">
     <use xlink:href="#DejaVuSans-43"/>
     <use xlink:href="#DejaVuSans-31" transform="translate(69.824219 0)"/>
    </g>
    <!-- 1000 µF -->
    <g style="fill: #e65100" transform="translate(222.326016 125.497969) scale(0.09 -0.09)">
     <defs>
      <path id="DejaVuSans-b5" d="M 544 -1331 
L 544 3500 
L 1119 3500 
L 1119 1325 
Q 1119 872 1334 640 
Q 1550 409 1972 409 
Q 2434 409 2667 671 
Q 2900 934 2900 1459 
L 2900 3500 
L 3475 3500 
L 3475 806 
Q 3475 619 3529 530 
Q 3584 441 3700 441 
Q 3728 441 3778 458 
Q 3828 475 3916 513 
L 3916 50 
Q 3788 -22 3673 -56 
Q 3559 -91 3450 -91 
Q 3234 -91 3106 31 
Q 2978 153 2931 403 
Q 2775 156 2548 32 
Q 2322 -91 2016 -91 
Q 1697 -91 1473 31 
Q 1250 153 1119 397 
L 1119 -1331 
L 544 -1331 
z
" transform="scale(0.015625)"/>
      <path id="DejaVuSans-46" d="M 628 4666 
L 3309 4666 
L 3309 4134 
L 1259 4134 
L 1259 2759 
L 3109 2759 
L 3109 2228 
L 1259 2228 
L 1259 0 
L 628 0 
L 628 4666 
z
" transform="scale(0.015625)"/>
     </defs>
     <use xlink:href="#DejaVuSans-31"/>
     <use xlink:href="#DejaVuSans-30" transform="translate(63.623047 0)"/>
     <use xlink:href="#DejaVuSans-30" transform="translate(127.246094 0)"/>
     <use xlink:href="#DejaVuSans-30" transform="translate(190.869141 0)"/>
     <use xlink:href="#DejaVuSans-20" transform="translate(254.492188 0)"/>
     <use xlink:href="#DejaVuSans-b5" transform="translate(286.279297 0)"/>
     <use xlink:href="#DejaVuSans-46" transform="translate(349.902344 0)"/>
    </g>
    <!-- 25 V -->
    <g style="fill: #e65100" transform="translate(230.425312 134.208281) scale(0.09 -0.09)">
     <use xlink:href="#DejaVuSans-32"/>
     <use xlink:href="#DejaVuSans-35" transform="translate(63.623047 0)"/>
     <use xlink:href="#DejaVuSans-20" transform="translate(127.246094 0)"/>
     <use xlink:href="#DejaVuSans-56" transform="translate(159.033203 0)"/>
    </g>
   </g>
   <g id="text_11">
    <!-- 2 -->
    <g transform="translate(306.36 257.092344) scale(0.11 -0.11)">
     <use xlink:href="#DejaVuSans-32"/>
    </g>
   </g>
   <g id="text_12">
    <!-- VOUT -->
    <g transform="translate(264.510312 255.143125) scale(0.14 -0.14)">
     <use xlink:href="#DejaVuSans-56"/>
     <use xlink:href="#DejaVuSans-4f" transform="translate(66.658203 0)"/>
     <use xlink:href="#DejaVuSans-55" transform="translate(145.369141 0)"/>
     <use xlink:href="#DejaVuSans-54" transform="translate(218.5625 0)"/>
    </g>
   </g>
   <g id="text_13">
    <!-- 1 -->
    <g transform="translate(351.36 204.892344) scale(0.11 -0.11)">
     <use xlink:href="#DejaVuSans-31"/>
    </g>
   </g>
   <g id="text_14">
    <!-- VIN -->
    <g transform="translate(331.169688 215.117812) scale(0.14 -0.14)">
     <defs>
      <path id="DejaVuSans-49" d="M 628 4666 
L 1259 4666 
L 1259 0 
L 628 0 
L 628 4666 
z
" transform="scale(0.015625)"/>
     </defs>
     <use xlink:href="#DejaVuSans-56"/>
     <use xlink:href="#DejaVuSans-49" transform="translate(68.408203 0)"/>
     <use xlink:href="#DejaVuSans-4e" transform="translate(97.900391 0)"/>
    </g>
   </g>
   <g id="text_15">
    <!-- 3 -->
    <g transform="translate(255.96 215.538281) scale(0.11 -0.11)">
     <defs>
      <path id="DejaVuSans-33" d="M 2597 2516 
Q 3050 2419 3304 2112 
Q 3559 1806 3559 1356 
Q 3559 666 3084 287 
Q 2609 -91 1734 -91 
Q 1441 -91 1130 -33 
Q 819 25 488 141 
L 488 750 
Q 750 597 1062 519 
Q 1375 441 1716 441 
Q 2309 441 2620 675 
Q 2931 909 2931 1356 
Q 2931 1769 2642 2001 
Q 2353 2234 1838 2234 
L 1294 2234 
L 1294 2753 
L 1863 2753 
Q 2328 2753 2575 2939 
Q 2822 3125 2822 3475 
Q 2822 3834 2567 4026 
Q 2313 4219 1838 4219 
Q 1578 4219 1281 4162 
Q 984 4106 628 3988 
L 628 4550 
Q 988 4650 1302 4700 
Q 1616 4750 1894 4750 
Q 2613 4750 3031 4423 
Q 3450 4097 3450 3541 
Q 3450 3153 3228 2886 
Q 3006 2619 2597 2516 
z
" transform="scale(0.015625)"/>
     </defs>
     <use xlink:href="#DejaVuSans-33"/>
    </g>
   </g>
   <g id="text_16">
    <!-- GND -->
    <g transform="translate(248.009219 201.568437) scale(0.14 -0.14)">
     <use xlink:href="#DejaVuSans-47"/>
     <use xlink:href="#DejaVuSans-4e" transform="translate(77.490234 0)"/>
     <use xlink:href="#DejaVuSans-44" transform="translate(152.294922 0)"/>
    </g>
   </g>
   <g id="text_17">
    <!-- U2 -->
    <g transform="translate(301.103437 201.853125) scale(0.09 -0.09)">
     <use xlink:href="#DejaVuSans-55"/>
     <use xlink:href="#DejaVuSans-32" transform="translate(73.193359 0)"/>
    </g>
    <!-- LM2596S -->
    <g transform="translate(286.560703 210.563437) scale(0.09 -0.09)">
     <defs>
      <path id="DejaVuSans-4d" d="M 628 4666 
L 1569 4666 
L 2759 1491 
L 3956 4666 
L 4897 4666 
L 4897 0 
L 4281 0 
L 4281 4097 
L 3078 897 
L 2444 897 
L 1241 4097 
L 1241 0 
L 628 0 
L 628 4666 
z
" transform="scale(0.015625)"/>
      <path id="DejaVuSans-39" d="M 703 97 
L 703 672 
Q 941 559 1184 500 
Q 1428 441 1663 441 
Q 2288 441 2617 861 
Q 2947 1281 2994 2138 
Q 2813 1869 2534 1725 
Q 2256 1581 1919 1581 
Q 1219 1581 811 2004 
Q 403 2428 403 3163 
Q 403 3881 828 4315 
Q 1253 4750 1959 4750 
Q 2769 4750 3195 4129 
Q 3622 3509 3622 2328 
Q 3622 1225 3098 567 
Q 2575 -91 1691 -91 
Q 1453 -91 1209 -44 
Q 966 3 703 97 
z
M 1959 2075 
Q 2384 2075 2632 2365 
Q 2881 2656 2881 3163 
Q 2881 3666 2632 3958 
Q 2384 4250 1959 4250 
Q 1534 4250 1286 3958 
Q 1038 3666 1038 3163 
Q 1038 2656 1286 2365 
Q 1534 2075 1959 2075 
z
" transform="scale(0.015625)"/>
     </defs>
     <use xlink:href="#DejaVuSans-4c"/>
     <use xlink:href="#DejaVuSans-4d" transform="translate(55.712891 0)"/>
     <use xlink:href="#DejaVuSans-32" transform="translate(141.992188 0)"/>
     <use xlink:href="#DejaVuSans-35" transform="translate(205.615234 0)"/>
     <use xlink:href="#DejaVuSans-39" transform="translate(269.238281 0)"/>
     <use xlink:href="#DejaVuSans-36" transform="translate(332.861328 0)"/>
     <use xlink:href="#DejaVuSans-53" transform="translate(396.484375 0)"/>
    </g>
    <!-- 12 V → 3.3 V -->
    <g transform="translate(278.729297 219.27375) scale(0.09 -0.09)">
     <defs>
      <path id="DejaVuSans-2e" d="M 684 794 
L 1344 794 
L 1344 0 
L 684 0 
L 684 794 
z
" transform="scale(0.015625)"/>
     </defs>
     <use xlink:href="#DejaVuSans-31"/>
     <use xlink:href="#DejaVuSans-32" transform="translate(63.623047 0)"/>
     <use xlink:href="#DejaVuSans-20" transform="translate(127.246094 0)"/>
     <use xlink:href="#DejaVuSans-56" transform="translate(159.033203 0)"/>
     <use xlink:href="#DejaVuSans-20" transform="translate(227.441406 0)"/>
     <use xlink:href="#DejaVuSans-2192" transform="translate(259.228516 0)"/>
     <use xlink:href="#DejaVuSans-20" transform="translate(343.017578 0)"/>
     <use xlink:href="#DejaVuSans-33" transform="translate(374.804688 0)"/>
     <use xlink:href="#DejaVuSans-2e" transform="translate(438.427734 0)"/>
     <use xlink:href="#DejaVuSans-33" transform="translate(470.214844 0)"/>
     <use xlink:href="#DejaVuSans-20" transform="translate(533.837891 0)"/>
     <use xlink:href="#DejaVuSans-56" transform="translate(565.625 0)"/>
    </g>
   </g>
   <g id="text_18">
    <!-- C2 -->
    <g style="fill: #c62828" transform="translate(319.254609 251.787656) scale(0.09 -0.09)">
     <use xlink:href="#DejaVuSans-43"/>
     <use xlink:href="#DejaVuSans-32" transform="translate(69.824219 0)"/>
    </g>
    <!-- 100 µF -->
    <g style="fill: #c62828" transform="translate(309.789141 260.497969) scale(0.09 -0.09)">
     <use xlink:href="#DejaVuSans-31"/>
     <use xlink:href="#DejaVuSans-30" transform="translate(63.623047 0)"/>
     <use xlink:href="#DejaVuSans-30" transform="translate(127.246094 0)"/>
     <use xlink:href="#DejaVuSans-20" transform="translate(190.869141 0)"/>
     <use xlink:href="#DejaVuSans-b5" transform="translate(222.65625 0)"/>
     <use xlink:href="#DejaVuSans-46" transform="translate(286.279297 0)"/>
    </g>
    <!-- 16 V -->
    <g style="fill: #c62828" transform="translate(315.025312 269.208281) scale(0.09 -0.09)">
     <use xlink:href="#DejaVuSans-31"/>
     <use xlink:href="#DejaVuSans-36" transform="translate(63.623047 0)"/>
     <use xlink:href="#DejaVuSans-20" transform="translate(127.246094 0)"/>
     <use xlink:href="#DejaVuSans-56" transform="translate(159.033203 0)"/>
    </g>
   </g>
   <g id="text_19">
    <!-- C3 -->
    <g style="fill: #c62828" transform="translate(391.254609 260.497969) scale(0.09 -0.09)">
     <use xlink:href="#DejaVuSans-43"/>
     <use xlink:href="#DejaVuSans-33" transform="translate(69.824219 0)"/>
    </g>
    <!-- 100 nF -->
    <g style="fill: #c62828" transform="translate(381.800391 269.208281) scale(0.09 -0.09)">
     <use xlink:href="#DejaVuSans-31"/>
     <use xlink:href="#DejaVuSans-30" transform="translate(63.623047 0)"/>
     <use xlink:href="#DejaVuSans-30" transform="translate(127.246094 0)"/>
     <use xlink:href="#DejaVuSans-20" transform="translate(190.869141 0)"/>
     <use xlink:href="#DejaVuSans-6e" transform="translate(222.65625 0)"/>
     <use xlink:href="#DejaVuSans-46" transform="translate(286.035156 0)"/>
    </g>
   </g>
   <g id="text_20">
    <!-- 1 -->
    <g transform="translate(495.56125 269.692344) scale(0.11 -0.11)">
     <use xlink:href="#DejaVuSans-31"/>
    </g>
   </g>
   <g id="text_21">
    <!-- V33 -->
    <g transform="translate(510.66 278.543125) scale(0.14 -0.14)">
     <use xlink:href="#DejaVuSans-56"/>
     <use xlink:href="#DejaVuSans-33" transform="translate(68.408203 0)"/>
     <use xlink:href="#DejaVuSans-33" transform="translate(132.03125 0)"/>
    </g>
   </g>
   <g id="text_22">
    <!-- 2 -->
    <g transform="translate(495.56125 237.292344) scale(0.11 -0.11)">
     <use xlink:href="#DejaVuSans-32"/>
    </g>
   </g>
   <g id="text_23">
    <!-- EGND -->
    <g transform="translate(510.66 246.143125) scale(0.14 -0.14)">
     <use xlink:href="#DejaVuSans-45"/>
     <use xlink:href="#DejaVuSans-47" transform="translate(63.183594 0)"/>
     <use xlink:href="#DejaVuSans-4e" transform="translate(140.673828 0)"/>
     <use xlink:href="#DejaVuSans-44" transform="translate(215.478516 0)"/>
    </g>
   </g>
   <g id="text_24">
    <!-- 3 -->
    <g transform="translate(622.632 302.092344) scale(0.11 -0.11)">
     <use xlink:href="#DejaVuSans-33"/>
    </g>
   </g>
   <g id="text_25">
    <!-- GPIO25 -->
    <g transform="translate(562.277 310.943125) scale(0.14 -0.14)">
     <use xlink:href="#DejaVuSans-47"/>
     <use xlink:href="#DejaVuSans-50" transform="translate(77.490234 0)"/>
     <use xlink:href="#DejaVuSans-49" transform="translate(137.792969 0)"/>
     <use xlink:href="#DejaVuSans-4f" transform="translate(167.285156 0)"/>
     <use xlink:href="#DejaVuSans-32" transform="translate(245.996094 0)"/>
     <use xlink:href="#DejaVuSans-35" transform="translate(309.619141 0)"/>
    </g>
   </g>
   <g id="text_26">
    <!-- 4 -->
    <g transform="translate(622.632 269.692344) scale(0.11 -0.11)">
     <defs>
      <path id="DejaVuSans-34" d="M 2419 4116 
L 825 1625 
L 2419 1625 
L 2419 4116 
z
M 2253 4666 
L 3047 4666 
L 3047 1625 
L 3713 1625 
L 3713 1100 
L 3047 1100 
L 3047 0 
L 2419 0 
L 2419 1100 
L 313 1100 
L 313 1709 
L 2253 4666 
z
" transform="scale(0.015625)"/>
     </defs>
     <use xlink:href="#DejaVuSans-34"/>
    </g>
   </g>
   <g id="text_27">
    <!-- GPIO26 -->
    <g transform="translate(562.277 278.543125) scale(0.14 -0.14)">
     <use xlink:href="#DejaVuSans-47"/>
     <use xlink:href="#DejaVuSans-50" transform="translate(77.490234 0)"/>
     <use xlink:href="#DejaVuSans-49" transform="translate(137.792969 0)"/>
     <use xlink:href="#DejaVuSans-4f" transform="translate(167.285156 0)"/>
     <use xlink:href="#DejaVuSans-32" transform="translate(245.996094 0)"/>
     <use xlink:href="#DejaVuSans-36" transform="translate(309.619141 0)"/>
    </g>
   </g>
   <g id="text_28">
    <!-- 5 -->
    <g transform="translate(622.632 237.292344) scale(0.11 -0.11)">
     <use xlink:href="#DejaVuSans-35"/>
    </g>
   </g>
   <g id="text_29">
    <!-- GPIO27 -->
    <g transform="translate(562.277 246.143125) scale(0.14 -0.14)">
     <use xlink:href="#DejaVuSans-47"/>
     <use xlink:href="#DejaVuSans-50" transform="translate(77.490234 0)"/>
     <use xlink:href="#DejaVuSans-49" transform="translate(137.792969 0)"/>
     <use xlink:href="#DejaVuSans-4f" transform="translate(167.285156 0)"/>
     <use xlink:href="#DejaVuSans-32" transform="translate(245.996094 0)"/>
     <use xlink:href="#DejaVuSans-37" transform="translate(309.619141 0)"/>
    </g>
   </g>
   <g id="text_30">
    <!-- 6 -->
    <g transform="translate(622.632 204.892344) scale(0.11 -0.11)">
     <use xlink:href="#DejaVuSans-36"/>
    </g>
   </g>
   <g id="text_31">
    <!-- GPIO13 -->
    <g transform="translate(562.277 213.743125) scale(0.14 -0.14)">
     <use xlink:href="#DejaVuSans-47"/>
     <use xlink:href="#DejaVuSans-50" transform="translate(77.490234 0)"/>
     <use xlink:href="#DejaVuSans-49" transform="translate(137.792969 0)"/>
     <use xlink:href="#DejaVuSans-4f" transform="translate(167.285156 0)"/>
     <use xlink:href="#DejaVuSans-31" transform="translate(245.996094 0)"/>
     <use xlink:href="#DejaVuSans-33" transform="translate(309.619141 0)"/>
    </g>
   </g>
   <g id="text_32">
    <!-- U3 -->
    <g transform="translate(560.039438 253.008281) scale(0.09 -0.09)">
     <use xlink:href="#DejaVuSans-55"/>
     <use xlink:href="#DejaVuSans-33" transform="translate(73.193359 0)"/>
    </g>
    <!-- ESP32 DevKit C V4 -->
    <g transform="translate(523.819359 261.718594) scale(0.09 -0.09)">
     <defs>
      <path id="DejaVuSans-76" d="M 191 3500 
L 800 3500 
L 1894 563 
L 2988 3500 
L 3597 3500 
L 2284 0 
L 1503 0 
L 191 3500 
z
" transform="scale(0.015625)"/>
      <path id="DejaVuSans-4b" d="M 628 4666 
L 1259 4666 
L 1259 2694 
L 3353 4666 
L 4166 4666 
L 1850 2491 
L 4331 0 
L 3500 0 
L 1259 2247 
L 1259 0 
L 628 0 
L 628 4666 
z
" transform="scale(0.015625)"/>
     </defs>
     <use xlink:href="#DejaVuSans-45"/>
     <use xlink:href="#DejaVuSans-53" transform="translate(63.183594 0)"/>
     <use xlink:href="#DejaVuSans-50" transform="translate(126.660156 0)"/>
     <use xlink:href="#DejaVuSans-33" transform="translate(186.962891 0)"/>
     <use xlink:href="#DejaVuSans-32" transform="translate(250.585938 0)"/>
     <use xlink:href="#DejaVuSans-20" transform="translate(314.208984 0)"/>
     <use xlink:href="#DejaVuSans-44" transform="translate(345.996094 0)"/>
     <use xlink:href="#DejaVuSans-65" transform="translate(422.998047 0)"/>
     <use xlink:href="#DejaVuSans-76" transform="translate(484.521484 0)"/>
     <use xlink:href="#DejaVuSans-4b" transform="translate(543.701172 0)"/>
     <use xlink:href="#DejaVuSans-69" transform="translate(609.277344 0)"/>
     <use xlink:href="#DejaVuSans-74" transform="translate(637.060547 0)"/>
     <use xlink:href="#DejaVuSans-20" transform="translate(676.269531 0)"/>
     <use xlink:href="#DejaVuSans-43" transform="translate(708.056641 0)"/>
     <use xlink:href="#DejaVuSans-20" transform="translate(777.880859 0)"/>
     <use xlink:href="#DejaVuSans-56" transform="translate(809.667969 0)"/>
     <use xlink:href="#DejaVuSans-34" transform="translate(878.076172 0)"/>
    </g>
   </g>
   <g id="text_33">
    <!-- PWM1  (GPIO25) -->
    <g style="fill: #2e7d32" transform="translate(659.532 305.963437) scale(0.09 -0.09)">
     <defs>
      <path id="DejaVuSans-57" d="M 213 4666 
L 850 4666 
L 1831 722 
L 2809 4666 
L 3519 4666 
L 4500 722 
L 5478 4666 
L 6119 4666 
L 4947 0 
L 4153 0 
L 3169 4050 
L 2175 0 
L 1381 0 
L 213 4666 
z
" transform="scale(0.015625)"/>
     </defs>
     <use xlink:href="#DejaVuSans-50"/>
     <use xlink:href="#DejaVuSans-57" transform="translate(60.302734 0)"/>
     <use xlink:href="#DejaVuSans-4d" transform="translate(159.179688 0)"/>
     <use xlink:href="#DejaVuSans-31" transform="translate(245.458984 0)"/>
     <use xlink:href="#DejaVuSans-20" transform="translate(309.082031 0)"/>
     <use xlink:href="#DejaVuSans-20" transform="translate(340.869141 0)"/>
     <use xlink:href="#DejaVuSans-28" transform="translate(372.65625 0)"/>
     <use xlink:href="#DejaVuSans-47" transform="translate(411.669922 0)"/>
     <use xlink:href="#DejaVuSans-50" transform="translate(489.160156 0)"/>
     <use xlink:href="#DejaVuSans-49" transform="translate(549.462891 0)"/>
     <use xlink:href="#DejaVuSans-4f" transform="translate(578.955078 0)"/>
     <use xlink:href="#DejaVuSans-32" transform="translate(657.666016 0)"/>
     <use xlink:href="#DejaVuSans-35" transform="translate(721.289062 0)"/>
     <use xlink:href="#DejaVuSans-29" transform="translate(784.912109 0)"/>
    </g>
   </g>
   <g id="text_34">
    <!-- PWM2  (GPIO26) -->
    <g style="fill: #2e7d32" transform="translate(659.532 273.563437) scale(0.09 -0.09)">
     <use xlink:href="#DejaVuSans-50"/>
     <use xlink:href="#DejaVuSans-57" transform="translate(60.302734 0)"/>
     <use xlink:href="#DejaVuSans-4d" transform="translate(159.179688 0)"/>
     <use xlink:href="#DejaVuSans-32" transform="translate(245.458984 0)"/>
     <use xlink:href="#DejaVuSans-20" transform="translate(309.082031 0)"/>
     <use xlink:href="#DejaVuSans-20" transform="translate(340.869141 0)"/>
     <use xlink:href="#DejaVuSans-28" transform="translate(372.65625 0)"/>
     <use xlink:href="#DejaVuSans-47" transform="translate(411.669922 0)"/>
     <use xlink:href="#DejaVuSans-50" transform="translate(489.160156 0)"/>
     <use xlink:href="#DejaVuSans-49" transform="translate(549.462891 0)"/>
     <use xlink:href="#DejaVuSans-4f" transform="translate(578.955078 0)"/>
     <use xlink:href="#DejaVuSans-32" transform="translate(657.666016 0)"/>
     <use xlink:href="#DejaVuSans-36" transform="translate(721.289062 0)"/>
     <use xlink:href="#DejaVuSans-29" transform="translate(784.912109 0)"/>
    </g>
   </g>
   <g id="text_35">
    <!-- PWM3  (GPIO27) -->
    <g style="fill: #2e7d32" transform="translate(659.532 241.163437) scale(0.09 -0.09)">
     <use xlink:href="#DejaVuSans-50"/>
     <use xlink:href="#DejaVuSans-57" transform="translate(60.302734 0)"/>
     <use xlink:href="#DejaVuSans-4d" transform="translate(159.179688 0)"/>
     <use xlink:href="#DejaVuSans-33" transform="translate(245.458984 0)"/>
     <use xlink:href="#DejaVuSans-20" transform="translate(309.082031 0)"/>
     <use xlink:href="#DejaVuSans-20" transform="translate(340.869141 0)"/>
     <use xlink:href="#DejaVuSans-28" transform="translate(372.65625 0)"/>
     <use xlink:href="#DejaVuSans-47" transform="translate(411.669922 0)"/>
     <use xlink:href="#DejaVuSans-50" transform="translate(489.160156 0)"/>
     <use xlink:href="#DejaVuSans-49" transform="translate(549.462891 0)"/>
     <use xlink:href="#DejaVuSans-4f" transform="translate(578.955078 0)"/>
     <use xlink:href="#DejaVuSans-32" transform="translate(657.666016 0)"/>
     <use xlink:href="#DejaVuSans-37" transform="translate(721.289062 0)"/>
     <use xlink:href="#DejaVuSans-29" transform="translate(784.912109 0)"/>
    </g>
   </g>
   <g id="text_36">
    <!-- NTC (GPIO13 ADC) -->
    <g style="fill: #2e7d32" transform="translate(659.532 208.763437) scale(0.09 -0.09)">
     <use xlink:href="#DejaVuSans-4e"/>
     <use xlink:href="#DejaVuSans-54" transform="translate(74.804688 0)"/>
     <use xlink:href="#DejaVuSans-43" transform="translate(130.013672 0)"/>
     <use xlink:href="#DejaVuSans-20" transform="translate(199.837891 0)"/>
     <use xlink:href="#DejaVuSans-28" transform="translate(231.625 0)"/>
     <use xlink:href="#DejaVuSans-47" transform="translate(270.638672 0)"/>
     <use xlink:href="#DejaVuSans-50" transform="translate(348.128906 0)"/>
     <use xlink:href="#DejaVuSans-49" transform="translate(408.431641 0)"/>
     <use xlink:href="#DejaVuSans-4f" transform="translate(437.923828 0)"/>
     <use xlink:href="#DejaVuSans-31" transform="translate(516.634766 0)"/>
     <use xlink:href="#DejaVuSans-33" transform="translate(580.257812 0)"/>
     <use xlink:href="#DejaVuSans-20" transform="translate(643.880859 0)"/>
     <use xlink:href="#DejaVuSans-41" transform="translate(675.667969 0)"/>
     <use xlink:href="#DejaVuSans-44" transform="translate(744.076172 0)"/>
     <use xlink:href="#DejaVuSans-43" transform="translate(821.078125 0)"/>
     <use xlink:href="#DejaVuSans-29" transform="translate(890.902344 0)"/>
    </g>
   </g>
   <g id="text_37">
    <!-- 12 V -->
    <g style="fill: #e65100" transform="translate(952.225313 11.808281) scale(0.09 -0.09)">
     <use xlink:href="#DejaVuSans-31"/>
     <use xlink:href="#DejaVuSans-32" transform="translate(63.623047 0)"/>
     <use xlink:href="#DejaVuSans-20" transform="translate(127.246094 0)"/>
     <use xlink:href="#DejaVuSans-56" transform="translate(159.033203 0)"/>
    </g>
   </g>
   <g id="text_38">
    <!-- LED1 -->
    <g style="fill: #1565c0" transform="translate(947.181094 21.097969) scale(0.09 -0.09)">
     <use xlink:href="#DejaVuSans-4c"/>
     <use xlink:href="#DejaVuSans-45" transform="translate(55.712891 0)"/>
     <use xlink:href="#DejaVuSans-44" transform="translate(118.896484 0)"/>
     <use xlink:href="#DejaVuSans-31" transform="translate(195.898438 0)"/>
    </g>
    <!-- (12 V LED strip) -->
    <g style="fill: #1565c0" transform="translate(923.372578 29.808281) scale(0.09 -0.09)">
     <defs>
      <path id="DejaVuSans-72" d="M 2631 2963 
Q 2534 3019 2420 3045 
Q 2306 3072 2169 3072 
Q 1681 3072 1420 2755 
Q 1159 2438 1159 1844 
L 1159 0 
L 581 0 
L 581 3500 
L 1159 3500 
L 1159 2956 
Q 1341 3275 1631 3429 
Q 1922 3584 2338 3584 
Q 2397 3584 2469 3576 
Q 2541 3569 2628 3553 
L 2631 2963 
z
" transform="scale(0.015625)"/>
      <path id="DejaVuSans-70" d="M 1159 525 
L 1159 -1331 
L 581 -1331 
L 581 3500 
L 1159 3500 
L 1159 2969 
Q 1341 3281 1617 3432 
Q 1894 3584 2278 3584 
Q 2916 3584 3314 3078 
Q 3713 2572 3713 1747 
Q 3713 922 3314 415 
Q 2916 -91 2278 -91 
Q 1894 -91 1617 61 
Q 1341 213 1159 525 
z
M 3116 1747 
Q 3116 2381 2855 2742 
Q 2594 3103 2138 3103 
Q 1681 3103 1420 2742 
Q 1159 2381 1159 1747 
Q 1159 1113 1420 752 
Q 1681 391 2138 391 
Q 2594 391 2855 752 
Q 3116 1113 3116 1747 
z
" transform="scale(0.015625)"/>
     </defs>
     <use xlink:href="#DejaVuSans-28"/>
     <use xlink:href="#DejaVuSans-31" transform="translate(39.013672 0)"/>
     <use xlink:href="#DejaVuSans-32" transform="translate(102.636719 0)"/>
     <use xlink:href="#DejaVuSans-20" transform="translate(166.259766 0)"/>
     <use xlink:href="#DejaVuSans-56" transform="translate(198.046875 0)"/>
     <use xlink:href="#DejaVuSans-20" transform="translate(266.455078 0)"/>
     <use xlink:href="#DejaVuSans-4c" transform="translate(298.242188 0)"/>
     <use xlink:href="#DejaVuSans-45" transform="translate(353.955078 0)"/>
     <use xlink:href="#DejaVuSans-44" transform="translate(417.138672 0)"/>
     <use xlink:href="#DejaVuSans-20" transform="translate(494.140625 0)"/>
     <use xlink:href="#DejaVuSans-73" transform="translate(525.927734 0)"/>
     <use xlink:href="#DejaVuSans-74" transform="translate(578.027344 0)"/>
     <use xlink:href="#DejaVuSans-72" transform="translate(617.236328 0)"/>
     <use xlink:href="#DejaVuSans-69" transform="translate(658.349609 0)"/>
     <use xlink:href="#DejaVuSans-70" transform="translate(686.132812 0)"/>
     <use xlink:href="#DejaVuSans-29" transform="translate(749.609375 0)"/>
    </g>
   </g>
   <g id="text_39">
    <!-- Q1 -->
    <g style="fill: #212121" transform="translate(925.454531 129.097969) scale(0.09 -0.09)">
     <defs>
      <path id="DejaVuSans-51" d="M 2522 4238 
Q 1834 4238 1429 3725 
Q 1025 3213 1025 2328 
Q 1025 1447 1429 934 
Q 1834 422 2522 422 
Q 3209 422 3611 934 
Q 4013 1447 4013 2328 
Q 4013 3213 3611 3725 
Q 3209 4238 2522 4238 
z
M 3406 84 
L 4238 -825 
L 3475 -825 
L 2784 -78 
Q 2681 -84 2626 -87 
Q 2572 -91 2522 -91 
Q 1538 -91 948 567 
Q 359 1225 359 2328 
Q 359 3434 948 4092 
Q 1538 4750 2522 4750 
Q 3503 4750 4090 4092 
Q 4678 3434 4678 2328 
Q 4678 1516 4351 937 
Q 4025 359 3406 84 
z
" transform="scale(0.015625)"/>
     </defs>
     <use xlink:href="#DejaVuSans-51"/>
     <use xlink:href="#DejaVuSans-31" transform="translate(78.710938 0)"/>
    </g>
    <!-- IRLZ44N -->
    <g style="fill: #212121" transform="translate(912.723047 137.808281) scale(0.09 -0.09)">
     <defs>
      <path id="DejaVuSans-52" d="M 2841 2188 
Q 3044 2119 3236 1894 
Q 3428 1669 3622 1275 
L 4263 0 
L 3584 0 
L 2988 1197 
Q 2756 1666 2539 1819 
Q 2322 1972 1947 1972 
L 1259 1972 
L 1259 0 
L 628 0 
L 628 4666 
L 2053 4666 
Q 2853 4666 3247 4331 
Q 3641 3997 3641 3322 
Q 3641 2881 3436 2590 
Q 3231 2300 2841 2188 
z
M 1259 4147 
L 1259 2491 
L 2053 2491 
Q 2509 2491 2742 2702 
Q 2975 2913 2975 3322 
Q 2975 3731 2742 3939 
Q 2509 4147 2053 4147 
L 1259 4147 
z
" transform="scale(0.015625)"/>
      <path id="DejaVuSans-5a" d="M 359 4666 
L 4025 4666 
L 4025 4184 
L 1075 531 
L 4097 531 
L 4097 0 
L 288 0 
L 288 481 
L 3238 4134 
L 359 4134 
L 359 4666 
z
" transform="scale(0.015625)"/>
     </defs>
     <use xlink:href="#DejaVuSans-49"/>
     <use xlink:href="#DejaVuSans-52" transform="translate(29.492188 0)"/>
     <use xlink:href="#DejaVuSans-4c" transform="translate(98.974609 0)"/>
     <use xlink:href="#DejaVuSans-5a" transform="translate(154.6875 0)"/>
     <use xlink:href="#DejaVuSans-34" transform="translate(223.193359 0)"/>
     <use xlink:href="#DejaVuSans-34" transform="translate(286.816406 0)"/>
     <use xlink:href="#DejaVuSans-4e" transform="translate(350.439453 0)"/>
    </g>
   </g>
   <g id="text_40">
    <!-- R4 -->
    <g style="fill: #546e7a" transform="translate(943.870078 178.297969) scale(0.09 -0.09)">
     <use xlink:href="#DejaVuSans-52"/>
     <use xlink:href="#DejaVuSans-34" transform="translate(69.482422 0)"/>
    </g>
    <!-- 10 kΩ -->
    <g style="fill: #546e7a" transform="translate(936.658828 187.008281) scale(0.09 -0.09)">
     <defs>
      <path id="DejaVuSans-6b" d="M 581 4863 
L 1159 4863 
L 1159 1991 
L 2875 3500 
L 3609 3500 
L 1753 1863 
L 3688 0 
L 2938 0 
L 1159 1709 
L 1159 0 
L 581 0 
L 581 4863 
z
" transform="scale(0.015625)"/>
      <path id="DejaVuSans-3a9" d="M 4647 556 
L 4647 0 
L 2772 0 
L 2772 556 
Q 3325 859 3634 1378 
Q 3944 1897 3944 2528 
Q 3944 3278 3531 3731 
Q 3119 4184 2444 4184 
Q 1769 4184 1355 3729 
Q 941 3275 941 2528 
Q 941 1897 1250 1378 
Q 1563 859 2119 556 
L 2119 0 
L 244 0 
L 244 556 
L 1241 556 
Q 747 991 519 1456 
Q 294 1922 294 2497 
Q 294 3491 894 4106 
Q 1491 4722 2444 4722 
Q 3391 4722 3994 4106 
Q 4594 3494 4594 2528 
Q 4594 1922 4372 1459 
Q 4150 997 3647 556 
L 4647 556 
z
" transform="scale(0.015625)"/>
     </defs>
     <use xlink:href="#DejaVuSans-31"/>
     <use xlink:href="#DejaVuSans-30" transform="translate(63.623047 0)"/>
     <use xlink:href="#DejaVuSans-20" transform="translate(127.246094 0)"/>
     <use xlink:href="#DejaVuSans-6b" transform="translate(159.033203 0)"/>
     <use xlink:href="#DejaVuSans-3a9" transform="translate(216.943359 0)"/>
    </g>
   </g>
   <g id="text_41">
    <!-- R1 -->
    <g style="fill: #2e7d32" transform="translate(997.870078 169.297969) scale(0.09 -0.09)">
     <use xlink:href="#DejaVuSans-52"/>
     <use xlink:href="#DejaVuSans-31" transform="translate(69.482422 0)"/>
    </g>
    <!-- 100 Ω -->
    <g style="fill: #2e7d32" transform="translate(990.401484 178.008281) scale(0.09 -0.09)">
     <use xlink:href="#DejaVuSans-31"/>
     <use xlink:href="#DejaVuSans-30" transform="translate(63.623047 0)"/>
     <use xlink:href="#DejaVuSans-30" transform="translate(127.246094 0)"/>
     <use xlink:href="#DejaVuSans-20" transform="translate(190.869141 0)"/>
     <use xlink:href="#DejaVuSans-3a9" transform="translate(222.65625 0)"/>
    </g>
   </g>
   <g id="text_42">
    <!-- PWM1 -->
    <g style="fill: #2e7d32" transform="translate(1061.46 187.008281) scale(0.09 -0.09)">
     <use xlink:href="#DejaVuSans-50"/>
     <use xlink:href="#DejaVuSans-57" transform="translate(60.302734 0)"/>
     <use xlink:href="#DejaVuSans-4d" transform="translate(159.179688 0)"/>
     <use xlink:href="#DejaVuSans-31" transform="translate(245.458984 0)"/>
    </g>
    <!-- (GPIO25) -->
    <g style="fill: #2e7d32" transform="translate(1061.46 195.718594) scale(0.09 -0.09)">
     <use xlink:href="#DejaVuSans-28"/>
     <use xlink:href="#DejaVuSans-47" transform="translate(39.013672 0)"/>
     <use xlink:href="#DejaVuSans-50" transform="translate(116.503906 0)"/>
     <use xlink:href="#DejaVuSans-49" transform="translate(176.806641 0)"/>
     <use xlink:href="#DejaVuSans-4f" transform="translate(206.298828 0)"/>
     <use xlink:href="#DejaVuSans-32" transform="translate(285.009766 0)"/>
     <use xlink:href="#DejaVuSans-35" transform="translate(348.632812 0)"/>
     <use xlink:href="#DejaVuSans-29" transform="translate(412.255859 0)"/>
    </g>
   </g>
   <g id="text_43">
    <!-- D1 -->
    <g style="fill: #1565c0" transform="translate(909.331875 153.718594) scale(0.09 -0.09)">
     <use xlink:href="#DejaVuSans-44"/>
     <use xlink:href="#DejaVuSans-31" transform="translate(77.001953 0)"/>
    </g>
    <!-- 1N4007 -->
    <g style="fill: #1565c0" transform="translate(897.977813 162.428906) scale(0.09 -0.09)">
     <use xlink:href="#DejaVuSans-31"/>
     <use xlink:href="#DejaVuSans-4e" transform="translate(63.623047 0)"/>
     <use xlink:href="#DejaVuSans-34" transform="translate(138.427734 0)"/>
     <use xlink:href="#DejaVuSans-30" transform="translate(202.050781 0)"/>
     <use xlink:href="#DejaVuSans-30" transform="translate(265.673828 0)"/>
     <use xlink:href="#DejaVuSans-37" transform="translate(329.296875 0)"/>
    </g>
   </g>
   <g id="text_44">
    <!-- 12 V -->
    <g style="fill: #e65100" transform="translate(891.590625 16.163437) scale(0.09 -0.09)">
     <use xlink:href="#DejaVuSans-31"/>
     <use xlink:href="#DejaVuSans-32" transform="translate(63.623047 0)"/>
     <use xlink:href="#DejaVuSans-20" transform="translate(127.246094 0)"/>
     <use xlink:href="#DejaVuSans-56" transform="translate(159.033203 0)"/>
    </g>
   </g>
   <g id="text_45">
    <!-- 12 V -->
    <g style="fill: #e65100" transform="translate(1150.790625 16.163437) scale(0.09 -0.09)">
     <use xlink:href="#DejaVuSans-31"/>
     <use xlink:href="#DejaVuSans-32" transform="translate(63.623047 0)"/>
     <use xlink:href="#DejaVuSans-20" transform="translate(127.246094 0)"/>
     <use xlink:href="#DejaVuSans-56" transform="translate(159.033203 0)"/>
    </g>
   </g>
   <g id="text_46">
    <!-- LED2 -->
    <g style="fill: #1565c0" transform="translate(1163.181094 21.097969) scale(0.09 -0.09)">
     <use xlink:href="#DejaVuSans-4c"/>
     <use xlink:href="#DejaVuSans-45" transform="translate(55.712891 0)"/>
     <use xlink:href="#DejaVuSans-44" transform="translate(118.896484 0)"/>
     <use xlink:href="#DejaVuSans-32" transform="translate(195.898438 0)"/>
    </g>
    <!-- (12 V LED strip) -->
    <g style="fill: #1565c0" transform="translate(1139.372578 29.808281) scale(0.09 -0.09)">
     <use xlink:href="#DejaVuSans-28"/>
     <use xlink:href="#DejaVuSans-31" transform="translate(39.013672 0)"/>
     <use xlink:href="#DejaVuSans-32" transform="translate(102.636719 0)"/>
     <use xlink:href="#DejaVuSans-20" transform="translate(166.259766 0)"/>
     <use xlink:href="#DejaVuSans-56" transform="translate(198.046875 0)"/>
     <use xlink:href="#DejaVuSans-20" transform="translate(266.455078 0)"/>
     <use xlink:href="#DejaVuSans-4c" transform="translate(298.242188 0)"/>
     <use xlink:href="#DejaVuSans-45" transform="translate(353.955078 0)"/>
     <use xlink:href="#DejaVuSans-44" transform="translate(417.138672 0)"/>
     <use xlink:href="#DejaVuSans-20" transform="translate(494.140625 0)"/>
     <use xlink:href="#DejaVuSans-73" transform="translate(525.927734 0)"/>
     <use xlink:href="#DejaVuSans-74" transform="translate(578.027344 0)"/>
     <use xlink:href="#DejaVuSans-72" transform="translate(617.236328 0)"/>
     <use xlink:href="#DejaVuSans-69" transform="translate(658.349609 0)"/>
     <use xlink:href="#DejaVuSans-70" transform="translate(686.132812 0)"/>
     <use xlink:href="#DejaVuSans-29" transform="translate(749.609375 0)"/>
    </g>
   </g>
   <g id="text_47">
    <!-- Q2 -->
    <g style="fill: #212121" transform="translate(1141.454531 129.097969) scale(0.09 -0.09)">
     <use xlink:href="#DejaVuSans-51"/>
     <use xlink:href="#DejaVuSans-32" transform="translate(78.710938 0)"/>
    </g>
    <!-- IRLZ44N -->
    <g style="fill: #212121" transform="translate(1128.723047 137.808281) scale(0.09 -0.09)">
     <use xlink:href="#DejaVuSans-49"/>
     <use xlink:href="#DejaVuSans-52" transform="translate(29.492188 0)"/>
     <use xlink:href="#DejaVuSans-4c" transform="translate(98.974609 0)"/>
     <use xlink:href="#DejaVuSans-5a" transform="translate(154.6875 0)"/>
     <use xlink:href="#DejaVuSans-34" transform="translate(223.193359 0)"/>
     <use xlink:href="#DejaVuSans-34" transform="translate(286.816406 0)"/>
     <use xlink:href="#DejaVuSans-4e" transform="translate(350.439453 0)"/>
    </g>
   </g>
   <g id="text_48">
    <!-- R5 -->
    <g style="fill: #546e7a" transform="translate(1159.870078 178.297969) scale(0.09 -0.09)">
     <use xlink:href="#DejaVuSans-52"/>
     <use xlink:href="#DejaVuSans-35" transform="translate(69.482422 0)"/>
    </g>
    <!-- 10 kΩ -->
    <g style="fill: #546e7a" transform="translate(1152.658828 187.008281) scale(0.09 -0.09)">
     <use xlink:href="#DejaVuSans-31"/>
     <use xlink:href="#DejaVuSans-30" transform="translate(63.623047 0)"/>
     <use xlink:href="#DejaVuSans-20" transform="translate(127.246094 0)"/>
     <use xlink:href="#DejaVuSans-6b" transform="translate(159.033203 0)"/>
     <use xlink:href="#DejaVuSans-3a9" transform="translate(216.943359 0)"/>
    </g>
   </g>
   <g id="text_49">
    <!-- R2 -->
    <g style="fill: #2e7d32" transform="translate(1213.870078 169.297969) scale(0.09 -0.09)">
     <use xlink:href="#DejaVuSans-52"/>
     <use xlink:href="#DejaVuSans-32" transform="translate(69.482422 0)"/>
    </g>
    <!-- 100 Ω -->
    <g style="fill: #2e7d32" transform="translate(1206.401484 178.008281) scale(0.09 -0.09)">
     <use xlink:href="#DejaVuSans-31"/>
     <use xlink:href="#DejaVuSans-30" transform="translate(63.623047 0)"/>
     <use xlink:href="#DejaVuSans-30" transform="translate(127.246094 0)"/>
     <use xlink:href="#DejaVuSans-20" transform="translate(190.869141 0)"/>
     <use xlink:href="#DejaVuSans-3a9" transform="translate(222.65625 0)"/>
    </g>
   </g>
   <g id="text_50">
    <!-- PWM2 -->
    <g style="fill: #2e7d32" transform="translate(1277.46 187.008281) scale(0.09 -0.09)">
     <use xlink:href="#DejaVuSans-50"/>
     <use xlink:href="#DejaVuSans-57" transform="translate(60.302734 0)"/>
     <use xlink:href="#DejaVuSans-4d" transform="translate(159.179688 0)"/>
     <use xlink:href="#DejaVuSans-32" transform="translate(245.458984 0)"/>
    </g>
    <!-- (GPIO26) -->
    <g style="fill: #2e7d32" transform="translate(1277.46 195.718594) scale(0.09 -0.09)">
     <use xlink:href="#DejaVuSans-28"/>
     <use xlink:href="#DejaVuSans-47" transform="translate(39.013672 0)"/>
     <use xlink:href="#DejaVuSans-50" transform="translate(116.503906 0)"/>
     <use xlink:href="#DejaVuSans-49" transform="translate(176.806641 0)"/>
     <use xlink:href="#DejaVuSans-4f" transform="translate(206.298828 0)"/>
     <use xlink:href="#DejaVuSans-32" transform="translate(285.009766 0)"/>
     <use xlink:href="#DejaVuSans-36" transform="translate(348.632812 0)"/>
     <use xlink:href="#DejaVuSans-29" transform="translate(412.255859 0)"/>
    </g>
   </g>
   <g id="text_51">
    <!-- D2 -->
    <g style="fill: #1565c0" transform="translate(1125.331875 153.718594) scale(0.09 -0.09)">
     <use xlink:href="#DejaVuSans-44"/>
     <use xlink:href="#DejaVuSans-32" transform="translate(77.001953 0)"/>
    </g>
    <!-- 1N4007 -->
    <g style="fill: #1565c0" transform="translate(1113.977812 162.428906) scale(0.09 -0.09)">
     <use xlink:href="#DejaVuSans-31"/>
     <use xlink:href="#DejaVuSans-4e" transform="translate(63.623047 0)"/>
     <use xlink:href="#DejaVuSans-34" transform="translate(138.427734 0)"/>
     <use xlink:href="#DejaVuSans-30" transform="translate(202.050781 0)"/>
     <use xlink:href="#DejaVuSans-30" transform="translate(265.673828 0)"/>
     <use xlink:href="#DejaVuSans-37" transform="translate(329.296875 0)"/>
    </g>
   </g>
   <g id="text_52">
    <!-- 12 V -->
    <g style="fill: #e65100" transform="translate(1107.590625 16.163437) scale(0.09 -0.09)">
     <use xlink:href="#DejaVuSans-31"/>
     <use xlink:href="#DejaVuSans-32" transform="translate(63.623047 0)"/>
     <use xlink:href="#DejaVuSans-20" transform="translate(127.246094 0)"/>
     <use xlink:href="#DejaVuSans-56" transform="translate(159.033203 0)"/>
    </g>
   </g>
   <g id="text_53">
    <!-- 12 V -->
    <g style="fill: #e65100" transform="translate(1366.790625 16.163437) scale(0.09 -0.09)">
     <use xlink:href="#DejaVuSans-31"/>
     <use xlink:href="#DejaVuSans-32" transform="translate(63.623047 0)"/>
     <use xlink:href="#DejaVuSans-20" transform="translate(127.246094 0)"/>
     <use xlink:href="#DejaVuSans-56" transform="translate(159.033203 0)"/>
    </g>
   </g>
   <g id="text_54">
    <!-- LED3 -->
    <g style="fill: #1565c0" transform="translate(1379.181094 21.097969) scale(0.09 -0.09)">
     <use xlink:href="#DejaVuSans-4c"/>
     <use xlink:href="#DejaVuSans-45" transform="translate(55.712891 0)"/>
     <use xlink:href="#DejaVuSans-44" transform="translate(118.896484 0)"/>
     <use xlink:href="#DejaVuSans-33" transform="translate(195.898438 0)"/>
    </g>
    <!-- (12 V LED strip) -->
    <g style="fill: #1565c0" transform="translate(1355.372578 29.808281) scale(0.09 -0.09)">
     <use xlink:href="#DejaVuSans-28"/>
     <use xlink:href="#DejaVuSans-31" transform="translate(39.013672 0)"/>
     <use xlink:href="#DejaVuSans-32" transform="translate(102.636719 0)"/>
     <use xlink:href="#DejaVuSans-20" transform="translate(166.259766 0)"/>
     <use xlink:href="#DejaVuSans-56" transform="translate(198.046875 0)"/>
     <use xlink:href="#DejaVuSans-20" transform="translate(266.455078 0)"/>
     <use xlink:href="#DejaVuSans-4c" transform="translate(298.242188 0)"/>
     <use xlink:href="#DejaVuSans-45" transform="translate(353.955078 0)"/>
     <use xlink:href="#DejaVuSans-44" transform="translate(417.138672 0)"/>
     <use xlink:href="#DejaVuSans-20" transform="translate(494.140625 0)"/>
     <use xlink:href="#DejaVuSans-73" transform="translate(525.927734 0)"/>
     <use xlink:href="#DejaVuSans-74" transform="translate(578.027344 0)"/>
     <use xlink:href="#DejaVuSans-72" transform="translate(617.236328 0)"/>
     <use xlink:href="#DejaVuSans-69" transform="translate(658.349609 0)"/>
     <use xlink:href="#DejaVuSans-70" transform="translate(686.132812 0)"/>
     <use xlink:href="#DejaVuSans-29" transform="translate(749.609375 0)"/>
    </g>
   </g>
   <g id="text_55">
    <!-- Q3 -->
    <g style="fill: #212121" transform="translate(1357.454531 129.097969) scale(0.09 -0.09)">
     <use xlink:href="#DejaVuSans-51"/>
     <use xlink:href="#DejaVuSans-33" transform="translate(78.710938 0)"/>
    </g>
    <!-- IRLZ44N -->
    <g style="fill: #212121" transform="translate(1344.723047 137.808281) scale(0.09 -0.09)">
     <use xlink:href="#DejaVuSans-49"/>
     <use xlink:href="#DejaVuSans-52" transform="translate(29.492188 0)"/>
     <use xlink:href="#DejaVuSans-4c" transform="translate(98.974609 0)"/>
     <use xlink:href="#DejaVuSans-5a" transform="translate(154.6875 0)"/>
     <use xlink:href="#DejaVuSans-34" transform="translate(223.193359 0)"/>
     <use xlink:href="#DejaVuSans-34" transform="translate(286.816406 0)"/>
     <use xlink:href="#DejaVuSans-4e" transform="translate(350.439453 0)"/>
    </g>
   </g>
   <g id="text_56">
    <!-- R6 -->
    <g style="fill: #546e7a" transform="translate(1375.870078 178.297969) scale(0.09 -0.09)">
     <use xlink:href="#DejaVuSans-52"/>
     <use xlink:href="#DejaVuSans-36" transform="translate(69.482422 0)"/>
    </g>
    <!-- 10 kΩ -->
    <g style="fill: #546e7a" transform="translate(1368.658828 187.008281) scale(0.09 -0.09)">
     <use xlink:href="#DejaVuSans-31"/>
     <use xlink:href="#DejaVuSans-30" transform="translate(63.623047 0)"/>
     <use xlink:href="#DejaVuSans-20" transform="translate(127.246094 0)"/>
     <use xlink:href="#DejaVuSans-6b" transform="translate(159.033203 0)"/>
     <use xlink:href="#DejaVuSans-3a9" transform="translate(216.943359 0)"/>
    </g>
   </g>
   <g id="text_57">
    <!-- R3 -->
    <g style="fill: #2e7d32" transform="translate(1429.870078 169.297969) scale(0.09 -0.09)">
     <use xlink:href="#DejaVuSans-52"/>
     <use xlink:href="#DejaVuSans-33" transform="translate(69.482422 0)"/>
    </g>
    <!-- 100 Ω -->
    <g style="fill: #2e7d32" transform="translate(1422.401484 178.008281) scale(0.09 -0.09)">
     <use xlink:href="#DejaVuSans-31"/>
     <use xlink:href="#DejaVuSans-30" transform="translate(63.623047 0)"/>
     <use xlink:href="#DejaVuSans-30" transform="translate(127.246094 0)"/>
     <use xlink:href="#DejaVuSans-20" transform="translate(190.869141 0)"/>
     <use xlink:href="#DejaVuSans-3a9" transform="translate(222.65625 0)"/>
    </g>
   </g>
   <g id="text_58">
    <!-- PWM3 -->
    <g style="fill: #2e7d32" transform="translate(1493.46 187.008281) scale(0.09 -0.09)">
     <use xlink:href="#DejaVuSans-50"/>
     <use xlink:href="#DejaVuSans-57" transform="translate(60.302734 0)"/>
     <use xlink:href="#DejaVuSans-4d" transform="translate(159.179688 0)"/>
     <use xlink:href="#DejaVuSans-33" transform="translate(245.458984 0)"/>
    </g>
    <!-- (GPIO27) -->
    <g style="fill: #2e7d32" transform="translate(1493.46 195.718594) scale(0.09 -0.09)">
     <use xlink:href="#DejaVuSans-28"/>
     <use xlink:href="#DejaVuSans-47" transform="translate(39.013672 0)"/>
     <use xlink:href="#DejaVuSans-50" transform="translate(116.503906 0)"/>
     <use xlink:href="#DejaVuSans-49" transform="translate(176.806641 0)"/>
     <use xlink:href="#DejaVuSans-4f" transform="translate(206.298828 0)"/>
     <use xlink:href="#DejaVuSans-32" transform="translate(285.009766 0)"/>
     <use xlink:href="#DejaVuSans-37" transform="translate(348.632812 0)"/>
     <use xlink:href="#DejaVuSans-29" transform="translate(412.255859 0)"/>
    </g>
   </g>
   <g id="text_59">
    <!-- D3 -->
    <g style="fill: #1565c0" transform="translate(1341.331875 153.718594) scale(0.09 -0.09)">
     <use xlink:href="#DejaVuSans-44"/>
     <use xlink:href="#DejaVuSans-33" transform="translate(77.001953 0)"/>
    </g>
    <!-- 1N4007 -->
    <g style="fill: #1565c0" transform="translate(1329.977812 162.428906) scale(0.09 -0.09)">
     <use xlink:href="#DejaVuSans-31"/>
     <use xlink:href="#DejaVuSans-4e" transform="translate(63.623047 0)"/>
     <use xlink:href="#DejaVuSans-34" transform="translate(138.427734 0)"/>
     <use xlink:href="#DejaVuSans-30" transform="translate(202.050781 0)"/>
     <use xlink:href="#DejaVuSans-30" transform="translate(265.673828 0)"/>
     <use xlink:href="#DejaVuSans-37" transform="translate(329.296875 0)"/>
    </g>
   </g>
   <g id="text_60">
    <!-- 12 V -->
    <g style="fill: #e65100" transform="translate(1323.590625 16.163437) scale(0.09 -0.09)">
     <use xlink:href="#DejaVuSans-31"/>
     <use xlink:href="#DejaVuSans-32" transform="translate(63.623047 0)"/>
     <use xlink:href="#DejaVuSans-20" transform="translate(127.246094 0)"/>
     <use xlink:href="#DejaVuSans-56" transform="translate(159.033203 0)"/>
    </g>
   </g>
   <g id="patch_7">
    <path d="M 240.66 142.38 
C 241.376048 142.38 242.062866 142.095511 242.569188 141.589188 
C 243.075511 141.082866 243.36 140.396048 243.36 139.68 
C 243.36 138.963952 243.075511 138.277134 242.569188 137.770812 
C 242.062866 137.264489 241.376048 136.98 240.66 136.98 
C 239.943952 136.98 239.257134 137.264489 238.750812 137.770812 
C 238.244489 138.277134 237.96 138.963952 237.96 139.68 
C 237.96 140.396048 238.244489 141.082866 238.750812 141.589188 
C 239.257134 142.095511 239.943952 142.38 240.66 142.38 
z
" clip-path="url(#pc19c000649)" style="fill: #e65100; stroke: #e65100; stroke-width: 2; stroke-linejoin: miter"/>
   </g>
   <g id="patch_8">
    <path d="M 366.66 142.38 
C 367.376048 142.38 368.062866 142.095511 368.569188 141.589188 
C 369.075511 141.082866 369.36 140.396048 369.36 139.68 
C 369.36 138.963952 369.075511 138.277134 368.569188 137.770812 
C 368.062866 137.264489 367.376048 136.98 366.66 136.98 
C 365.943952 136.98 365.257134 137.264489 364.750812 137.770812 
C 364.244489 138.277134 363.96 138.963952 363.96 139.68 
C 363.96 140.396048 364.244489 141.082866 364.750812 141.589188 
C 365.257134 142.095511 365.943952 142.38 366.66 142.38 
z
" clip-path="url(#pc19c000649)" style="fill: #e65100; stroke: #e65100; stroke-width: 2; stroke-linejoin: miter"/>
   </g>
   <g id="patch_9">
    <path d="M 325.26 277.38 
C 325.976048 277.38 326.662866 277.095511 327.169188 276.589188 
C 327.675511 276.082866 327.96 275.396048 327.96 274.68 
C 327.96 273.963952 327.675511 273.277134 327.169188 272.770812 
C 326.662866 272.264489 325.976048 271.98 325.26 271.98 
C 324.543952 271.98 323.857134 272.264489 323.350812 272.770812 
C 322.844489 273.277134 322.56 273.963952 322.56 274.68 
C 322.56 275.396048 322.844489 276.082866 323.350812 276.589188 
C 323.857134 277.095511 324.543952 277.38 325.26 277.38 
z
" clip-path="url(#pc19c000649)" style="fill: #c62828; stroke: #c62828; stroke-width: 2; stroke-linejoin: miter"/>
   </g>
   <g id="patch_10">
    <path d="M 397.26 277.38 
C 397.976048 277.38 398.662866 277.095511 399.169188 276.589188 
C 399.675511 276.082866 399.96 275.396048 399.96 274.68 
C 399.96 273.963952 399.675511 273.277134 399.169188 272.770812 
C 398.662866 272.264489 397.976048 271.98 397.26 271.98 
C 396.543952 271.98 395.857134 272.264489 395.350812 272.770812 
C 394.844489 273.277134 394.56 273.963952 394.56 274.68 
C 394.56 275.396048 394.844489 276.082866 395.350812 276.589188 
C 395.857134 277.095511 396.543952 277.38 397.26 277.38 
z
" clip-path="url(#pc19c000649)" style="fill: #c62828; stroke: #c62828; stroke-width: 2; stroke-linejoin: miter"/>
   </g>
   <g id="patch_11">
    <path d="M 487.26 277.38 
C 487.976048 277.38 488.662866 277.095511 489.169188 276.589188 
C 489.675511 276.082866 489.96 275.396048 489.96 274.68 
C 489.96 273.963952 489.675511 273.277134 489.169188 272.770812 
C 488.662866 272.264489 487.976048 271.98 487.26 271.98 
C 486.543952 271.98 485.857134 272.264489 485.350812 272.770812 
C 484.844489 273.277134 484.56 273.963952 484.56 274.68 
C 484.56 275.396048 484.844489 276.082866 485.350812 276.589188 
C 485.857134 277.095511 486.543952 277.38 487.26 277.38 
z
" clip-path="url(#pc19c000649)" style="fill: #c62828; stroke: #c62828; stroke-width: 2; stroke-linejoin: miter"/>
   </g>
   <g id="patch_12">
    <path d="M 958.86 145.98 
C 959.576048 145.98 960.262866 145.695511 960.769188 145.189188 
C 961.275511 144.682866 961.56 143.996048 961.56 143.28 
C 961.56 142.563952 961.275511 141.877134 960.769188 141.370812 
C 960.262866 140.864489 959.576048 140.58 958.86 140.58 
C 958.143952 140.58 957.457134 140.864489 956.950812 141.370812 
C 956.444489 141.877134 956.16 142.563952 956.16 143.28 
C 956.16 143.996048 956.444489 144.682866 956.950812 145.189188 
C 957.457134 145.695511 958.143952 145.98 958.86 145.98 
z
" clip-path="url(#pc19c000649)" style="fill: #1565c0; stroke: #1565c0; stroke-width: 2; stroke-linejoin: miter"/>
   </g>
   <g id="patch_13">
    <path d="M 949.86 195.18 
C 950.576048 195.18 951.262866 194.895511 951.769188 194.389188 
C 952.275511 193.882866 952.56 193.196048 952.56 192.48 
C 952.56 191.763952 952.275511 191.077134 951.769188 190.570812 
C 951.262866 190.064489 950.576048 189.78 949.86 189.78 
C 949.143952 189.78 948.457134 190.064489 947.950812 190.570812 
C 947.444489 191.077134 947.16 191.763952 947.16 192.48 
C 947.16 193.196048 947.444489 193.882866 947.950812 194.389188 
C 948.457134 194.895511 949.143952 195.18 949.86 195.18 
z
" clip-path="url(#pc19c000649)" style="fill: #2e7d32; stroke: #2e7d32; stroke-width: 2; stroke-linejoin: miter"/>
   </g>
   <g id="patch_14">
    <path d="M 1174.86 145.98 
C 1175.576048 145.98 1176.262866 145.695511 1176.769188 145.189188 
C 1177.275511 144.682866 1177.56 143.996048 1177.56 143.28 
C 1177.56 142.563952 1177.275511 141.877134 1176.769188 141.370812 
C 1176.262866 140.864489 1175.576048 140.58 1174.86 140.58 
C 1174.143952 140.58 1173.457134 140.864489 1172.950812 141.370812 
C 1172.444489 141.877134 1172.16 142.563952 1172.16 143.28 
C 1172.16 143.996048 1172.444489 144.682866 1172.950812 145.189188 
C 1173.457134 145.695511 1174.143952 145.98 1174.86 145.98 
z
" clip-path="url(#pc19c000649)" style="fill: #1565c0; stroke: #1565c0; stroke-width: 2; stroke-linejoin: miter"/>
   </g>
   <g id="patch_15">
    <path d="M 1165.86 195.18 
C 1166.576048 195.18 1167.262866 194.895511 1167.769188 194.389188 
C 1168.275511 193.882866 1168.56 193.196048 1168.56 192.48 
C 1168.56 191.763952 1168.275511 191.077134 1167.769188 190.570812 
C 1167.262866 190.064489 1166.576048 189.78 1165.86 189.78 
C 1165.143952 189.78 1164.457134 190.064489 1163.950812 190.570812 
C 1163.444489 191.077134 1163.16 191.763952 1163.16 192.48 
C 1163.16 193.196048 1163.444489 193.882866 1163.950812 194.389188 
C 1164.457134 194.895511 1165.143952 195.18 1165.86 195.18 
z
" clip-path="url(#pc19c000649)" style="fill: #2e7d32; stroke: #2e7d32; stroke-width: 2; stroke-linejoin: miter"/>
   </g>
   <g id="patch_16">
    <path d="M 1390.86 145.98 
C 1391.576048 145.98 1392.262866 145.695511 1392.769188 145.189188 
C 1393.275511 144.682866 1393.56 143.996048 1393.56 143.28 
C 1393.56 142.563952 1393.275511 141.877134 1392.769188 141.370812 
C 1392.262866 140.864489 1391.576048 140.58 1390.86 140.58 
C 1390.143952 140.58 1389.457134 140.864489 1388.950812 141.370812 
C 1388.444489 141.877134 1388.16 142.563952 1388.16 143.28 
C 1388.16 143.996048 1388.444489 144.682866 1388.950812 145.189188 
C 1389.457134 145.695511 1390.143952 145.98 1390.86 145.98 
z
" clip-path="url(#pc19c000649)" style="fill: #1565c0; stroke: #1565c0; stroke-width: 2; stroke-linejoin: miter"/>
   </g>
   <g id="patch_17">
    <path d="M 1381.86 195.18 
C 1382.576048 195.18 1383.262866 194.895511 1383.769188 194.389188 
C 1384.275511 193.882866 1384.56 193.196048 1384.56 192.48 
C 1384.56 191.763952 1384.275511 191.077134 1383.769188 190.570812 
C 1383.262866 190.064489 1382.576048 189.78 1381.86 189.78 
C 1381.143952 189.78 1380.457134 190.064489 1379.950812 190.570812 
C 1379.444489 191.077134 1379.16 191.763952 1379.16 192.48 
C 1379.16 193.196048 1379.444489 193.882866 1379.950812 194.389188 
C 1380.457134 194.895511 1381.143952 195.18 1381.86 195.18 
z
" clip-path="url(#pc19c000649)" style="fill: #2e7d32; stroke: #2e7d32; stroke-width: 2; stroke-linejoin: miter"/>
   </g>
  </g>
 </g>
 <defs>
  <clipPath id="pc19c000649">
   <rect x="0" y="-0" width="1538.748" height="410.4"/>
  </clipPath>
 </defs>
</svg>
