<?xml version="1.0" encoding="utf-8" standalone="no"?>
<!DOCTYPE svg PUBLIC "-//W3C//DTD SVG 1.1//EN"
  "http://www.w3.org/Graphics/SVG/1.1/DTD/svg11.dtd">
<svg xmlns:xlink="http://www.w3.org/1999/xlink" width="1519.326pt" height="342pt" viewBox="0 0 1519.326 342" xmlns="http://www.w3.org/2000/svg" version="1.1">
 <metadata>
  <rdf:RDF xmlns:dc="http://purl.org/dc/elements/1.1/" xmlns:cc="http://creativecommons.org/ns#" xmlns:rdf="http://www.w3.org/1999/02/22-rdf-syntax-ns#">
   <cc:Work>
    <dc:type rdf:resource="http://purl.org/dc/dcmitype/StillImage"/>
    <dc:date>2026-03-15T20:32:42.489096</dc:date>
    <dc:format>image/svg+xml</dc:format>
    <dc:creator>
     <cc:Agent>
      <dc:title>Matplotlib v3.10.8, https://matplotlib.org/</dc:title>
     </cc:Agent>
    </dc:creator>
   </cc:Work>
  </rdf:RDF>
 </metadata>
 <defs>
  <style type="text/css">*{stroke-linejoin: round; stroke-linecap: butt}</style>
 </defs>
 <g id="figure_1">
  <g id="patch_1">
   <path d="M 0 342 
L 1519.326 342 
L 1519.326 0 
L 0 0 
L 0 342 
z
" style="fill: none"/>
  </g>
  <g id="axes_1">
   <g id="patch_2">
    <path d="M 246.620323 134.598319 
C 245.611224 133.895492 244.203342 133.315436 242.530469 132.913274 
C 240.857596 132.511112 238.974455 132.3 237.06 132.3 
C 235.145545 132.3 233.262404 132.511112 231.589531 132.913274 
C 229.916658 133.315436 228.508776 133.895492 227.499677 134.598319 
" clip-path="url(#p9afda0892e)" style="fill: none; stroke: #e65100; stroke-width: 2; stroke-linejoin: miter"/>
   </g>
   <g id="patch_3">
    <path d="M 331.220323 258.798319 
C 330.211224 258.095492 328.803342 257.515436 327.130469 257.113274 
C 325.457596 256.711112 323.574455 256.5 321.66 256.5 
C 319.745545 256.5 317.862404 256.711112 316.189531 257.113274 
C 314.516658 257.515436 313.108776 258.095492 312.099677 258.798319 
" clip-path="url(#p9afda0892e)" style="fill: none; stroke: #c62828; stroke-width: 2; stroke-linejoin: miter"/>
   </g>
   <g id="line2d_1">
    <path d="M 96.66 98.28 
L 201.06 98.28 
L 201.06 4.68 
L 96.66 4.68 
L 96.66 98.28 
" clip-path="url(#p9afda0892e)" style="fill: none; stroke: #000000; stroke-width: 2; stroke-linecap: round"/>
   </g>
   <g id="line2d_2">
    <path d="M 96.66 51.48 
L 78.66 51.48 
" clip-path="url(#p9afda0892e)" style="fill: none; stroke: #000000; stroke-width: 2; stroke-linecap: round"/>
   </g>
   <g id="line2d_3">
    <path d="M 201.06 76.68 
L 219.06 76.68 
" clip-path="url(#p9afda0892e)" style="fill: none; stroke: #000000; stroke-width: 2; stroke-linecap: round"/>
   </g>
   <g id="line2d_4">
    <path d="M 201.06 26.28 
L 219.06 26.28 
" clip-path="url(#p9afda0892e)" style="fill: none; stroke: #000000; stroke-width: 2; stroke-linecap: round"/>
   </g>
   <g id="line2d_5">
    <path d="M 78.66 51.48 
L 64.26 51.48 
L 49.86 51.48 
" clip-path="url(#p9afda0892e)" style="fill: none; stroke: #212121; stroke-width: 2; stroke-linecap: round"/>
   </g>
   <g id="line2d_6">
    <path d="M 219.06 26.28 
L 228.06 26.28 
L 237.06 26.28 
" clip-path="url(#p9afda0892e)" style="fill: none; stroke: #546e7a; stroke-width: 2; stroke-linecap: round"/>
   </g>
   <g id="line2d_7">
    <path d="M 237.06 26.28 
L 237.06 40.68 
L 228.06 40.68 
L 246.06 40.68 
M 230.76 45 
L 243.36 45 
M 235.26 49.32 
L 238.86 49.32 
" clip-path="url(#p9afda0892e)" style="fill: none; stroke: #546e7a; stroke-width: 2; stroke-linecap: round"/>
   </g>
   <g id="line2d_8">
    <path d="M 219.06 76.68 
L 228.06 76.68 
L 237.06 76.68 
" clip-path="url(#p9afda0892e)" style="fill: none; stroke: #e65100; stroke-width: 2; stroke-linecap: round"/>
   </g>
   <g id="line2d_9">
    <path d="M 237.06 76.68 
L 300.06 76.68 
L 363.06 76.68 
" clip-path="url(#p9afda0892e)" style="fill: none; stroke: #e65100; stroke-width: 2; stroke-linecap: round"/>
   </g>
   <g id="line2d_10">
    <path d="M 363.06 76.68 
L 927.9 76.68 
L 1492.74 76.68 
" clip-path="url(#p9afda0892e)" style="fill: none; stroke: #e65100; stroke-width: 2; stroke-linecap: round"/>
   </g>
   <g id="line2d_11">
    <path d="M 237.06 76.68 
L 237.06 127.44 
M 246.06 127.44 
L 228.06 127.44 
M 237.06 133.92 
L 237.06 184.68 
" clip-path="url(#p9afda0892e)" style="fill: none; stroke: #e65100; stroke-width: 2; stroke-linecap: round"/>
   </g>
   <g id="line2d_12">
    <path d="M 237.06 184.68 
L 237.06 199.08 
L 228.06 199.08 
L 246.06 199.08 
M 230.76 203.4 
L 243.36 203.4 
M 235.26 207.72 
L 238.86 207.72 
" clip-path="url(#p9afda0892e)" style="fill: none; stroke: #546e7a; stroke-width: 2; stroke-linecap: round"/>
   </g>
   <g id="line2d_13">
    <path d="M 363.06 76.68 
L 363.06 103.68 
L 363.06 130.68 
" clip-path="url(#p9afda0892e)" style="fill: none; stroke: #e65100; stroke-width: 2; stroke-linecap: round"/>
   </g>
   <g id="line2d_14">
    <path d="M 255.06 78.48 
L 255.06 182.88 
L 345.06 182.88 
L 345.06 78.48 
L 255.06 78.48 
" clip-path="url(#p9afda0892e)" style="fill: none; stroke: #000000; stroke-width: 2; stroke-linecap: round"/>
   </g>
   <g id="line2d_15">
    <path d="M 300.06 182.88 
L 300.06 200.88 
" clip-path="url(#p9afda0892e)" style="fill: none; stroke: #000000; stroke-width: 2; stroke-linecap: round"/>
   </g>
   <g id="line2d_16">
    <path d="M 345.06 130.68 
L 363.06 130.68 
" clip-path="url(#p9afda0892e)" style="fill: none; stroke: #000000; stroke-width: 2; stroke-linecap: round"/>
   </g>
   <g id="line2d_17">
    <path d="M 255.06 130.68 
L 237.06 130.68 
" clip-path="url(#p9afda0892e)" style="fill: none; stroke: #000000; stroke-width: 2; stroke-linecap: round"/>
   </g>
   <g id="line2d_18">
    <path d="M 237.06 130.68 
L 237.06 139.68 
L 237.06 148.68 
" clip-path="url(#p9afda0892e)" style="fill: none; stroke: #546e7a; stroke-width: 2; stroke-linecap: round"/>
   </g>
   <g id="line2d_19">
    <path d="M 237.06 148.68 
L 237.06 163.08 
L 228.06 163.08 
L 246.06 163.08 
M 230.76 167.4 
L 243.36 167.4 
M 235.26 171.72 
L 238.86 171.72 
" clip-path="url(#p9afda0892e)" style="fill: none; stroke: #546e7a; stroke-width: 2; stroke-linecap: round"/>
   </g>
   <g id="line2d_20">
    <path d="M 300.06 200.88 
L 310.86 200.88 
L 321.66 200.88 
" clip-path="url(#p9afda0892e)" style="fill: none; stroke: #c62828; stroke-width: 2; stroke-linecap: round"/>
   </g>
   <g id="line2d_21">
    <path d="M 321.66 200.88 
L 357.66 200.88 
L 393.66 200.88 
" clip-path="url(#p9afda0892e)" style="fill: none; stroke: #c62828; stroke-width: 2; stroke-linecap: round"/>
   </g>
   <g id="line2d_22">
    <path d="M 393.66 200.88 
L 438.66 200.88 
L 483.66 200.88 
" clip-path="url(#p9afda0892e)" style="fill: none; stroke: #c62828; stroke-width: 2; stroke-linecap: round"/>
   </g>
   <g id="line2d_23">
    <path d="M 321.66 200.88 
L 321.66 251.64 
M 330.66 251.64 
L 312.66 251.64 
M 321.66 258.12 
L 321.66 308.88 
" clip-path="url(#p9afda0892e)" style="fill: none; stroke: #c62828; stroke-width: 2; stroke-linecap: round"/>
   </g>
   <g id="line2d_24">
    <path d="M 321.66 308.88 
L 321.66 323.28 
L 312.66 323.28 
L 330.66 323.28 
M 315.36 327.6 
L 327.96 327.6 
M 319.86 331.92 
L 323.46 331.92 
" clip-path="url(#p9afda0892e)" style="fill: none; stroke: #546e7a; stroke-width: 2; stroke-linecap: round"/>
   </g>
   <g id="line2d_25">
    <path d="M 393.66 200.88 
L 393.66 251.64 
M 402.66 251.64 
L 384.66 251.64 
M 402.66 258.12 
L 384.66 258.12 
M 393.66 258.12 
L 393.66 308.88 
" clip-path="url(#p9afda0892e)" style="fill: none; stroke: #c62828; stroke-width: 2; stroke-linecap: round"/>
   </g>
   <g id="line2d_26">
    <path d="M 393.66 308.88 
L 393.66 323.28 
L 384.66 323.28 
L 402.66 323.28 
M 387.36 327.6 
L 399.96 327.6 
M 391.86 331.92 
L 395.46 331.92 
" clip-path="url(#p9afda0892e)" style="fill: none; stroke: #546e7a; stroke-width: 2; stroke-linecap: round"/>
   </g>
   <g id="line2d_27">
    <path d="M 501.66 251.28 
L 616.332 251.28 
L 616.332 118.08 
L 501.66 118.08 
L 501.66 251.28 
" clip-path="url(#p9afda0892e)" style="fill: none; stroke: #000000; stroke-width: 2; stroke-linecap: round"/>
   </g>
   <g id="line2d_28">
    <path d="M 501.66 200.88 
L 483.66 200.88 
" clip-path="url(#p9afda0892e)" style="fill: none; stroke: #000000; stroke-width: 2; stroke-linecap: round"/>
   </g>
   <g id="line2d_29">
    <path d="M 501.66 168.48 
L 483.66 168.48 
" clip-path="url(#p9afda0892e)" style="fill: none; stroke: #000000; stroke-width: 2; stroke-linecap: round"/>
   </g>
   <g id="line2d_30">
    <path d="M 616.332 233.28 
L 634.332 233.28 
" clip-path="url(#p9afda0892e)" style="fill: none; stroke: #000000; stroke-width: 2; stroke-linecap: round"/>
   </g>
   <g id="line2d_31">
    <path d="M 616.332 200.88 
L 634.332 200.88 
" clip-path="url(#p9afda0892e)" style="fill: none; stroke: #000000; stroke-width: 2; stroke-linecap: round"/>
   </g>
   <g id="line2d_32">
    <path d="M 616.332 168.48 
L 634.332 168.48 
" clip-path="url(#p9afda0892e)" style="fill: none; stroke: #000000; stroke-width: 2; stroke-linecap: round"/>
   </g>
   <g id="line2d_33">
    <path d="M 616.332 136.08 
L 634.332 136.08 
" clip-path="url(#p9afda0892e)" style="fill: none; stroke: #000000; stroke-width: 2; stroke-linecap: round"/>
   </g>
   <g id="line2d_34">
    <path d="M 483.66 168.48 
L 474.66 168.48 
L 465.66 168.48 
" clip-path="url(#p9afda0892e)" style="fill: none; stroke: #546e7a; stroke-width: 2; stroke-linecap: round"/>
   </g>
   <g id="line2d_35">
    <path d="M 465.66 168.48 
L 465.66 182.88 
L 456.66 182.88 
L 474.66 182.88 
M 459.36 187.2 
L 471.96 187.2 
M 463.86 191.52 
L 467.46 191.52 
" clip-path="url(#p9afda0892e)" style="fill: none; stroke: #546e7a; stroke-width: 2; stroke-linecap: round"/>
   </g>
   <g id="line2d_36">
    <path d="M 634.332 233.28 
L 643.332 233.28 
L 652.332 233.28 
" clip-path="url(#p9afda0892e)" style="fill: none; stroke: #2e7d32; stroke-width: 2; stroke-linecap: round"/>
   </g>
   <g id="line2d_37">
    <path d="M 634.332 200.88 
L 643.332 200.88 
L 652.332 200.88 
" clip-path="url(#p9afda0892e)" style="fill: none; stroke: #2e7d32; stroke-width: 2; stroke-linecap: round"/>
   </g>
   <g id="line2d_38">
    <path d="M 634.332 168.48 
L 643.332 168.48 
L 652.332 168.48 
" clip-path="url(#p9afda0892e)" style="fill: none; stroke: #2e7d32; stroke-width: 2; stroke-linecap: round"/>
   </g>
   <g id="line2d_39">
    <path d="M 634.332 136.08 
L 643.332 136.08 
L 652.332 136.08 
" clip-path="url(#p9afda0892e)" style="fill: none; stroke: #2e7d32; stroke-width: 2; stroke-linecap: round"/>
   </g>
   <g id="line2d_40">
    <path d="M 825.66 206.28 
L 831.06 206.28 
L 836.46 206.28 
" clip-path="url(#p9afda0892e)" style="fill: none; stroke: #2e7d32; stroke-width: 2; stroke-linecap: round"/>
   </g>
   <g id="line2d_41">
    <path d="M 836.46 206.28 
L 872.46 206.28 
L 875.46 197.28 
L 881.46 215.28 
L 887.46 197.28 
L 893.46 215.28 
L 899.46 197.28 
L 905.46 215.28 
L 908.46 206.28 
L 944.46 206.28 
" clip-path="url(#p9afda0892e)" style="fill: none; stroke: #2e7d32; stroke-width: 2; stroke-linecap: round"/>
   </g>
   <g id="line2d_42">
    <path d="M 944.46 206.28 
L 949.86 206.28 
L 955.26 206.28 
" clip-path="url(#p9afda0892e)" style="fill: none; stroke: #2e7d32; stroke-width: 2; stroke-linecap: round"/>
   </g>
   <g id="line2d_43">
    <path d="M 955.26 206.28 
L 955.26 242.28 
L 964.26 245.28 
L 946.26 251.28 
L 964.26 257.28 
L 946.26 263.28 
L 964.26 269.28 
L 946.26 275.28 
L 955.26 278.28 
L 955.26 314.28 
" clip-path="url(#p9afda0892e)" style="fill: none; stroke: #546e7a; stroke-width: 2; stroke-linecap: round"/>
   </g>
   <g id="line2d_44">
    <path d="M 955.26 314.28 
L 955.26 328.68 
L 946.26 328.68 
L 964.26 328.68 
M 948.96 333 
L 961.56 333 
M 953.46 337.32 
L 957.06 337.32 
" clip-path="url(#p9afda0892e)" style="fill: none; stroke: #546e7a; stroke-width: 2; stroke-linecap: round"/>
   </g>
   <g id="line2d_45">
    <path d="M 955.26 206.28 
L 960.66 206.28 
L 966.06 206.28 
" clip-path="url(#p9afda0892e)" style="fill: none; stroke: #2e7d32; stroke-width: 2; stroke-linecap: round"/>
   </g>
   <g id="line2d_46">
    <path d="M 916.86 179.28 
L 916.86 194.28 
L 940.86 194.28 
L 940.86 218.28 
L 916.86 218.28 
L 916.86 233.28 
" clip-path="url(#p9afda0892e)" style="fill: none; stroke: #212121; stroke-width: 2; stroke-linecap: round"/>
   </g>
   <g id="line2d_47">
    <path d="M 946.86 194.28 
L 946.86 218.28 
" clip-path="url(#p9afda0892e)" style="fill: none; stroke: #212121; stroke-width: 2; stroke-linecap: round"/>
   </g>
   <g id="line2d_48">
    <path d="M 946.86 206.28 
L 966.06 206.28 
" clip-path="url(#p9afda0892e)" style="fill: none; stroke: #212121; stroke-width: 2; stroke-linecap: round"/>
   </g>
   <g id="line2d_49">
    <path d="M 916.74 26.28 
L 916.74 102.78 
L 916.74 179.28 
" clip-path="url(#p9afda0892e)" style="fill: none; stroke: #1565c0; stroke-width: 2; stroke-linecap: round"/>
   </g>
   <g id="line2d_50">
    <path d="M 916.74 233.28 
L 916.74 244.08 
L 916.74 254.88 
" clip-path="url(#p9afda0892e)" style="fill: none; stroke: #546e7a; stroke-width: 2; stroke-linecap: round"/>
   </g>
   <g id="line2d_51">
    <path d="M 916.74 254.88 
L 916.74 269.28 
L 907.74 269.28 
L 925.74 269.28 
M 910.44 273.6 
L 923.04 273.6 
M 914.94 277.92 
L 918.54 277.92 
" clip-path="url(#p9afda0892e)" style="fill: none; stroke: #546e7a; stroke-width: 2; stroke-linecap: round"/>
   </g>
   <g id="line2d_52">
    <path d="M 1077.66 206.28 
L 1083.06 206.28 
L 1088.46 206.28 
" clip-path="url(#p9afda0892e)" style="fill: none; stroke: #2e7d32; stroke-width: 2; stroke-linecap: round"/>
   </g>
   <g id="line2d_53">
    <path d="M 1088.46 206.28 
L 1124.46 206.28 
L 1127.46 197.28 
L 1133.46 215.28 
L 1139.46 197.28 
L 1145.46 215.28 
L 1151.46 197.28 
L 1157.46 215.28 
L 1160.46 206.28 
L 1196.46 206.28 
" clip-path="url(#p9afda0892e)" style="fill: none; stroke: #2e7d32; stroke-width: 2; stroke-linecap: round"/>
   </g>
   <g id="line2d_54">
    <path d="M 1196.46 206.28 
L 1201.86 206.28 
L 1207.26 206.28 
" clip-path="url(#p9afda0892e)" style="fill: none; stroke: #2e7d32; stroke-width: 2; stroke-linecap: round"/>
   </g>
   <g id="line2d_55">
    <path d="M 1207.26 206.28 
L 1207.26 242.28 
L 1216.26 245.28 
L 1198.26 251.28 
L 1216.26 257.28 
L 1198.26 263.28 
L 1216.26 269.28 
L 1198.26 275.28 
L 1207.26 278.28 
L 1207.26 314.28 
" clip-path="url(#p9afda0892e)" style="fill: none; stroke: #546e7a; stroke-width: 2; stroke-linecap: round"/>
   </g>
   <g id="line2d_56">
    <path d="M 1207.26 314.28 
L 1207.26 328.68 
L 1198.26 328.68 
L 1216.26 328.68 
M 1200.96 333 
L 1213.56 333 
M 1205.46 337.32 
L 1209.06 337.32 
" clip-path="url(#p9afda0892e)" style="fill: none; stroke: #546e7a; stroke-width: 2; stroke-linecap: round"/>
   </g>
   <g id="line2d_57">
    <path d="M 1207.26 206.28 
L 1212.66 206.28 
L 1218.06 206.28 
" clip-path="url(#p9afda0892e)" style="fill: none; stroke: #2e7d32; stroke-width: 2; stroke-linecap: round"/>
   </g>
   <g id="line2d_58">
    <path d="M 1168.86 179.28 
L 1168.86 194.28 
L 1192.86 194.28 
L 1192.86 218.28 
L 1168.86 218.28 
L 1168.86 233.28 
" clip-path="url(#p9afda0892e)" style="fill: none; stroke: #212121; stroke-width: 2; stroke-linecap: round"/>
   </g>
   <g id="line2d_59">
    <path d="M 1198.86 194.28 
L 1198.86 218.28 
" clip-path="url(#p9afda0892e)" style="fill: none; stroke: #212121; stroke-width: 2; stroke-linecap: round"/>
   </g>
   <g id="line2d_60">
    <path d="M 1198.86 206.28 
L 1218.06 206.28 
" clip-path="url(#p9afda0892e)" style="fill: none; stroke: #212121; stroke-width: 2; stroke-linecap: round"/>
   </g>
   <g id="line2d_61">
    <path d="M 1168.74 26.28 
L 1168.74 102.78 
L 1168.74 179.28 
" clip-path="url(#p9afda0892e)" style="fill: none; stroke: #1565c0; stroke-width: 2; stroke-linecap: round"/>
   </g>
   <g id="line2d_62">
    <path d="M 1168.74 233.28 
L 1168.74 244.08 
L 1168.74 254.88 
" clip-path="url(#p9afda0892e)" style="fill: none; stroke: #546e7a; stroke-width: 2; stroke-linecap: round"/>
   </g>
   <g id="line2d_63">
    <path d="M 1168.74 254.88 
L 1168.74 269.28 
L 1159.74 269.28 
L 1177.74 269.28 
M 1162.44 273.6 
L 1175.04 273.6 
M 1166.94 277.92 
L 1170.54 277.92 
" clip-path="url(#p9afda0892e)" style="fill: none; stroke: #546e7a; stroke-width: 2; stroke-linecap: round"/>
   </g>
   <g id="line2d_64">
    <path d="M 1329.66 206.28 
L 1335.06 206.28 
L 1340.46 206.28 
" clip-path="url(#p9afda0892e)" style="fill: none; stroke: #2e7d32; stroke-width: 2; stroke-linecap: round"/>
   </g>
   <g id="line2d_65">
    <path d="M 1340.46 206.28 
L 1376.46 206.28 
L 1379.46 197.28 
L 1385.46 215.28 
L 1391.46 197.28 
L 1397.46 215.28 
L 1403.46 197.28 
L 1409.46 215.28 
L 1412.46 206.28 
L 1448.46 206.28 
" clip-path="url(#p9afda0892e)" style="fill: none; stroke: #2e7d32; stroke-width: 2; stroke-linecap: round"/>
   </g>
   <g id="line2d_66">
    <path d="M 1448.46 206.28 
L 1453.86 206.28 
L 1459.26 206.28 
" clip-path="url(#p9afda0892e)" style="fill: none; stroke: #2e7d32; stroke-width: 2; stroke-linecap: round"/>
   </g>
   <g id="line2d_67">
    <path d="M 1459.26 206.28 
L 1459.26 242.28 
L 1468.26 245.28 
L 1450.26 251.28 
L 1468.26 257.28 
L 1450.26 263.28 
L 1468.26 269.28 
L 1450.26 275.28 
L 1459.26 278.28 
L 1459.26 314.28 
" clip-path="url(#p9afda0892e)" style="fill: none; stroke: #546e7a; stroke-width: 2; stroke-linecap: round"/>
   </g>
   <g id="line2d_68">
    <path d="M 1459.26 314.28 
L 1459.26 328.68 
L 1450.26 328.68 
L 1468.26 328.68 
M 1452.96 333 
L 1465.56 333 
M 1457.46 337.32 
L 1461.06 337.32 
" clip-path="url(#p9afda0892e)" style="fill: none; stroke: #546e7a; stroke-width: 2; stroke-linecap: round"/>
   </g>
   <g id="line2d_69">
    <path d="M 1459.26 206.28 
L 1464.66 206.28 
L 1470.06 206.28 
" clip-path="url(#p9afda0892e)" style="fill: none; stroke: #2e7d32; stroke-width: 2; stroke-linecap: round"/>
   </g>
   <g id="line2d_70">
    <path d="M 1420.86 179.28 
L 1420.86 194.28 
L 1444.86 194.28 
L 1444.86 218.28 
L 1420.86 218.28 
L 1420.86 233.28 
" clip-path="url(#p9afda0892e)" style="fill: none; stroke: #212121; stroke-width: 2; stroke-linecap: round"/>
   </g>
   <g id="line2d_71">
    <path d="M 1450.86 194.28 
L 1450.86 218.28 
" clip-path="url(#p9afda0892e)" style="fill: none; stroke: #212121; stroke-width: 2; stroke-linecap: round"/>
   </g>
   <g id="line2d_72">
    <path d="M 1450.86 206.28 
L 1470.06 206.28 
" clip-path="url(#p9afda0892e)" style="fill: none; stroke: #212121; stroke-width: 2; stroke-linecap: round"/>
   </g>
   <g id="line2d_73">
    <path d="M 1420.74 26.28 
L 1420.74 102.78 
L 1420.74 179.28 
" clip-path="url(#p9afda0892e)" style="fill: none; stroke: #1565c0; stroke-width: 2; stroke-linecap: round"/>
   </g>
   <g id="line2d_74">
    <path d="M 1420.74 233.28 
L 1420.74 244.08 
L 1420.74 254.88 
" clip-path="url(#p9afda0892e)" style="fill: none; stroke: #546e7a; stroke-width: 2; stroke-linecap: round"/>
   </g>
   <g id="line2d_75">
    <path d="M 1420.74 254.88 
L 1420.74 269.28 
L 1411.74 269.28 
L 1429.74 269.28 
M 1414.44 273.6 
L 1427.04 273.6 
M 1418.94 277.92 
L 1422.54 277.92 
" clip-path="url(#p9afda0892e)" style="fill: none; stroke: #546e7a; stroke-width: 2; stroke-linecap: round"/>
   </g>
   <g id="text_1">
    <!-- A -->
    <g transform="translate(86.435312 46.492344) scale(0.11 -0.11)">
     <defs>
      <path id="DejaVuSans-41" d="M 2188 4044 
L 1331 1722 
L 3047 1722 
L 2188 4044 
z
M 1831 4666 
L 2547 4666 
L 4325 0 
L 3669 0 
L 3244 1197 
L 1141 1197 
L 716 0 
L 50 0 
L 1831 4666 
z
" transform="scale(0.015625)"/>
     </defs>
     <use xlink:href="#DejaVuSans-41"/>
    </g>
   </g>
   <g id="text_2">
    <!-- USB -->
    <g transform="translate(102.06 55.343125) scale(0.14 -0.14)">
     <defs>
      <path id="DejaVuSans-55" d="M 556 4666 
L 1191 4666 
L 1191 1831 
Q 1191 1081 1462 751 
Q 1734 422 2344 422 
Q 2950 422 3222 751 
Q 3494 1081 3494 1831 
L 3494 4666 
L 4128 4666 
L 4128 1753 
Q 4128 841 3676 375 
Q 3225 -91 2344 -91 
Q 1459 -91 1007 375 
Q 556 841 556 1753 
L 556 4666 
z
" transform="scale(0.015625)"/>
      <path id="DejaVuSans-53" d="M 3425 4513 
L 3425 3897 
Q 3066 4069 2747 4153 
Q 2428 4238 2131 4238 
Q 1616 4238 1336 4038 
Q 1056 3838 1056 3469 
Q 1056 3159 1242 3001 
Q 1428 2844 1947 2747 
L 2328 2669 
Q 3034 2534 3370 2195 
Q 3706 1856 3706 1288 
Q 3706 609 3251 259 
Q 2797 -91 1919 -91 
Q 1588 -91 1214 -16 
Q 841 59 441 206 
L 441 856 
Q 825 641 1194 531 
Q 1563 422 1919 422 
Q 2459 422 2753 634 
Q 3047 847 3047 1241 
Q 3047 1584 2836 1778 
Q 2625 1972 2144 2069 
L 1759 2144 
Q 1053 2284 737 2584 
Q 422 2884 422 3419 
Q 422 4038 858 4394 
Q 1294 4750 2059 4750 
Q 2388 4750 2728 4690 
Q 3069 4631 3425 4513 
z
" transform="scale(0.015625)"/>
      <path id="DejaVuSans-42" d="M 1259 2228 
L 1259 519 
L 2272 519 
Q 2781 519 3026 730 
Q 3272 941 3272 1375 
Q 3272 1813 3026 2020 
Q 2781 2228 2272 2228 
L 1259 2228 
z
M 1259 4147 
L 1259 2741 
L 2194 2741 
Q 2656 2741 2882 2914 
Q 3109 3088 3109 3444 
Q 3109 3797 2882 3972 
Q 2656 4147 2194 4147 
L 1259 4147 
z
M 628 4666 
L 2241 4666 
Q 2963 4666 3353 4366 
Q 3744 4066 3744 3513 
Q 3744 3084 3544 2831 
Q 3344 2578 2956 2516 
Q 3422 2416 3680 2098 
Q 3938 1781 3938 1306 
Q 3938 681 3513 340 
Q 3088 0 2303 0 
L 628 0 
L 628 4666 
z
" transform="scale(0.015625)"/>
     </defs>
     <use xlink:href="#DejaVuSans-55"/>
     <use xlink:href="#DejaVuSans-53" transform="translate(73.193359 0)"/>
     <use xlink:href="#DejaVuSans-42" transform="translate(136.669922 0)"/>
    </g>
   </g>
   <g id="text_3">
    <!-- 1 -->
    <g transform="translate(203.76 71.692344) scale(0.11 -0.11)">
     <defs>
      <path id="DejaVuSans-31" d="M 794 531 
L 1825 531 
L 1825 4091 
L 703 3866 
L 703 4441 
L 1819 4666 
L 2450 4666 
L 2450 531 
L 3481 531 
L 3481 0 
L 794 0 
L 794 531 
z
" transform="scale(0.015625)"/>
     </defs>
     <use xlink:href="#DejaVuSans-31"/>
    </g>
   </g>
   <g id="text_4">
    <!-- VOUT -->
    <g transform="translate(156.510312 80.543125) scale(0.14 -0.14)">
     <defs>
      <path id="DejaVuSans-56" d="M 1831 0 
L 50 4666 
L 709 4666 
L 2188 738 
L 3669 4666 
L 4325 4666 
L 2547 0 
L 1831 0 
z
" transform="scale(0.015625)"/>
      <path id="DejaVuSans-4f" d="M 2522 4238 
Q 1834 4238 1429 3725 
Q 1025 3213 1025 2328 
Q 1025 1447 1429 934 
Q 1834 422 2522 422 
Q 3209 422 3611 934 
Q 4013 1447 4013 2328 
Q 4013 3213 3611 3725 
Q 3209 4238 2522 4238 
z
M 2522 4750 
Q 3503 4750 4090 4092 
Q 4678 3434 4678 2328 
Q 4678 1225 4090 567 
Q 3503 -91 2522 -91 
Q 1538 -91 948 565 
Q 359 1222 359 2328 
Q 359 3434 948 4092 
Q 1538 4750 2522 4750 
z
" transform="scale(0.015625)"/>
      <path id="DejaVuSans-54" d="M -19 4666 
L 3928 4666 
L 3928 4134 
L 2272 4134 
L 2272 0 
L 1638 0 
L 1638 4134 
L -19 4134 
L -19 4666 
z
" transform="scale(0.015625)"/>
     </defs>
     <use xlink:href="#DejaVuSans-56"/>
     <use xlink:href="#DejaVuSans-4f" transform="translate(66.658203 0)"/>
     <use xlink:href="#DejaVuSans-55" transform="translate(145.369141 0)"/>
     <use xlink:href="#DejaVuSans-54" transform="translate(218.5625 0)"/>
    </g>
   </g>
   <g id="text_5">
    <!-- 2 -->
    <g transform="translate(203.76 21.292344) scale(0.11 -0.11)">
     <defs>
      <path id="DejaVuSans-32" d="M 1228 531 
L 3431 531 
L 3431 0 
L 469 0 
L 469 531 
Q 828 903 1448 1529 
Q 2069 2156 2228 2338 
Q 2531 2678 2651 2914 
Q 2772 3150 2772 3378 
Q 2772 3750 2511 3984 
Q 2250 4219 1831 4219 
Q 1534 4219 1204 4116 
Q 875 4013 500 3803 
L 500 4441 
Q 881 4594 1212 4672 
Q 1544 4750 1819 4750 
Q 2544 4750 2975 4387 
Q 3406 4025 3406 3419 
Q 3406 3131 3298 2873 
Q 3191 2616 2906 2266 
Q 2828 2175 2409 1742 
Q 1991 1309 1228 531 
z
" transform="scale(0.015625)"/>
     </defs>
     <use xlink:href="#DejaVuSans-32"/>
    </g>
   </g>
   <g id="text_6">
    <!-- GND -->
    <g transform="translate(163.558437 30.143125) scale(0.14 -0.14)">
     <defs>
      <path id="DejaVuSans-47" d="M 3809 666 
L 3809 1919 
L 2778 1919 
L 2778 2438 
L 4434 2438 
L 4434 434 
Q 4069 175 3628 42 
Q 3188 -91 2688 -91 
Q 1594 -91 976 548 
Q 359 1188 359 2328 
Q 359 3472 976 4111 
Q 1594 4750 2688 4750 
Q 3144 4750 3555 4637 
Q 3966 4525 4313 4306 
L 4313 3634 
Q 3963 3931 3569 4081 
Q 3175 4231 2741 4231 
Q 1884 4231 1454 3753 
Q 1025 3275 1025 2328 
Q 1025 1384 1454 906 
Q 1884 428 2741 428 
Q 3075 428 3337 486 
Q 3600 544 3809 666 
z
" transform="scale(0.015625)"/>
      <path id="DejaVuSans-4e" d="M 628 4666 
L 1478 4666 
L 3547 763 
L 3547 4666 
L 4159 4666 
L 4159 0 
L 3309 0 
L 1241 3903 
L 1241 0 
L 628 0 
L 628 4666 
z
" transform="scale(0.015625)"/>
      <path id="DejaVuSans-44" d="M 1259 4147 
L 1259 519 
L 2022 519 
Q 2988 519 3436 956 
Q 3884 1394 3884 2338 
Q 3884 3275 3436 3711 
Q 2988 4147 2022 4147 
L 1259 4147 
z
M 628 4666 
L 1925 4666 
Q 3281 4666 3915 4102 
Q 4550 3538 4550 2338 
Q 4550 1131 3912 565 
Q 3275 0 1925 0 
L 628 0 
L 628 4666 
z
" transform="scale(0.015625)"/>
     </defs>
     <use xlink:href="#DejaVuSans-47"/>
     <use xlink:href="#DejaVuSans-4e" transform="translate(77.490234 0)"/>
     <use xlink:href="#DejaVuSans-44" transform="translate(152.294922 0)"/>
    </g>
   </g>
   <g id="text_7">
    <!-- U1 -->
    <g transform="translate(146.303437 41.653125) scale(0.09 -0.09)">
     <use xlink:href="#DejaVuSans-55"/>
     <use xlink:href="#DejaVuSans-31" transform="translate(73.193359 0)"/>
    </g>
    <!-- Hailege H-1-1765 -->
    <g transform="translate(113.046328 50.363437) scale(0.09 -0.09)">
     <defs>
      <path id="DejaVuSans-48" d="M 628 4666 
L 1259 4666 
L 1259 2753 
L 3553 2753 
L 3553 4666 
L 4184 4666 
L 4184 0 
L 3553 0 
L 3553 2222 
L 1259 2222 
L 1259 0 
L 628 0 
L 628 4666 
z
" transform="scale(0.015625)"/>
      <path id="DejaVuSans-61" d="M 2194 1759 
Q 1497 1759 1228 1600 
Q 959 1441 959 1056 
Q 959 750 1161 570 
Q 1363 391 1709 391 
Q 2188 391 2477 730 
Q 2766 1069 2766 1631 
L 2766 1759 
L 2194 1759 
z
M 3341 1997 
L 3341 0 
L 2766 0 
L 2766 531 
Q 2569 213 2275 61 
Q 1981 -91 1556 -91 
Q 1019 -91 701 211 
Q 384 513 384 1019 
Q 384 1609 779 1909 
Q 1175 2209 1959 2209 
L 2766 2209 
L 2766 2266 
Q 2766 2663 2505 2880 
Q 2244 3097 1772 3097 
Q 1472 3097 1187 3025 
Q 903 2953 641 2809 
L 641 3341 
Q 956 3463 1253 3523 
Q 1550 3584 1831 3584 
Q 2591 3584 2966 3190 
Q 3341 2797 3341 1997 
z
" transform="scale(0.015625)"/>
      <path id="DejaVuSans-69" d="M 603 3500 
L 1178 3500 
L 1178 0 
L 603 0 
L 603 3500 
z
M 603 4863 
L 1178 4863 
L 1178 4134 
L 603 4134 
L 603 4863 
z
" transform="scale(0.015625)"/>
      <path id="DejaVuSans-6c" d="M 603 4863 
L 1178 4863 
L 1178 0 
L 603 0 
L 603 4863 
z
" transform="scale(0.015625)"/>
      <path id="DejaVuSans-65" d="M 3597 1894 
L 3597 1613 
L 953 1613 
Q 991 1019 1311 708 
Q 1631 397 2203 397 
Q 2534 397 2845 478 
Q 3156 559 3463 722 
L 3463 178 
Q 3153 47 2828 -22 
Q 2503 -91 2169 -91 
Q 1331 -91 842 396 
Q 353 884 353 1716 
Q 353 2575 817 3079 
Q 1281 3584 2069 3584 
Q 2775 3584 3186 3129 
Q 3597 2675 3597 1894 
z
M 3022 2063 
Q 3016 2534 2758 2815 
Q 2500 3097 2075 3097 
Q 1594 3097 1305 2825 
Q 1016 2553 972 2059 
L 3022 2063 
z
" transform="scale(0.015625)"/>
      <path id="DejaVuSans-67" d="M 2906 1791 
Q 2906 2416 2648 2759 
Q 2391 3103 1925 3103 
Q 1463 3103 1205 2759 
Q 947 2416 947 1791 
Q 947 1169 1205 825 
Q 1463 481 1925 481 
Q 2391 481 2648 825 
Q 2906 1169 2906 1791 
z
M 3481 434 
Q 3481 -459 3084 -895 
Q 2688 -1331 1869 -1331 
Q 1566 -1331 1297 -1286 
Q 1028 -1241 775 -1147 
L 775 -588 
Q 1028 -725 1275 -790 
Q 1522 -856 1778 -856 
Q 2344 -856 2625 -561 
Q 2906 -266 2906 331 
L 2906 616 
Q 2728 306 2450 153 
Q 2172 0 1784 0 
Q 1141 0 747 490 
Q 353 981 353 1791 
Q 353 2603 747 3093 
Q 1141 3584 1784 3584 
Q 2172 3584 2450 3431 
Q 2728 3278 2906 2969 
L 2906 3500 
L 3481 3500 
L 3481 434 
z
" transform="scale(0.015625)"/>
      <path id="DejaVuSans-20" transform="scale(0.015625)"/>
      <path id="DejaVuSans-2d" d="M 313 2009 
L 1997 2009 
L 1997 1497 
L 313 1497 
L 313 2009 
z
" transform="scale(0.015625)"/>
      <path id="DejaVuSans-37" d="M 525 4666 
L 3525 4666 
L 3525 4397 
L 1831 0 
L 1172 0 
L 2766 4134 
L 525 4134 
L 525 4666 
z
" transform="scale(0.015625)"/>
      <path id="DejaVuSans-36" d="M 2113 2584 
Q 1688 2584 1439 2293 
Q 1191 2003 1191 1497 
Q 1191 994 1439 701 
Q 1688 409 2113 409 
Q 2538 409 2786 701 
Q 3034 994 3034 1497 
Q 3034 2003 2786 2293 
Q 2538 2584 2113 2584 
z
M 3366 4563 
L 3366 3988 
Q 3128 4100 2886 4159 
Q 2644 4219 2406 4219 
Q 1781 4219 1451 3797 
Q 1122 3375 1075 2522 
Q 1259 2794 1537 2939 
Q 1816 3084 2150 3084 
Q 2853 3084 3261 2657 
Q 3669 2231 3669 1497 
Q 3669 778 3244 343 
Q 2819 -91 2113 -91 
Q 1303 -91 875 529 
Q 447 1150 447 2328 
Q 447 3434 972 4092 
Q 1497 4750 2381 4750 
Q 2619 4750 2861 4703 
Q 3103 4656 3366 4563 
z
" transform="scale(0.015625)"/>
      <path id="DejaVuSans-35" d="M 691 4666 
L 3169 4666 
L 3169 4134 
L 1269 4134 
L 1269 2991 
Q 1406 3038 1543 3061 
Q 1681 3084 1819 3084 
Q 2600 3084 3056 2656 
Q 3513 2228 3513 1497 
Q 3513 744 3044 326 
Q 2575 -91 1722 -91 
Q 1428 -91 1123 -41 
Q 819 9 494 109 
L 494 744 
Q 775 591 1075 516 
Q 1375 441 1709 441 
Q 2250 441 2565 725 
Q 2881 1009 2881 1497 
Q 2881 1984 2565 2268 
Q 2250 2553 1709 2553 
Q 1456 2553 1204 2497 
Q 953 2441 691 2322 
L 691 4666 
z
" transform="scale(0.015625)"/>
     </defs>
     <use xlink:href="#DejaVuSans-48"/>
     <use xlink:href="#DejaVuSans-61" transform="translate(75.195312 0)"/>
     <use xlink:href="#DejaVuSans-69" transform="translate(136.474609 0)"/>
     <use xlink:href="#DejaVuSans-6c" transform="translate(164.257812 0)"/>
     <use xlink:href="#DejaVuSans-65" transform="translate(192.041016 0)"/>
     <use xlink:href="#DejaVuSans-67" transform="translate(253.564453 0)"/>
     <use xlink:href="#DejaVuSans-65" transform="translate(317.041016 0)"/>
     <use xlink:href="#DejaVuSans-20" transform="translate(378.564453 0)"/>
     <use xlink:href="#DejaVuSans-48" transform="translate(410.351562 0)"/>
     <use xlink:href="#DejaVuSans-2d" transform="translate(485.546875 0)"/>
     <use xlink:href="#DejaVuSans-31" transform="translate(521.630859 0)"/>
     <use xlink:href="#DejaVuSans-2d" transform="translate(585.253906 0)"/>
     <use xlink:href="#DejaVuSans-31" transform="translate(621.337891 0)"/>
     <use xlink:href="#DejaVuSans-37" transform="translate(684.960938 0)"/>
     <use xlink:href="#DejaVuSans-36" transform="translate(748.583984 0)"/>
     <use xlink:href="#DejaVuSans-35" transform="translate(812.207031 0)"/>
    </g>
    <!-- (USB-C PD → 12 V) -->
    <g transform="translate(110.470781 59.07375) scale(0.09 -0.09)">
     <defs>
      <path id="DejaVuSans-28" d="M 1984 4856 
Q 1566 4138 1362 3434 
Q 1159 2731 1159 2009 
Q 1159 1288 1364 580 
Q 1569 -128 1984 -844 
L 1484 -844 
Q 1016 -109 783 600 
Q 550 1309 550 2009 
Q 550 2706 781 3412 
Q 1013 4119 1484 4856 
L 1984 4856 
z
" transform="scale(0.015625)"/>
      <path id="DejaVuSans-43" d="M 4122 4306 
L 4122 3641 
Q 3803 3938 3442 4084 
Q 3081 4231 2675 4231 
Q 1875 4231 1450 3742 
Q 1025 3253 1025 2328 
Q 1025 1406 1450 917 
Q 1875 428 2675 428 
Q 3081 428 3442 575 
Q 3803 722 4122 1019 
L 4122 359 
Q 3791 134 3420 21 
Q 3050 -91 2638 -91 
Q 1578 -91 968 557 
Q 359 1206 359 2328 
Q 359 3453 968 4101 
Q 1578 4750 2638 4750 
Q 3056 4750 3426 4639 
Q 3797 4528 4122 4306 
z
" transform="scale(0.015625)"/>
      <path id="DejaVuSans-50" d="M 1259 4147 
L 1259 2394 
L 2053 2394 
Q 2494 2394 2734 2622 
Q 2975 2850 2975 3272 
Q 2975 3691 2734 3919 
Q 2494 4147 2053 4147 
L 1259 4147 
z
M 628 4666 
L 2053 4666 
Q 2838 4666 3239 4311 
Q 3641 3956 3641 3272 
Q 3641 2581 3239 2228 
Q 2838 1875 2053 1875 
L 1259 1875 
L 1259 0 
L 628 0 
L 628 4666 
z
" transform="scale(0.015625)"/>
      <path id="DejaVuSans-2192" d="M 5050 2147 
L 5050 1866 
L 3822 638 
L 3447 1013 
L 4175 1741 
L 366 1741 
L 366 2272 
L 4175 2272 
L 3447 3000 
L 3822 3375 
L 5050 2147 
z
" transform="scale(0.015625)"/>
      <path id="DejaVuSans-29" d="M 513 4856 
L 1013 4856 
Q 1481 4119 1714 3412 
Q 1947 2706 1947 2009 
Q 1947 1309 1714 600 
Q 1481 -109 1013 -844 
L 513 -844 
Q 928 -128 1133 580 
Q 1338 1288 1338 2009 
Q 1338 2731 1133 3434 
Q 928 4138 513 4856 
z
" transform="scale(0.015625)"/>
     </defs>
     <use xlink:href="#DejaVuSans-28"/>
     <use xlink:href="#DejaVuSans-55" transform="translate(39.013672 0)"/>
     <use xlink:href="#DejaVuSans-53" transform="translate(112.207031 0)"/>
     <use xlink:href="#DejaVuSans-42" transform="translate(175.683594 0)"/>
     <use xlink:href="#DejaVuSans-2d" transform="translate(244.287109 0)"/>
     <use xlink:href="#DejaVuSans-43" transform="translate(280.371094 0)"/>
     <use xlink:href="#DejaVuSans-20" transform="translate(350.195312 0)"/>
     <use xlink:href="#DejaVuSans-50" transform="translate(381.982422 0)"/>
     <use xlink:href="#DejaVuSans-44" transform="translate(442.285156 0)"/>
     <use xlink:href="#DejaVuSans-20" transform="translate(519.287109 0)"/>
     <use xlink:href="#DejaVuSans-2192" transform="translate(551.074219 0)"/>
     <use xlink:href="#DejaVuSans-20" transform="translate(634.863281 0)"/>
     <use xlink:href="#DejaVuSans-31" transform="translate(666.650391 0)"/>
     <use xlink:href="#DejaVuSans-32" transform="translate(730.273438 0)"/>
     <use xlink:href="#DejaVuSans-20" transform="translate(793.896484 0)"/>
     <use xlink:href="#DejaVuSans-56" transform="translate(825.683594 0)"/>
     <use xlink:href="#DejaVuSans-29" transform="translate(894.091797 0)"/>
    </g>
   </g>
   <g id="text_8">
    <!-- USB-C -->
    <g transform="translate(18.253125 53.208281) scale(0.09 -0.09)">
     <use xlink:href="#DejaVuSans-55"/>
     <use xlink:href="#DejaVuSans-53" transform="translate(73.193359 0)"/>
     <use xlink:href="#DejaVuSans-42" transform="translate(136.669922 0)"/>
     <use xlink:href="#DejaVuSans-2d" transform="translate(205.273438 0)"/>
     <use xlink:href="#DejaVuSans-43" transform="translate(241.357422 0)"/>
    </g>
    <!-- 5–20 V PD -->
    <g transform="translate(0.347344 61.918594) scale(0.09 -0.09)">
     <defs>
      <path id="DejaVuSans-2013" d="M 313 1978 
L 2888 1978 
L 2888 1528 
L 313 1528 
L 313 1978 
z
" transform="scale(0.015625)"/>
      <path id="DejaVuSans-30" d="M 2034 4250 
Q 1547 4250 1301 3770 
Q 1056 3291 1056 2328 
Q 1056 1369 1301 889 
Q 1547 409 2034 409 
Q 2525 409 2770 889 
Q 3016 1369 3016 2328 
Q 3016 3291 2770 3770 
Q 2525 4250 2034 4250 
z
M 2034 4750 
Q 2819 4750 3233 4129 
Q 3647 3509 3647 2328 
Q 3647 1150 3233 529 
Q 2819 -91 2034 -91 
Q 1250 -91 836 529 
Q 422 1150 422 2328 
Q 422 3509 836 4129 
Q 1250 4750 2034 4750 
z
" transform="scale(0.015625)"/>
     </defs>
     <use xlink:href="#DejaVuSans-35"/>
     <use xlink:href="#DejaVuSans-2013" transform="translate(63.623047 0)"/>
     <use xlink:href="#DejaVuSans-32" transform="translate(113.623047 0)"/>
     <use xlink:href="#DejaVuSans-30" transform="translate(177.246094 0)"/>
     <use xlink:href="#DejaVuSans-20" transform="translate(240.869141 0)"/>
     <use xlink:href="#DejaVuSans-56" transform="translate(272.65625 0)"/>
     <use xlink:href="#DejaVuSans-20" transform="translate(341.064453 0)"/>
     <use xlink:href="#DejaVuSans-50" transform="translate(372.851562 0)"/>
     <use xlink:href="#DejaVuSans-44" transform="translate(433.154297 0)"/>
    </g>
   </g>
   <g id="text_9">
    <!-- 12 V -->
    <g style="fill: #e65100" transform="translate(1496.34 75.563437) scale(0.09 -0.09)">
     <use xlink:href="#DejaVuSans-31"/>
     <use xlink:href="#DejaVuSans-32" transform="translate(63.623047 0)"/>
     <use xlink:href="#DejaVuSans-20" transform="translate(127.246094 0)"/>
     <use xlink:href="#DejaVuSans-56" transform="translate(159.033203 0)"/>
    </g>
   </g>
   <g id="text_10">
    <!-- C1 -->
    <g style="fill: #e65100" transform="translate(231.054609 53.787656) scale(0.09 -0.09)">
     <use xlink:href="#DejaVuSans-43"/>
     <use xlink:href="#DejaVuSans-31" transform="translate(69.824219 0)"/>
    </g>
    <!-- 1000 µF -->
    <g style="fill: #e65100" transform="translate(218.726016 62.497969) scale(0.09 -0.09)">
     <defs>
      <path id="DejaVuSans-b5" d="M 544 -1331 
L 544 3500 
L 1119 3500 
L 1119 1325 
Q 1119 872 1334 640 
Q 1550 409 1972 409 
Q 2434 409 2667 671 
Q 2900 934 2900 1459 
L 2900 3500 
L 3475 3500 
L 3475 806 
Q 3475 619 3529 530 
Q 3584 441 3700 441 
Q 3728 441 3778 458 
Q 3828 475 3916 513 
L 3916 50 
Q 3788 -22 3673 -56 
Q 3559 -91 3450 -91 
Q 3234 -91 3106 31 
Q 2978 153 2931 403 
Q 2775 156 2548 32 
Q 2322 -91 2016 -91 
Q 1697 -91 1473 31 
Q 1250 153 1119 397 
L 1119 -1331 
L 544 -1331 
z
" transform="scale(0.015625)"/>
      <path id="DejaVuSans-46" d="M 628 4666 
L 3309 4666 
L 3309 4134 
L 1259 4134 
L 1259 2759 
L 3109 2759 
L 3109 2228 
L 1259 2228 
L 1259 0 
L 628 0 
L 628 4666 
z
" transform="scale(0.015625)"/>
     </defs>
     <use xlink:href="#DejaVuSans-31"/>
     <use xlink:href="#DejaVuSans-30" transform="translate(63.623047 0)"/>
     <use xlink:href="#DejaVuSans-30" transform="translate(127.246094 0)"/>
     <use xlink:href="#DejaVuSans-30" transform="translate(190.869141 0)"/>
     <use xlink:href="#DejaVuSans-20" transform="translate(254.492188 0)"/>
     <use xlink:href="#DejaVuSans-b5" transform="translate(286.279297 0)"/>
     <use xlink:href="#DejaVuSans-46" transform="translate(349.902344 0)"/>
    </g>
    <!-- 25 V -->
    <g style="fill: #e65100" transform="translate(226.825312 71.208281) scale(0.09 -0.09)">
     <use xlink:href="#DejaVuSans-32"/>
     <use xlink:href="#DejaVuSans-35" transform="translate(63.623047 0)"/>
     <use xlink:href="#DejaVuSans-20" transform="translate(127.246094 0)"/>
     <use xlink:href="#DejaVuSans-56" transform="translate(159.033203 0)"/>
    </g>
   </g>
   <g id="text_11">
    <!-- 2 -->
    <g transform="translate(302.76 183.292344) scale(0.11 -0.11)">
     <use xlink:href="#DejaVuSans-32"/>
    </g>
   </g>
   <g id="text_12">
    <!-- VOUT -->
    <g transform="translate(260.910312 181.343125) scale(0.14 -0.14)">
     <use xlink:href="#DejaVuSans-56"/>
     <use xlink:href="#DejaVuSans-4f" transform="translate(66.658203 0)"/>
     <use xlink:href="#DejaVuSans-55" transform="translate(145.369141 0)"/>
     <use xlink:href="#DejaVuSans-54" transform="translate(218.5625 0)"/>
    </g>
   </g>
   <g id="text_13">
    <!-- 1 -->
    <g transform="translate(347.76 131.092344) scale(0.11 -0.11)">
     <use xlink:href="#DejaVuSans-31"/>
    </g>
   </g>
   <g id="text_14">
    <!-- VIN -->
    <g transform="translate(327.569687 141.317813) scale(0.14 -0.14)">
     <defs>
      <path id="DejaVuSans-49" d="M 628 4666 
L 1259 4666 
L 1259 0 
L 628 0 
L 628 4666 
z
" transform="scale(0.015625)"/>
     </defs>
     <use xlink:href="#DejaVuSans-56"/>
     <use xlink:href="#DejaVuSans-49" transform="translate(68.408203 0)"/>
     <use xlink:href="#DejaVuSans-4e" transform="translate(97.900391 0)"/>
    </g>
   </g>
   <g id="text_15">
    <!-- 3 -->
    <g transform="translate(252.36 141.738281) scale(0.11 -0.11)">
     <defs>
      <path id="DejaVuSans-33" d="M 2597 2516 
Q 3050 2419 3304 2112 
Q 3559 1806 3559 1356 
Q 3559 666 3084 287 
Q 2609 -91 1734 -91 
Q 1441 -91 1130 -33 
Q 819 25 488 141 
L 488 750 
Q 750 597 1062 519 
Q 1375 441 1716 441 
Q 2309 441 2620 675 
Q 2931 909 2931 1356 
Q 2931 1769 2642 2001 
Q 2353 2234 1838 2234 
L 1294 2234 
L 1294 2753 
L 1863 2753 
Q 2328 2753 2575 2939 
Q 2822 3125 2822 3475 
Q 2822 3834 2567 4026 
Q 2313 4219 1838 4219 
Q 1578 4219 1281 4162 
Q 984 4106 628 3988 
L 628 4550 
Q 988 4650 1302 4700 
Q 1616 4750 1894 4750 
Q 2613 4750 3031 4423 
Q 3450 4097 3450 3541 
Q 3450 3153 3228 2886 
Q 3006 2619 2597 2516 
z
" transform="scale(0.015625)"/>
     </defs>
     <use xlink:href="#DejaVuSans-33"/>
    </g>
   </g>
   <g id="text_16">
    <!-- GND -->
    <g transform="translate(244.409219 127.768438) scale(0.14 -0.14)">
     <use xlink:href="#DejaVuSans-47"/>
     <use xlink:href="#DejaVuSans-4e" transform="translate(77.490234 0)"/>
     <use xlink:href="#DejaVuSans-44" transform="translate(152.294922 0)"/>
    </g>
   </g>
   <g id="text_17">
    <!-- U2 -->
    <g transform="translate(297.503437 128.053125) scale(0.09 -0.09)">
     <use xlink:href="#DejaVuSans-55"/>
     <use xlink:href="#DejaVuSans-32" transform="translate(73.193359 0)"/>
    </g>
    <!-- LM2596S -->
    <g transform="translate(282.960703 136.763437) scale(0.09 -0.09)">
     <defs>
      <path id="DejaVuSans-4c" d="M 628 4666 
L 1259 4666 
L 1259 531 
L 3531 531 
L 3531 0 
L 628 0 
L 628 4666 
z
" transform="scale(0.015625)"/>
      <path id="DejaVuSans-4d" d="M 628 4666 
L 1569 4666 
L 2759 1491 
L 3956 4666 
L 4897 4666 
L 4897 0 
L 4281 0 
L 4281 4097 
L 3078 897 
L 2444 897 
L 1241 4097 
L 1241 0 
L 628 0 
L 628 4666 
z
" transform="scale(0.015625)"/>
      <path id="DejaVuSans-39" d="M 703 97 
L 703 672 
Q 941 559 1184 500 
Q 1428 441 1663 441 
Q 2288 441 2617 861 
Q 2947 1281 2994 2138 
Q 2813 1869 2534 1725 
Q 2256 1581 1919 1581 
Q 1219 1581 811 2004 
Q 403 2428 403 3163 
Q 403 3881 828 4315 
Q 1253 4750 1959 4750 
Q 2769 4750 3195 4129 
Q 3622 3509 3622 2328 
Q 3622 1225 3098 567 
Q 2575 -91 1691 -91 
Q 1453 -91 1209 -44 
Q 966 3 703 97 
z
M 1959 2075 
Q 2384 2075 2632 2365 
Q 2881 2656 2881 3163 
Q 2881 3666 2632 3958 
Q 2384 4250 1959 4250 
Q 1534 4250 1286 3958 
Q 1038 3666 1038 3163 
Q 1038 2656 1286 2365 
Q 1534 2075 1959 2075 
z
" transform="scale(0.015625)"/>
     </defs>
     <use xlink:href="#DejaVuSans-4c"/>
     <use xlink:href="#DejaVuSans-4d" transform="translate(55.712891 0)"/>
     <use xlink:href="#DejaVuSans-32" transform="translate(141.992188 0)"/>
     <use xlink:href="#DejaVuSans-35" transform="translate(205.615234 0)"/>
     <use xlink:href="#DejaVuSans-39" transform="translate(269.238281 0)"/>
     <use xlink:href="#DejaVuSans-36" transform="translate(332.861328 0)"/>
     <use xlink:href="#DejaVuSans-53" transform="translate(396.484375 0)"/>
    </g>
    <!-- 12 V → 3.3 V -->
    <g transform="translate(275.129297 145.47375) scale(0.09 -0.09)">
     <defs>
      <path id="DejaVuSans-2e" d="M 684 794 
L 1344 794 
L 1344 0 
L 684 0 
L 684 794 
z
" transform="scale(0.015625)"/>
     </defs>
     <use xlink:href="#DejaVuSans-31"/>
     <use xlink:href="#DejaVuSans-32" transform="translate(63.623047 0)"/>
     <use xlink:href="#DejaVuSans-20" transform="translate(127.246094 0)"/>
     <use xlink:href="#DejaVuSans-56" transform="translate(159.033203 0)"/>
     <use xlink:href="#DejaVuSans-20" transform="translate(227.441406 0)"/>
     <use xlink:href="#DejaVuSans-2192" transform="translate(259.228516 0)"/>
     <use xlink:href="#DejaVuSans-20" transform="translate(343.017578 0)"/>
     <use xlink:href="#DejaVuSans-33" transform="translate(374.804688 0)"/>
     <use xlink:href="#DejaVuSans-2e" transform="translate(438.427734 0)"/>
     <use xlink:href="#DejaVuSans-33" transform="translate(470.214844 0)"/>
     <use xlink:href="#DejaVuSans-20" transform="translate(533.837891 0)"/>
     <use xlink:href="#DejaVuSans-56" transform="translate(565.625 0)"/>
    </g>
   </g>
   <g id="text_18">
    <!-- C2 -->
    <g style="fill: #c62828" transform="translate(315.654609 177.987656) scale(0.09 -0.09)">
     <use xlink:href="#DejaVuSans-43"/>
     <use xlink:href="#DejaVuSans-32" transform="translate(69.824219 0)"/>
    </g>
    <!-- 100 µF -->
    <g style="fill: #c62828" transform="translate(306.189141 186.697969) scale(0.09 -0.09)">
     <use xlink:href="#DejaVuSans-31"/>
     <use xlink:href="#DejaVuSans-30" transform="translate(63.623047 0)"/>
     <use xlink:href="#DejaVuSans-30" transform="translate(127.246094 0)"/>
     <use xlink:href="#DejaVuSans-20" transform="translate(190.869141 0)"/>
     <use xlink:href="#DejaVuSans-b5" transform="translate(222.65625 0)"/>
     <use xlink:href="#DejaVuSans-46" transform="translate(286.279297 0)"/>
    </g>
    <!-- 16 V -->
    <g style="fill: #c62828" transform="translate(311.425312 195.408281) scale(0.09 -0.09)">
     <use xlink:href="#DejaVuSans-31"/>
     <use xlink:href="#DejaVuSans-36" transform="translate(63.623047 0)"/>
     <use xlink:href="#DejaVuSans-20" transform="translate(127.246094 0)"/>
     <use xlink:href="#DejaVuSans-56" transform="translate(159.033203 0)"/>
    </g>
   </g>
   <g id="text_19">
    <!-- C3 -->
    <g style="fill: #c62828" transform="translate(387.654609 186.697969) scale(0.09 -0.09)">
     <use xlink:href="#DejaVuSans-43"/>
     <use xlink:href="#DejaVuSans-33" transform="translate(69.824219 0)"/>
    </g>
    <!-- 100 nF -->
    <g style="fill: #c62828" transform="translate(378.200391 195.408281) scale(0.09 -0.09)">
     <defs>
      <path id="DejaVuSans-6e" d="M 3513 2113 
L 3513 0 
L 2938 0 
L 2938 2094 
Q 2938 2591 2744 2837 
Q 2550 3084 2163 3084 
Q 1697 3084 1428 2787 
Q 1159 2491 1159 1978 
L 1159 0 
L 581 0 
L 581 3500 
L 1159 3500 
L 1159 2956 
Q 1366 3272 1645 3428 
Q 1925 3584 2291 3584 
Q 2894 3584 3203 3211 
Q 3513 2838 3513 2113 
z
" transform="scale(0.015625)"/>
     </defs>
     <use xlink:href="#DejaVuSans-31"/>
     <use xlink:href="#DejaVuSans-30" transform="translate(63.623047 0)"/>
     <use xlink:href="#DejaVuSans-30" transform="translate(127.246094 0)"/>
     <use xlink:href="#DejaVuSans-20" transform="translate(190.869141 0)"/>
     <use xlink:href="#DejaVuSans-6e" transform="translate(222.65625 0)"/>
     <use xlink:href="#DejaVuSans-46" transform="translate(286.035156 0)"/>
    </g>
   </g>
   <g id="text_20">
    <!-- 1 -->
    <g transform="translate(491.96125 195.892344) scale(0.11 -0.11)">
     <use xlink:href="#DejaVuSans-31"/>
    </g>
   </g>
   <g id="text_21">
    <!-- V33 -->
    <g transform="translate(507.06 204.743125) scale(0.14 -0.14)">
     <use xlink:href="#DejaVuSans-56"/>
     <use xlink:href="#DejaVuSans-33" transform="translate(68.408203 0)"/>
     <use xlink:href="#DejaVuSans-33" transform="translate(132.03125 0)"/>
    </g>
   </g>
   <g id="text_22">
    <!-- 2 -->
    <g transform="translate(491.96125 163.492344) scale(0.11 -0.11)">
     <use xlink:href="#DejaVuSans-32"/>
    </g>
   </g>
   <g id="text_23">
    <!-- EGND -->
    <g transform="translate(507.06 172.343125) scale(0.14 -0.14)">
     <defs>
      <path id="DejaVuSans-45" d="M 628 4666 
L 3578 4666 
L 3578 4134 
L 1259 4134 
L 1259 2753 
L 3481 2753 
L 3481 2222 
L 1259 2222 
L 1259 531 
L 3634 531 
L 3634 0 
L 628 0 
L 628 4666 
z
" transform="scale(0.015625)"/>
     </defs>
     <use xlink:href="#DejaVuSans-45"/>
     <use xlink:href="#DejaVuSans-47" transform="translate(63.183594 0)"/>
     <use xlink:href="#DejaVuSans-4e" transform="translate(140.673828 0)"/>
     <use xlink:href="#DejaVuSans-44" transform="translate(215.478516 0)"/>
    </g>
   </g>
   <g id="text_24">
    <!-- 3 -->
    <g transform="translate(619.032 228.292344) scale(0.11 -0.11)">
     <use xlink:href="#DejaVuSans-33"/>
    </g>
   </g>
   <g id="text_25">
    <!-- GPIO25 -->
    <g transform="translate(558.677 237.143125) scale(0.14 -0.14)">
     <use xlink:href="#DejaVuSans-47"/>
     <use xlink:href="#DejaVuSans-50" transform="translate(77.490234 0)"/>
     <use xlink:href="#DejaVuSans-49" transform="translate(137.792969 0)"/>
     <use xlink:href="#DejaVuSans-4f" transform="translate(167.285156 0)"/>
     <use xlink:href="#DejaVuSans-32" transform="translate(245.996094 0)"/>
     <use xlink:href="#DejaVuSans-35" transform="translate(309.619141 0)"/>
    </g>
   </g>
   <g id="text_26">
    <!-- 4 -->
    <g transform="translate(619.032 195.892344) scale(0.11 -0.11)">
     <defs>
      <path id="DejaVuSans-34" d="M 2419 4116 
L 825 1625 
L 2419 1625 
L 2419 4116 
z
M 2253 4666 
L 3047 4666 
L 3047 1625 
L 3713 1625 
L 3713 1100 
L 3047 1100 
L 3047 0 
L 2419 0 
L 2419 1100 
L 313 1100 
L 313 1709 
L 2253 4666 
z
" transform="scale(0.015625)"/>
     </defs>
     <use xlink:href="#DejaVuSans-34"/>
    </g>
   </g>
   <g id="text_27">
    <!-- GPIO26 -->
    <g transform="translate(558.677 204.743125) scale(0.14 -0.14)">
     <use xlink:href="#DejaVuSans-47"/>
     <use xlink:href="#DejaVuSans-50" transform="translate(77.490234 0)"/>
     <use xlink:href="#DejaVuSans-49" transform="translate(137.792969 0)"/>
     <use xlink:href="#DejaVuSans-4f" transform="translate(167.285156 0)"/>
     <use xlink:href="#DejaVuSans-32" transform="translate(245.996094 0)"/>
     <use xlink:href="#DejaVuSans-36" transform="translate(309.619141 0)"/>
    </g>
   </g>
   <g id="text_28">
    <!-- 5 -->
    <g transform="translate(619.032 163.492344) scale(0.11 -0.11)">
     <use xlink:href="#DejaVuSans-35"/>
    </g>
   </g>
   <g id="text_29">
    <!-- GPIO27 -->
    <g transform="translate(558.677 172.343125) scale(0.14 -0.14)">
     <use xlink:href="#DejaVuSans-47"/>
     <use xlink:href="#DejaVuSans-50" transform="translate(77.490234 0)"/>
     <use xlink:href="#DejaVuSans-49" transform="translate(137.792969 0)"/>
     <use xlink:href="#DejaVuSans-4f" transform="translate(167.285156 0)"/>
     <use xlink:href="#DejaVuSans-32" transform="translate(245.996094 0)"/>
     <use xlink:href="#DejaVuSans-37" transform="translate(309.619141 0)"/>
    </g>
   </g>
   <g id="text_30">
    <!-- 6 -->
    <g transform="translate(619.032 131.092344) scale(0.11 -0.11)">
     <use xlink:href="#DejaVuSans-36"/>
    </g>
   </g>
   <g id="text_31">
    <!-- GPIO13 -->
    <g transform="translate(558.677 139.943125) scale(0.14 -0.14)">
     <use xlink:href="#DejaVuSans-47"/>
     <use xlink:href="#DejaVuSans-50" transform="translate(77.490234 0)"/>
     <use xlink:href="#DejaVuSans-49" transform="translate(137.792969 0)"/>
     <use xlink:href="#DejaVuSans-4f" transform="translate(167.285156 0)"/>
     <use xlink:href="#DejaVuSans-31" transform="translate(245.996094 0)"/>
     <use xlink:href="#DejaVuSans-33" transform="translate(309.619141 0)"/>
    </g>
   </g>
   <g id="text_32">
    <!-- U3 -->
    <g transform="translate(556.439438 179.208281) scale(0.09 -0.09)">
     <use xlink:href="#DejaVuSans-55"/>
     <use xlink:href="#DejaVuSans-33" transform="translate(73.193359 0)"/>
    </g>
    <!-- ESP32 DevKit C V4 -->
    <g transform="translate(520.219359 187.918594) scale(0.09 -0.09)">
     <defs>
      <path id="DejaVuSans-76" d="M 191 3500 
L 800 3500 
L 1894 563 
L 2988 3500 
L 3597 3500 
L 2284 0 
L 1503 0 
L 191 3500 
z
" transform="scale(0.015625)"/>
      <path id="DejaVuSans-4b" d="M 628 4666 
L 1259 4666 
L 1259 2694 
L 3353 4666 
L 4166 4666 
L 1850 2491 
L 4331 0 
L 3500 0 
L 1259 2247 
L 1259 0 
L 628 0 
L 628 4666 
z
" transform="scale(0.015625)"/>
      <path id="DejaVuSans-74" d="M 1172 4494 
L 1172 3500 
L 2356 3500 
L 2356 3053 
L 1172 3053 
L 1172 1153 
Q 1172 725 1289 603 
Q 1406 481 1766 481 
L 2356 481 
L 2356 0 
L 1766 0 
Q 1100 0 847 248 
Q 594 497 594 1153 
L 594 3053 
L 172 3053 
L 172 3500 
L 594 3500 
L 594 4494 
L 1172 4494 
z
" transform="scale(0.015625)"/>
     </defs>
     <use xlink:href="#DejaVuSans-45"/>
     <use xlink:href="#DejaVuSans-53" transform="translate(63.183594 0)"/>
     <use xlink:href="#DejaVuSans-50" transform="translate(126.660156 0)"/>
     <use xlink:href="#DejaVuSans-33" transform="translate(186.962891 0)"/>
     <use xlink:href="#DejaVuSans-32" transform="translate(250.585938 0)"/>
     <use xlink:href="#DejaVuSans-20" transform="translate(314.208984 0)"/>
     <use xlink:href="#DejaVuSans-44" transform="translate(345.996094 0)"/>
     <use xlink:href="#DejaVuSans-65" transform="translate(422.998047 0)"/>
     <use xlink:href="#DejaVuSans-76" transform="translate(484.521484 0)"/>
     <use xlink:href="#DejaVuSans-4b" transform="translate(543.701172 0)"/>
     <use xlink:href="#DejaVuSans-69" transform="translate(609.277344 0)"/>
     <use xlink:href="#DejaVuSans-74" transform="translate(637.060547 0)"/>
     <use xlink:href="#DejaVuSans-20" transform="translate(676.269531 0)"/>
     <use xlink:href="#DejaVuSans-43" transform="translate(708.056641 0)"/>
     <use xlink:href="#DejaVuSans-20" transform="translate(777.880859 0)"/>
     <use xlink:href="#DejaVuSans-56" transform="translate(809.667969 0)"/>
     <use xlink:href="#DejaVuSans-34" transform="translate(878.076172 0)"/>
    </g>
   </g>
   <g id="text_33">
    <!-- PWM1  (GPIO25) -->
    <g style="fill: #2e7d32" transform="translate(655.932 232.163437) scale(0.09 -0.09)">
     <defs>
      <path id="DejaVuSans-57" d="M 213 4666 
L 850 4666 
L 1831 722 
L 2809 4666 
L 3519 4666 
L 4500 722 
L 5478 4666 
L 6119 4666 
L 4947 0 
L 4153 0 
L 3169 4050 
L 2175 0 
L 1381 0 
L 213 4666 
z
" transform="scale(0.015625)"/>
     </defs>
     <use xlink:href="#DejaVuSans-50"/>
     <use xlink:href="#DejaVuSans-57" transform="translate(60.302734 0)"/>
     <use xlink:href="#DejaVuSans-4d" transform="translate(159.179688 0)"/>
     <use xlink:href="#DejaVuSans-31" transform="translate(245.458984 0)"/>
     <use xlink:href="#DejaVuSans-20" transform="translate(309.082031 0)"/>
     <use xlink:href="#DejaVuSans-20" transform="translate(340.869141 0)"/>
     <use xlink:href="#DejaVuSans-28" transform="translate(372.65625 0)"/>
     <use xlink:href="#DejaVuSans-47" transform="translate(411.669922 0)"/>
     <use xlink:href="#DejaVuSans-50" transform="translate(489.160156 0)"/>
     <use xlink:href="#DejaVuSans-49" transform="translate(549.462891 0)"/>
     <use xlink:href="#DejaVuSans-4f" transform="translate(578.955078 0)"/>
     <use xlink:href="#DejaVuSans-32" transform="translate(657.666016 0)"/>
     <use xlink:href="#DejaVuSans-35" transform="translate(721.289062 0)"/>
     <use xlink:href="#DejaVuSans-29" transform="translate(784.912109 0)"/>
    </g>
   </g>
   <g id="text_34">
    <!-- PWM2  (GPIO26) -->
    <g style="fill: #2e7d32" transform="translate(655.932 199.763437) scale(0.09 -0.09)">
     <use xlink:href="#DejaVuSans-50"/>
     <use xlink:href="#DejaVuSans-57" transform="translate(60.302734 0)"/>
     <use xlink:href="#DejaVuSans-4d" transform="translate(159.179688 0)"/>
     <use xlink:href="#DejaVuSans-32" transform="translate(245.458984 0)"/>
     <use xlink:href="#DejaVuSans-20" transform="translate(309.082031 0)"/>
     <use xlink:href="#DejaVuSans-20" transform="translate(340.869141 0)"/>
     <use xlink:href="#DejaVuSans-28" transform="translate(372.65625 0)"/>
     <use xlink:href="#DejaVuSans-47" transform="translate(411.669922 0)"/>
     <use xlink:href="#DejaVuSans-50" transform="translate(489.160156 0)"/>
     <use xlink:href="#DejaVuSans-49" transform="translate(549.462891 0)"/>
     <use xlink:href="#DejaVuSans-4f" transform="translate(578.955078 0)"/>
     <use xlink:href="#DejaVuSans-32" transform="translate(657.666016 0)"/>
     <use xlink:href="#DejaVuSans-36" transform="translate(721.289062 0)"/>
     <use xlink:href="#DejaVuSans-29" transform="translate(784.912109 0)"/>
    </g>
   </g>
   <g id="text_35">
    <!-- PWM3  (GPIO27) -->
    <g style="fill: #2e7d32" transform="translate(655.932 167.363437) scale(0.09 -0.09)">
     <use xlink:href="#DejaVuSans-50"/>
     <use xlink:href="#DejaVuSans-57" transform="translate(60.302734 0)"/>
     <use xlink:href="#DejaVuSans-4d" transform="translate(159.179688 0)"/>
     <use xlink:href="#DejaVuSans-33" transform="translate(245.458984 0)"/>
     <use xlink:href="#DejaVuSans-20" transform="translate(309.082031 0)"/>
     <use xlink:href="#DejaVuSans-20" transform="translate(340.869141 0)"/>
     <use xlink:href="#DejaVuSans-28" transform="translate(372.65625 0)"/>
     <use xlink:href="#DejaVuSans-47" transform="translate(411.669922 0)"/>
     <use xlink:href="#DejaVuSans-50" transform="translate(489.160156 0)"/>
     <use xlink:href="#DejaVuSans-49" transform="translate(549.462891 0)"/>
     <use xlink:href="#DejaVuSans-4f" transform="translate(578.955078 0)"/>
     <use xlink:href="#DejaVuSans-32" transform="translate(657.666016 0)"/>
     <use xlink:href="#DejaVuSans-37" transform="translate(721.289062 0)"/>
     <use xlink:href="#DejaVuSans-29" transform="translate(784.912109 0)"/>
    </g>
   </g>
   <g id="text_36">
    <!-- NTC  (GPIO13 ADC) -->
    <g style="fill: #2e7d32" transform="translate(655.932 134.963437) scale(0.09 -0.09)">
     <use xlink:href="#DejaVuSans-4e"/>
     <use xlink:href="#DejaVuSans-54" transform="translate(74.804688 0)"/>
     <use xlink:href="#DejaVuSans-43" transform="translate(130.013672 0)"/>
     <use xlink:href="#DejaVuSans-20" transform="translate(199.837891 0)"/>
     <use xlink:href="#DejaVuSans-20" transform="translate(231.625 0)"/>
     <use xlink:href="#DejaVuSans-28" transform="translate(263.412109 0)"/>
     <use xlink:href="#DejaVuSans-47" transform="translate(302.425781 0)"/>
     <use xlink:href="#DejaVuSans-50" transform="translate(379.916016 0)"/>
     <use xlink:href="#DejaVuSans-49" transform="translate(440.21875 0)"/>
     <use xlink:href="#DejaVuSans-4f" transform="translate(469.710938 0)"/>
     <use xlink:href="#DejaVuSans-31" transform="translate(548.421875 0)"/>
     <use xlink:href="#DejaVuSans-33" transform="translate(612.044922 0)"/>
     <use xlink:href="#DejaVuSans-20" transform="translate(675.667969 0)"/>
     <use xlink:href="#DejaVuSans-41" transform="translate(707.455078 0)"/>
     <use xlink:href="#DejaVuSans-44" transform="translate(775.863281 0)"/>
     <use xlink:href="#DejaVuSans-43" transform="translate(852.865234 0)"/>
     <use xlink:href="#DejaVuSans-29" transform="translate(922.689453 0)"/>
    </g>
   </g>
   <g id="text_37">
    <!-- PWM1  (GPIO25) -->
    <g style="fill: #2e7d32" transform="translate(755.107031 205.163438) scale(0.09 -0.09)">
     <use xlink:href="#DejaVuSans-50"/>
     <use xlink:href="#DejaVuSans-57" transform="translate(60.302734 0)"/>
     <use xlink:href="#DejaVuSans-4d" transform="translate(159.179688 0)"/>
     <use xlink:href="#DejaVuSans-31" transform="translate(245.458984 0)"/>
     <use xlink:href="#DejaVuSans-20" transform="translate(309.082031 0)"/>
     <use xlink:href="#DejaVuSans-20" transform="translate(340.869141 0)"/>
     <use xlink:href="#DejaVuSans-28" transform="translate(372.65625 0)"/>
     <use xlink:href="#DejaVuSans-47" transform="translate(411.669922 0)"/>
     <use xlink:href="#DejaVuSans-50" transform="translate(489.160156 0)"/>
     <use xlink:href="#DejaVuSans-49" transform="translate(549.462891 0)"/>
     <use xlink:href="#DejaVuSans-4f" transform="translate(578.955078 0)"/>
     <use xlink:href="#DejaVuSans-32" transform="translate(657.666016 0)"/>
     <use xlink:href="#DejaVuSans-35" transform="translate(721.289062 0)"/>
     <use xlink:href="#DejaVuSans-29" transform="translate(784.912109 0)"/>
    </g>
   </g>
   <g id="text_38">
    <!-- R1  100 Ω -->
    <g style="fill: #2e7d32" transform="translate(868.15125 191.808281) scale(0.09 -0.09)">
     <defs>
      <path id="DejaVuSans-52" d="M 2841 2188 
Q 3044 2119 3236 1894 
Q 3428 1669 3622 1275 
L 4263 0 
L 3584 0 
L 2988 1197 
Q 2756 1666 2539 1819 
Q 2322 1972 1947 1972 
L 1259 1972 
L 1259 0 
L 628 0 
L 628 4666 
L 2053 4666 
Q 2853 4666 3247 4331 
Q 3641 3997 3641 3322 
Q 3641 2881 3436 2590 
Q 3231 2300 2841 2188 
z
M 1259 4147 
L 1259 2491 
L 2053 2491 
Q 2509 2491 2742 2702 
Q 2975 2913 2975 3322 
Q 2975 3731 2742 3939 
Q 2509 4147 2053 4147 
L 1259 4147 
z
" transform="scale(0.015625)"/>
      <path id="DejaVuSans-3a9" d="M 4647 556 
L 4647 0 
L 2772 0 
L 2772 556 
Q 3325 859 3634 1378 
Q 3944 1897 3944 2528 
Q 3944 3278 3531 3731 
Q 3119 4184 2444 4184 
Q 1769 4184 1355 3729 
Q 941 3275 941 2528 
Q 941 1897 1250 1378 
Q 1563 859 2119 556 
L 2119 0 
L 244 0 
L 244 556 
L 1241 556 
Q 747 991 519 1456 
Q 294 1922 294 2497 
Q 294 3491 894 4106 
Q 1491 4722 2444 4722 
Q 3391 4722 3994 4106 
Q 4594 3494 4594 2528 
Q 4594 1922 4372 1459 
Q 4150 997 3647 556 
L 4647 556 
z
" transform="scale(0.015625)"/>
     </defs>
     <use xlink:href="#DejaVuSans-52"/>
     <use xlink:href="#DejaVuSans-31" transform="translate(69.482422 0)"/>
     <use xlink:href="#DejaVuSans-20" transform="translate(133.105469 0)"/>
     <use xlink:href="#DejaVuSans-20" transform="translate(164.892578 0)"/>
     <use xlink:href="#DejaVuSans-31" transform="translate(196.679688 0)"/>
     <use xlink:href="#DejaVuSans-30" transform="translate(260.302734 0)"/>
     <use xlink:href="#DejaVuSans-30" transform="translate(323.925781 0)"/>
     <use xlink:href="#DejaVuSans-20" transform="translate(387.548828 0)"/>
     <use xlink:href="#DejaVuSans-3a9" transform="translate(419.335938 0)"/>
    </g>
   </g>
   <g id="text_39">
    <!-- R4  10 kΩ -->
    <g style="fill: #546e7a" transform="translate(933.208594 200.808281) scale(0.09 -0.09)">
     <defs>
      <path id="DejaVuSans-6b" d="M 581 4863 
L 1159 4863 
L 1159 1991 
L 2875 3500 
L 3609 3500 
L 1753 1863 
L 3688 0 
L 2938 0 
L 1159 1709 
L 1159 0 
L 581 0 
L 581 4863 
z
" transform="scale(0.015625)"/>
     </defs>
     <use xlink:href="#DejaVuSans-52"/>
     <use xlink:href="#DejaVuSans-34" transform="translate(69.482422 0)"/>
     <use xlink:href="#DejaVuSans-20" transform="translate(133.105469 0)"/>
     <use xlink:href="#DejaVuSans-20" transform="translate(164.892578 0)"/>
     <use xlink:href="#DejaVuSans-31" transform="translate(196.679688 0)"/>
     <use xlink:href="#DejaVuSans-30" transform="translate(260.302734 0)"/>
     <use xlink:href="#DejaVuSans-20" transform="translate(323.925781 0)"/>
     <use xlink:href="#DejaVuSans-6b" transform="translate(355.712891 0)"/>
     <use xlink:href="#DejaVuSans-3a9" transform="translate(413.623047 0)"/>
    </g>
   </g>
   <g id="text_40">
    <!-- Q1 -->
    <g style="fill: #212121" transform="translate(969.66 204.408281) scale(0.09 -0.09)">
     <defs>
      <path id="DejaVuSans-51" d="M 2522 4238 
Q 1834 4238 1429 3725 
Q 1025 3213 1025 2328 
Q 1025 1447 1429 934 
Q 1834 422 2522 422 
Q 3209 422 3611 934 
Q 4013 1447 4013 2328 
Q 4013 3213 3611 3725 
Q 3209 4238 2522 4238 
z
M 3406 84 
L 4238 -825 
L 3475 -825 
L 2784 -78 
Q 2681 -84 2626 -87 
Q 2572 -91 2522 -91 
Q 1538 -91 948 567 
Q 359 1225 359 2328 
Q 359 3434 948 4092 
Q 1538 4750 2522 4750 
Q 3503 4750 4090 4092 
Q 4678 3434 4678 2328 
Q 4678 1516 4351 937 
Q 4025 359 3406 84 
z
" transform="scale(0.015625)"/>
     </defs>
     <use xlink:href="#DejaVuSans-51"/>
     <use xlink:href="#DejaVuSans-31" transform="translate(78.710938 0)"/>
    </g>
    <!-- IRLZ44N -->
    <g style="fill: #212121" transform="translate(969.66 213.118594) scale(0.09 -0.09)">
     <defs>
      <path id="DejaVuSans-5a" d="M 359 4666 
L 4025 4666 
L 4025 4184 
L 1075 531 
L 4097 531 
L 4097 0 
L 288 0 
L 288 481 
L 3238 4134 
L 359 4134 
L 359 4666 
z
" transform="scale(0.015625)"/>
     </defs>
     <use xlink:href="#DejaVuSans-49"/>
     <use xlink:href="#DejaVuSans-52" transform="translate(29.492188 0)"/>
     <use xlink:href="#DejaVuSans-4c" transform="translate(98.974609 0)"/>
     <use xlink:href="#DejaVuSans-5a" transform="translate(154.6875 0)"/>
     <use xlink:href="#DejaVuSans-34" transform="translate(223.193359 0)"/>
     <use xlink:href="#DejaVuSans-34" transform="translate(286.816406 0)"/>
     <use xlink:href="#DejaVuSans-4e" transform="translate(350.439453 0)"/>
    </g>
   </g>
   <g id="text_41">
    <!-- LED1 -->
    <g style="fill: #1565c0" transform="translate(905.061094 12.097969) scale(0.09 -0.09)">
     <use xlink:href="#DejaVuSans-4c"/>
     <use xlink:href="#DejaVuSans-45" transform="translate(55.712891 0)"/>
     <use xlink:href="#DejaVuSans-44" transform="translate(118.896484 0)"/>
     <use xlink:href="#DejaVuSans-31" transform="translate(195.898438 0)"/>
    </g>
    <!-- 12 V LED strip -->
    <g style="fill: #1565c0" transform="translate(884.763984 20.808281) scale(0.09 -0.09)">
     <defs>
      <path id="DejaVuSans-73" d="M 2834 3397 
L 2834 2853 
Q 2591 2978 2328 3040 
Q 2066 3103 1784 3103 
Q 1356 3103 1142 2972 
Q 928 2841 928 2578 
Q 928 2378 1081 2264 
Q 1234 2150 1697 2047 
L 1894 2003 
Q 2506 1872 2764 1633 
Q 3022 1394 3022 966 
Q 3022 478 2636 193 
Q 2250 -91 1575 -91 
Q 1294 -91 989 -36 
Q 684 19 347 128 
L 347 722 
Q 666 556 975 473 
Q 1284 391 1588 391 
Q 1994 391 2212 530 
Q 2431 669 2431 922 
Q 2431 1156 2273 1281 
Q 2116 1406 1581 1522 
L 1381 1569 
Q 847 1681 609 1914 
Q 372 2147 372 2553 
Q 372 3047 722 3315 
Q 1072 3584 1716 3584 
Q 2034 3584 2315 3537 
Q 2597 3491 2834 3397 
z
" transform="scale(0.015625)"/>
      <path id="DejaVuSans-72" d="M 2631 2963 
Q 2534 3019 2420 3045 
Q 2306 3072 2169 3072 
Q 1681 3072 1420 2755 
Q 1159 2438 1159 1844 
L 1159 0 
L 581 0 
L 581 3500 
L 1159 3500 
L 1159 2956 
Q 1341 3275 1631 3429 
Q 1922 3584 2338 3584 
Q 2397 3584 2469 3576 
Q 2541 3569 2628 3553 
L 2631 2963 
z
" transform="scale(0.015625)"/>
      <path id="DejaVuSans-70" d="M 1159 525 
L 1159 -1331 
L 581 -1331 
L 581 3500 
L 1159 3500 
L 1159 2969 
Q 1341 3281 1617 3432 
Q 1894 3584 2278 3584 
Q 2916 3584 3314 3078 
Q 3713 2572 3713 1747 
Q 3713 922 3314 415 
Q 2916 -91 2278 -91 
Q 1894 -91 1617 61 
Q 1341 213 1159 525 
z
M 3116 1747 
Q 3116 2381 2855 2742 
Q 2594 3103 2138 3103 
Q 1681 3103 1420 2742 
Q 1159 2381 1159 1747 
Q 1159 1113 1420 752 
Q 1681 391 2138 391 
Q 2594 391 2855 752 
Q 3116 1113 3116 1747 
z
" transform="scale(0.015625)"/>
     </defs>
     <use xlink:href="#DejaVuSans-31"/>
     <use xlink:href="#DejaVuSans-32" transform="translate(63.623047 0)"/>
     <use xlink:href="#DejaVuSans-20" transform="translate(127.246094 0)"/>
     <use xlink:href="#DejaVuSans-56" transform="translate(159.033203 0)"/>
     <use xlink:href="#DejaVuSans-20" transform="translate(227.441406 0)"/>
     <use xlink:href="#DejaVuSans-4c" transform="translate(259.228516 0)"/>
     <use xlink:href="#DejaVuSans-45" transform="translate(314.941406 0)"/>
     <use xlink:href="#DejaVuSans-44" transform="translate(378.125 0)"/>
     <use xlink:href="#DejaVuSans-20" transform="translate(455.126953 0)"/>
     <use xlink:href="#DejaVuSans-73" transform="translate(486.914062 0)"/>
     <use xlink:href="#DejaVuSans-74" transform="translate(539.013672 0)"/>
     <use xlink:href="#DejaVuSans-72" transform="translate(578.222656 0)"/>
     <use xlink:href="#DejaVuSans-69" transform="translate(619.335938 0)"/>
     <use xlink:href="#DejaVuSans-70" transform="translate(647.119141 0)"/>
    </g>
   </g>
   <g id="text_42">
    <!-- PWM2  (GPIO26) -->
    <g style="fill: #2e7d32" transform="translate(1044.183516 216.718594) scale(0.09 -0.09)">
     <use xlink:href="#DejaVuSans-50"/>
     <use xlink:href="#DejaVuSans-57" transform="translate(60.302734 0)"/>
     <use xlink:href="#DejaVuSans-4d" transform="translate(159.179688 0)"/>
     <use xlink:href="#DejaVuSans-32" transform="translate(245.458984 0)"/>
     <use xlink:href="#DejaVuSans-20" transform="translate(309.082031 0)"/>
     <use xlink:href="#DejaVuSans-20" transform="translate(340.869141 0)"/>
     <use xlink:href="#DejaVuSans-28" transform="translate(372.65625 0)"/>
     <use xlink:href="#DejaVuSans-47" transform="translate(411.669922 0)"/>
     <use xlink:href="#DejaVuSans-50" transform="translate(489.160156 0)"/>
     <use xlink:href="#DejaVuSans-49" transform="translate(549.462891 0)"/>
     <use xlink:href="#DejaVuSans-4f" transform="translate(578.955078 0)"/>
     <use xlink:href="#DejaVuSans-32" transform="translate(657.666016 0)"/>
     <use xlink:href="#DejaVuSans-36" transform="translate(721.289062 0)"/>
     <use xlink:href="#DejaVuSans-29" transform="translate(784.912109 0)"/>
    </g>
   </g>
   <g id="text_43">
    <!-- R2  100 Ω -->
    <g style="fill: #2e7d32" transform="translate(1120.15125 191.808281) scale(0.09 -0.09)">
     <use xlink:href="#DejaVuSans-52"/>
     <use xlink:href="#DejaVuSans-32" transform="translate(69.482422 0)"/>
     <use xlink:href="#DejaVuSans-20" transform="translate(133.105469 0)"/>
     <use xlink:href="#DejaVuSans-20" transform="translate(164.892578 0)"/>
     <use xlink:href="#DejaVuSans-31" transform="translate(196.679688 0)"/>
     <use xlink:href="#DejaVuSans-30" transform="translate(260.302734 0)"/>
     <use xlink:href="#DejaVuSans-30" transform="translate(323.925781 0)"/>
     <use xlink:href="#DejaVuSans-20" transform="translate(387.548828 0)"/>
     <use xlink:href="#DejaVuSans-3a9" transform="translate(419.335938 0)"/>
    </g>
   </g>
   <g id="text_44">
    <!-- R5  10 kΩ -->
    <g style="fill: #546e7a" transform="translate(1185.208594 200.808281) scale(0.09 -0.09)">
     <use xlink:href="#DejaVuSans-52"/>
     <use xlink:href="#DejaVuSans-35" transform="translate(69.482422 0)"/>
     <use xlink:href="#DejaVuSans-20" transform="translate(133.105469 0)"/>
     <use xlink:href="#DejaVuSans-20" transform="translate(164.892578 0)"/>
     <use xlink:href="#DejaVuSans-31" transform="translate(196.679688 0)"/>
     <use xlink:href="#DejaVuSans-30" transform="translate(260.302734 0)"/>
     <use xlink:href="#DejaVuSans-20" transform="translate(323.925781 0)"/>
     <use xlink:href="#DejaVuSans-6b" transform="translate(355.712891 0)"/>
     <use xlink:href="#DejaVuSans-3a9" transform="translate(413.623047 0)"/>
    </g>
   </g>
   <g id="text_45">
    <!-- Q2 -->
    <g style="fill: #212121" transform="translate(1221.66 204.408281) scale(0.09 -0.09)">
     <use xlink:href="#DejaVuSans-51"/>
     <use xlink:href="#DejaVuSans-32" transform="translate(78.710938 0)"/>
    </g>
    <!-- IRLZ44N -->
    <g style="fill: #212121" transform="translate(1221.66 213.118594) scale(0.09 -0.09)">
     <use xlink:href="#DejaVuSans-49"/>
     <use xlink:href="#DejaVuSans-52" transform="translate(29.492188 0)"/>
     <use xlink:href="#DejaVuSans-4c" transform="translate(98.974609 0)"/>
     <use xlink:href="#DejaVuSans-5a" transform="translate(154.6875 0)"/>
     <use xlink:href="#DejaVuSans-34" transform="translate(223.193359 0)"/>
     <use xlink:href="#DejaVuSans-34" transform="translate(286.816406 0)"/>
     <use xlink:href="#DejaVuSans-4e" transform="translate(350.439453 0)"/>
    </g>
   </g>
   <g id="text_46">
    <!-- LED2 -->
    <g style="fill: #1565c0" transform="translate(1157.061094 12.097969) scale(0.09 -0.09)">
     <use xlink:href="#DejaVuSans-4c"/>
     <use xlink:href="#DejaVuSans-45" transform="translate(55.712891 0)"/>
     <use xlink:href="#DejaVuSans-44" transform="translate(118.896484 0)"/>
     <use xlink:href="#DejaVuSans-32" transform="translate(195.898438 0)"/>
    </g>
    <!-- 12 V LED strip -->
    <g style="fill: #1565c0" transform="translate(1136.763984 20.808281) scale(0.09 -0.09)">
     <use xlink:href="#DejaVuSans-31"/>
     <use xlink:href="#DejaVuSans-32" transform="translate(63.623047 0)"/>
     <use xlink:href="#DejaVuSans-20" transform="translate(127.246094 0)"/>
     <use xlink:href="#DejaVuSans-56" transform="translate(159.033203 0)"/>
     <use xlink:href="#DejaVuSans-20" transform="translate(227.441406 0)"/>
     <use xlink:href="#DejaVuSans-4c" transform="translate(259.228516 0)"/>
     <use xlink:href="#DejaVuSans-45" transform="translate(314.941406 0)"/>
     <use xlink:href="#DejaVuSans-44" transform="translate(378.125 0)"/>
     <use xlink:href="#DejaVuSans-20" transform="translate(455.126953 0)"/>
     <use xlink:href="#DejaVuSans-73" transform="translate(486.914062 0)"/>
     <use xlink:href="#DejaVuSans-74" transform="translate(539.013672 0)"/>
     <use xlink:href="#DejaVuSans-72" transform="translate(578.222656 0)"/>
     <use xlink:href="#DejaVuSans-69" transform="translate(619.335938 0)"/>
     <use xlink:href="#DejaVuSans-70" transform="translate(647.119141 0)"/>
    </g>
   </g>
   <g id="text_47">
    <!-- PWM3  (GPIO27) -->
    <g style="fill: #2e7d32" transform="translate(1296.183516 216.718594) scale(0.09 -0.09)">
     <use xlink:href="#DejaVuSans-50"/>
     <use xlink:href="#DejaVuSans-57" transform="translate(60.302734 0)"/>
     <use xlink:href="#DejaVuSans-4d" transform="translate(159.179688 0)"/>
     <use xlink:href="#DejaVuSans-33" transform="translate(245.458984 0)"/>
     <use xlink:href="#DejaVuSans-20" transform="translate(309.082031 0)"/>
     <use xlink:href="#DejaVuSans-20" transform="translate(340.869141 0)"/>
     <use xlink:href="#DejaVuSans-28" transform="translate(372.65625 0)"/>
     <use xlink:href="#DejaVuSans-47" transform="translate(411.669922 0)"/>
     <use xlink:href="#DejaVuSans-50" transform="translate(489.160156 0)"/>
     <use xlink:href="#DejaVuSans-49" transform="translate(549.462891 0)"/>
     <use xlink:href="#DejaVuSans-4f" transform="translate(578.955078 0)"/>
     <use xlink:href="#DejaVuSans-32" transform="translate(657.666016 0)"/>
     <use xlink:href="#DejaVuSans-37" transform="translate(721.289062 0)"/>
     <use xlink:href="#DejaVuSans-29" transform="translate(784.912109 0)"/>
    </g>
   </g>
   <g id="text_48">
    <!-- R3  100 Ω -->
    <g style="fill: #2e7d32" transform="translate(1372.15125 191.808281) scale(0.09 -0.09)">
     <use xlink:href="#DejaVuSans-52"/>
     <use xlink:href="#DejaVuSans-33" transform="translate(69.482422 0)"/>
     <use xlink:href="#DejaVuSans-20" transform="translate(133.105469 0)"/>
     <use xlink:href="#DejaVuSans-20" transform="translate(164.892578 0)"/>
     <use xlink:href="#DejaVuSans-31" transform="translate(196.679688 0)"/>
     <use xlink:href="#DejaVuSans-30" transform="translate(260.302734 0)"/>
     <use xlink:href="#DejaVuSans-30" transform="translate(323.925781 0)"/>
     <use xlink:href="#DejaVuSans-20" transform="translate(387.548828 0)"/>
     <use xlink:href="#DejaVuSans-3a9" transform="translate(419.335938 0)"/>
    </g>
   </g>
   <g id="text_49">
    <!-- R6  10 kΩ -->
    <g style="fill: #546e7a" transform="translate(1437.208594 200.808281) scale(0.09 -0.09)">
     <use xlink:href="#DejaVuSans-52"/>
     <use xlink:href="#DejaVuSans-36" transform="translate(69.482422 0)"/>
     <use xlink:href="#DejaVuSans-20" transform="translate(133.105469 0)"/>
     <use xlink:href="#DejaVuSans-20" transform="translate(164.892578 0)"/>
     <use xlink:href="#DejaVuSans-31" transform="translate(196.679688 0)"/>
     <use xlink:href="#DejaVuSans-30" transform="translate(260.302734 0)"/>
     <use xlink:href="#DejaVuSans-20" transform="translate(323.925781 0)"/>
     <use xlink:href="#DejaVuSans-6b" transform="translate(355.712891 0)"/>
     <use xlink:href="#DejaVuSans-3a9" transform="translate(413.623047 0)"/>
    </g>
   </g>
   <g id="text_50">
    <!-- Q3 -->
    <g style="fill: #212121" transform="translate(1473.66 204.408281) scale(0.09 -0.09)">
     <use xlink:href="#DejaVuSans-51"/>
     <use xlink:href="#DejaVuSans-33" transform="translate(78.710938 0)"/>
    </g>
    <!-- IRLZ44N -->
    <g style="fill: #212121" transform="translate(1473.66 213.118594) scale(0.09 -0.09)">
     <use xlink:href="#DejaVuSans-49"/>
     <use xlink:href="#DejaVuSans-52" transform="translate(29.492188 0)"/>
     <use xlink:href="#DejaVuSans-4c" transform="translate(98.974609 0)"/>
     <use xlink:href="#DejaVuSans-5a" transform="translate(154.6875 0)"/>
     <use xlink:href="#DejaVuSans-34" transform="translate(223.193359 0)"/>
     <use xlink:href="#DejaVuSans-34" transform="translate(286.816406 0)"/>
     <use xlink:href="#DejaVuSans-4e" transform="translate(350.439453 0)"/>
    </g>
   </g>
   <g id="text_51">
    <!-- LED3 -->
    <g style="fill: #1565c0" transform="translate(1409.061094 12.097969) scale(0.09 -0.09)">
     <use xlink:href="#DejaVuSans-4c"/>
     <use xlink:href="#DejaVuSans-45" transform="translate(55.712891 0)"/>
     <use xlink:href="#DejaVuSans-44" transform="translate(118.896484 0)"/>
     <use xlink:href="#DejaVuSans-33" transform="translate(195.898438 0)"/>
    </g>
    <!-- 12 V LED strip -->
    <g style="fill: #1565c0" transform="translate(1388.763984 20.808281) scale(0.09 -0.09)">
     <use xlink:href="#DejaVuSans-31"/>
     <use xlink:href="#DejaVuSans-32" transform="translate(63.623047 0)"/>
     <use xlink:href="#DejaVuSans-20" transform="translate(127.246094 0)"/>
     <use xlink:href="#DejaVuSans-56" transform="translate(159.033203 0)"/>
     <use xlink:href="#DejaVuSans-20" transform="translate(227.441406 0)"/>
     <use xlink:href="#DejaVuSans-4c" transform="translate(259.228516 0)"/>
     <use xlink:href="#DejaVuSans-45" transform="translate(314.941406 0)"/>
     <use xlink:href="#DejaVuSans-44" transform="translate(378.125 0)"/>
     <use xlink:href="#DejaVuSans-20" transform="translate(455.126953 0)"/>
     <use xlink:href="#DejaVuSans-73" transform="translate(486.914062 0)"/>
     <use xlink:href="#DejaVuSans-74" transform="translate(539.013672 0)"/>
     <use xlink:href="#DejaVuSans-72" transform="translate(578.222656 0)"/>
     <use xlink:href="#DejaVuSans-69" transform="translate(619.335938 0)"/>
     <use xlink:href="#DejaVuSans-70" transform="translate(647.119141 0)"/>
    </g>
   </g>
   <g id="patch_4">
    <path d="M 237.06 79.38 
C 237.776048 79.38 238.462866 79.095511 238.969188 78.589188 
C 239.475511 78.082866 239.76 77.396048 239.76 76.68 
C 239.76 75.963952 239.475511 75.277134 238.969188 74.770812 
C 238.462866 74.264489 237.776048 73.98 237.06 73.98 
C 236.343952 73.98 235.657134 74.264489 235.150812 74.770812 
C 234.644489 75.277134 234.36 75.963952 234.36 76.68 
C 234.36 77.396048 234.644489 78.082866 235.150812 78.589188 
C 235.657134 79.095511 236.343952 79.38 237.06 79.38 
z
" clip-path="url(#p9afda0892e)" style="fill: #e65100; stroke: #e65100; stroke-width: 2; stroke-linejoin: miter"/>
   </g>
   <g id="patch_5">
    <path d="M 363.06 79.38 
C 363.776048 79.38 364.462866 79.095511 364.969188 78.589188 
C 365.475511 78.082866 365.76 77.396048 365.76 76.68 
C 365.76 75.963952 365.475511 75.277134 364.969188 74.770812 
C 364.462866 74.264489 363.776048 73.98 363.06 73.98 
C 362.343952 73.98 361.657134 74.264489 361.150812 74.770812 
C 360.644489 75.277134 360.36 75.963952 360.36 76.68 
C 360.36 77.396048 360.644489 78.082866 361.150812 78.589188 
C 361.657134 79.095511 362.343952 79.38 363.06 79.38 
z
" clip-path="url(#p9afda0892e)" style="fill: #e65100; stroke: #e65100; stroke-width: 2; stroke-linejoin: miter"/>
   </g>
   <g id="patch_6">
    <path d="M 916.74 28.98 
C 917.456048 28.98 918.142866 28.695511 918.649188 28.189188 
C 919.155511 27.682866 919.44 26.996048 919.44 26.28 
C 919.44 25.563952 919.155511 24.877134 918.649188 24.370812 
C 918.142866 23.864489 917.456048 23.58 916.74 23.58 
C 916.023952 23.58 915.337134 23.864489 914.830812 24.370812 
C 914.324489 24.877134 914.04 25.563952 914.04 26.28 
C 914.04 26.996048 914.324489 27.682866 914.830812 28.189188 
C 915.337134 28.695511 916.023952 28.98 916.74 28.98 
z
" clip-path="url(#p9afda0892e)" style="fill: #e65100; stroke: #e65100; stroke-width: 2; stroke-linejoin: miter"/>
   </g>
   <g id="patch_7">
    <path d="M 1168.74 28.98 
C 1169.456048 28.98 1170.142866 28.695511 1170.649188 28.189188 
C 1171.155511 27.682866 1171.44 26.996048 1171.44 26.28 
C 1171.44 25.563952 1171.155511 24.877134 1170.649188 24.370812 
C 1170.142866 23.864489 1169.456048 23.58 1168.74 23.58 
C 1168.023952 23.58 1167.337134 23.864489 1166.830812 24.370812 
C 1166.324489 24.877134 1166.04 25.563952 1166.04 26.28 
C 1166.04 26.996048 1166.324489 27.682866 1166.830812 28.189188 
C 1167.337134 28.695511 1168.023952 28.98 1168.74 28.98 
z
" clip-path="url(#p9afda0892e)" style="fill: #e65100; stroke: #e65100; stroke-width: 2; stroke-linejoin: miter"/>
   </g>
   <g id="patch_8">
    <path d="M 1420.74 28.98 
C 1421.456048 28.98 1422.142866 28.695511 1422.649188 28.189188 
C 1423.155511 27.682866 1423.44 26.996048 1423.44 26.28 
C 1423.44 25.563952 1423.155511 24.877134 1422.649188 24.370812 
C 1422.142866 23.864489 1421.456048 23.58 1420.74 23.58 
C 1420.023952 23.58 1419.337134 23.864489 1418.830812 24.370812 
C 1418.324489 24.877134 1418.04 25.563952 1418.04 26.28 
C 1418.04 26.996048 1418.324489 27.682866 1418.830812 28.189188 
C 1419.337134 28.695511 1420.023952 28.98 1420.74 28.98 
z
" clip-path="url(#p9afda0892e)" style="fill: #e65100; stroke: #e65100; stroke-width: 2; stroke-linejoin: miter"/>
   </g>
   <g id="patch_9">
    <path d="M 321.66 203.58 
C 322.376048 203.58 323.062866 203.295511 323.569188 202.789188 
C 324.075511 202.282866 324.36 201.596048 324.36 200.88 
C 324.36 200.163952 324.075511 199.477134 323.569188 198.970812 
C 323.062866 198.464489 322.376048 198.18 321.66 198.18 
C 320.943952 198.18 320.257134 198.464489 319.750812 198.970812 
C 319.244489 199.477134 318.96 200.163952 318.96 200.88 
C 318.96 201.596048 319.244489 202.282866 319.750812 202.789188 
C 320.257134 203.295511 320.943952 203.58 321.66 203.58 
z
" clip-path="url(#p9afda0892e)" style="fill: #c62828; stroke: #c62828; stroke-width: 2; stroke-linejoin: miter"/>
   </g>
   <g id="patch_10">
    <path d="M 393.66 203.58 
C 394.376048 203.58 395.062866 203.295511 395.569188 202.789188 
C 396.075511 202.282866 396.36 201.596048 396.36 200.88 
C 396.36 200.163952 396.075511 199.477134 395.569188 198.970812 
C 395.062866 198.464489 394.376048 198.18 393.66 198.18 
C 392.943952 198.18 392.257134 198.464489 391.750812 198.970812 
C 391.244489 199.477134 390.96 200.163952 390.96 200.88 
C 390.96 201.596048 391.244489 202.282866 391.750812 202.789188 
C 392.257134 203.295511 392.943952 203.58 393.66 203.58 
z
" clip-path="url(#p9afda0892e)" style="fill: #c62828; stroke: #c62828; stroke-width: 2; stroke-linejoin: miter"/>
   </g>
   <g id="patch_11">
    <path d="M 483.66 203.58 
C 484.376048 203.58 485.062866 203.295511 485.569188 202.789188 
C 486.075511 202.282866 486.36 201.596048 486.36 200.88 
C 486.36 200.163952 486.075511 199.477134 485.569188 198.970812 
C 485.062866 198.464489 484.376048 198.18 483.66 198.18 
C 482.943952 198.18 482.257134 198.464489 481.750812 198.970812 
C 481.244489 199.477134 480.96 200.163952 480.96 200.88 
C 480.96 201.596048 481.244489 202.282866 481.750812 202.789188 
C 482.257134 203.295511 482.943952 203.58 483.66 203.58 
z
" clip-path="url(#p9afda0892e)" style="fill: #c62828; stroke: #c62828; stroke-width: 2; stroke-linejoin: miter"/>
   </g>
   <g id="patch_12">
    <path d="M 955.26 208.98 
C 955.976048 208.98 956.662866 208.695511 957.169188 208.189188 
C 957.675511 207.682866 957.96 206.996048 957.96 206.28 
C 957.96 205.563952 957.675511 204.877134 957.169188 204.370812 
C 956.662866 203.864489 955.976048 203.58 955.26 203.58 
C 954.543952 203.58 953.857134 203.864489 953.350812 204.370812 
C 952.844489 204.877134 952.56 205.563952 952.56 206.28 
C 952.56 206.996048 952.844489 207.682866 953.350812 208.189188 
C 953.857134 208.695511 954.543952 208.98 955.26 208.98 
z
" clip-path="url(#p9afda0892e)" style="fill: #2e7d32; stroke: #2e7d32; stroke-width: 2; stroke-linejoin: miter"/>
   </g>
   <g id="patch_13">
    <path d="M 916.74 181.98 
C 917.456048 181.98 918.142866 181.695511 918.649188 181.189188 
C 919.155511 180.682866 919.44 179.996048 919.44 179.28 
C 919.44 178.563952 919.155511 177.877134 918.649188 177.370812 
C 918.142866 176.864489 917.456048 176.58 916.74 176.58 
C 916.023952 176.58 915.337134 176.864489 914.830812 177.370812 
C 914.324489 177.877134 914.04 178.563952 914.04 179.28 
C 914.04 179.996048 914.324489 180.682866 914.830812 181.189188 
C 915.337134 181.695511 916.023952 181.98 916.74 181.98 
z
" clip-path="url(#p9afda0892e)" style="fill: #1565c0; stroke: #1565c0; stroke-width: 2; stroke-linejoin: miter"/>
   </g>
   <g id="patch_14">
    <path d="M 1207.26 208.98 
C 1207.976048 208.98 1208.662866 208.695511 1209.169188 208.189188 
C 1209.675511 207.682866 1209.96 206.996048 1209.96 206.28 
C 1209.96 205.563952 1209.675511 204.877134 1209.169188 204.370812 
C 1208.662866 203.864489 1207.976048 203.58 1207.26 203.58 
C 1206.543952 203.58 1205.857134 203.864489 1205.350812 204.370812 
C 1204.844489 204.877134 1204.56 205.563952 1204.56 206.28 
C 1204.56 206.996048 1204.844489 207.682866 1205.350812 208.189188 
C 1205.857134 208.695511 1206.543952 208.98 1207.26 208.98 
z
" clip-path="url(#p9afda0892e)" style="fill: #2e7d32; stroke: #2e7d32; stroke-width: 2; stroke-linejoin: miter"/>
   </g>
   <g id="patch_15">
    <path d="M 1168.74 181.98 
C 1169.456048 181.98 1170.142866 181.695511 1170.649188 181.189188 
C 1171.155511 180.682866 1171.44 179.996048 1171.44 179.28 
C 1171.44 178.563952 1171.155511 177.877134 1170.649188 177.370812 
C 1170.142866 176.864489 1169.456048 176.58 1168.74 176.58 
C 1168.023952 176.58 1167.337134 176.864489 1166.830812 177.370812 
C 1166.324489 177.877134 1166.04 178.563952 1166.04 179.28 
C 1166.04 179.996048 1166.324489 180.682866 1166.830812 181.189188 
C 1167.337134 181.695511 1168.023952 181.98 1168.74 181.98 
z
" clip-path="url(#p9afda0892e)" style="fill: #1565c0; stroke: #1565c0; stroke-width: 2; stroke-linejoin: miter"/>
   </g>
   <g id="patch_16">
    <path d="M 1459.26 208.98 
C 1459.976048 208.98 1460.662866 208.695511 1461.169188 208.189188 
C 1461.675511 207.682866 1461.96 206.996048 1461.96 206.28 
C 1461.96 205.563952 1461.675511 204.877134 1461.169188 204.370812 
C 1460.662866 203.864489 1459.976048 203.58 1459.26 203.58 
C 1458.543952 203.58 1457.857134 203.864489 1457.350812 204.370812 
C 1456.844489 204.877134 1456.56 205.563952 1456.56 206.28 
C 1456.56 206.996048 1456.844489 207.682866 1457.350812 208.189188 
C 1457.857134 208.695511 1458.543952 208.98 1459.26 208.98 
z
" clip-path="url(#p9afda0892e)" style="fill: #2e7d32; stroke: #2e7d32; stroke-width: 2; stroke-linejoin: miter"/>
   </g>
   <g id="patch_17">
    <path d="M 1420.74 181.98 
C 1421.456048 181.98 1422.142866 181.695511 1422.649188 181.189188 
C 1423.155511 180.682866 1423.44 179.996048 1423.44 179.28 
C 1423.44 178.563952 1423.155511 177.877134 1422.649188 177.370812 
C 1422.142866 176.864489 1421.456048 176.58 1420.74 176.58 
C 1420.023952 176.58 1419.337134 176.864489 1418.830812 177.370812 
C 1418.324489 177.877134 1418.04 178.563952 1418.04 179.28 
C 1418.04 179.996048 1418.324489 180.682866 1418.830812 181.189188 
C 1419.337134 181.695511 1420.023952 181.98 1420.74 181.98 
z
" clip-path="url(#p9afda0892e)" style="fill: #1565c0; stroke: #1565c0; stroke-width: 2; stroke-linejoin: miter"/>
   </g>
  </g>
 </g>
 <defs>
  <clipPath id="p9afda0892e">
   <rect x="0" y="0" width="1519.326" height="342"/>
  </clipPath>
 </defs>
</svg>
