<?xml version="1.0" encoding="utf-8" standalone="no"?>
<!DOCTYPE svg PUBLIC "-//W3C//DTD SVG 1.1//EN"
  "http://www.w3.org/Graphics/SVG/1.1/DTD/svg11.dtd">
<svg xmlns:xlink="http://www.w3.org/1999/xlink" width="1454.526pt" height="369pt" viewBox="0 0 1454.526 369" xmlns="http://www.w3.org/2000/svg" version="1.1">
 <metadata>
  <rdf:RDF xmlns:dc="http://purl.org/dc/elements/1.1/" xmlns:cc="http://creativecommons.org/ns#" xmlns:rdf="http://www.w3.org/1999/02/22-rdf-syntax-ns#">
   <cc:Work>
    <dc:type rdf:resource="http://purl.org/dc/dcmitype/StillImage"/>
    <dc:date>2026-03-15T21:16:58.070188</dc:date>
    <dc:format>image/svg+xml</dc:format>
    <dc:creator>
     <cc:Agent>
      <dc:title>Matplotlib v3.10.8, https://matplotlib.org/</dc:title>
     </cc:Agent>
    </dc:creator>
   </cc:Work>
  </rdf:RDF>
 </metadata>
 <defs>
  <style type="text/css">*{stroke-linejoin: round; stroke-linecap: butt}</style>
 </defs>
 <g id="figure_1">
  <g id="patch_1">
   <path d="M 0 369 
L 1454.526 369 
L 1454.526 0 
L 0 0 
L 0 369 
z
" style="fill: none"/>
  </g>
  <g id="axes_1">
   <g id="patch_2">
    <path d="M 338.420323 93.198319 
C 337.411224 92.495492 336.003342 91.915436 334.330469 91.513274 
C 332.657596 91.111112 330.774455 90.9 328.86 90.9 
C 326.945545 90.9 325.062404 91.111112 323.389531 91.513274 
C 321.716658 91.915436 320.308776 92.495492 319.299677 93.198319 
" clip-path="url(#p5ebeb5db0c)" style="fill: none; stroke: #e65100; stroke-width: 2; stroke-linejoin: miter"/>
   </g>
   <g id="patch_3">
    <path d="M 576.020323 291.198319 
C 575.011224 290.495492 573.603342 289.915436 571.930469 289.513274 
C 570.257596 289.111112 568.374455 288.9 566.46 288.9 
C 564.545545 288.9 562.662404 289.111112 560.989531 289.513274 
C 559.316658 289.915436 557.908776 290.495492 556.899677 291.198319 
" clip-path="url(#p5ebeb5db0c)" style="fill: none; stroke: #c62828; stroke-width: 2; stroke-linejoin: miter"/>
   </g>
   <g id="line2d_1">
    <path d="M 58.86 35.28 
L 743.4 35.28 
L 1427.94 35.28 
" clip-path="url(#p5ebeb5db0c)" style="fill: none; stroke: #e65100; stroke-width: 2; stroke-linecap: round"/>
   </g>
   <g id="line2d_2">
    <path d="M 96.66 143.28 
L 201.06 143.28 
L 201.06 53.28 
L 96.66 53.28 
L 96.66 143.28 
" clip-path="url(#p5ebeb5db0c)" style="fill: none; stroke: #000000; stroke-width: 2; stroke-linecap: round"/>
   </g>
   <g id="line2d_3">
    <path d="M 96.66 98.28 
L 78.66 98.28 
" clip-path="url(#p5ebeb5db0c)" style="fill: none; stroke: #000000; stroke-width: 2; stroke-linecap: round"/>
   </g>
   <g id="line2d_4">
    <path d="M 148.86 53.28 
L 148.86 35.28 
" clip-path="url(#p5ebeb5db0c)" style="fill: none; stroke: #000000; stroke-width: 2; stroke-linecap: round"/>
   </g>
   <g id="line2d_5">
    <path d="M 148.86 143.28 
L 148.86 161.28 
" clip-path="url(#p5ebeb5db0c)" style="fill: none; stroke: #000000; stroke-width: 2; stroke-linecap: round"/>
   </g>
   <g id="line2d_6">
    <path d="M 78.66 98.28 
L 64.26 98.28 
L 49.86 98.28 
" clip-path="url(#p5ebeb5db0c)" style="fill: none; stroke: #212121; stroke-width: 2; stroke-linecap: round"/>
   </g>
   <g id="line2d_7">
    <path d="M 148.86 161.28 
L 148.86 170.28 
L 148.86 179.28 
" clip-path="url(#p5ebeb5db0c)" style="fill: none; stroke: #546e7a; stroke-width: 2; stroke-linecap: round"/>
   </g>
   <g id="line2d_8">
    <path d="M 148.86 179.28 
L 148.86 193.68 
L 139.86 193.68 
L 157.86 193.68 
M 142.56 198 
L 155.16 198 
M 147.06 202.32 
L 150.66 202.32 
" clip-path="url(#p5ebeb5db0c)" style="fill: none; stroke: #546e7a; stroke-width: 2; stroke-linecap: round"/>
   </g>
   <g id="line2d_9">
    <path d="M 328.86 35.28 
L 328.86 86.04 
M 337.86 86.04 
L 319.86 86.04 
M 328.86 92.52 
L 328.86 143.28 
" clip-path="url(#p5ebeb5db0c)" style="fill: none; stroke: #e65100; stroke-width: 2; stroke-linecap: round"/>
   </g>
   <g id="line2d_10">
    <path d="M 328.86 143.28 
L 328.86 157.68 
L 319.86 157.68 
L 337.86 157.68 
M 322.56 162 
L 335.16 162 
M 327.06 166.32 
L 330.66 166.32 
" clip-path="url(#p5ebeb5db0c)" style="fill: none; stroke: #546e7a; stroke-width: 2; stroke-linecap: round"/>
   </g>
   <g id="line2d_11">
    <path d="M 526.86 35.28 
L 526.86 71.28 
L 526.86 107.28 
" clip-path="url(#p5ebeb5db0c)" style="fill: none; stroke: #e65100; stroke-width: 2; stroke-linecap: round"/>
   </g>
   <g id="line2d_12">
    <path d="M 474.66 215.28 
L 579.06 215.28 
L 579.06 125.28 
L 474.66 125.28 
L 474.66 215.28 
" clip-path="url(#p5ebeb5db0c)" style="fill: none; stroke: #000000; stroke-width: 2; stroke-linecap: round"/>
   </g>
   <g id="line2d_13">
    <path d="M 526.86 125.28 
L 526.86 107.28 
" clip-path="url(#p5ebeb5db0c)" style="fill: none; stroke: #000000; stroke-width: 2; stroke-linecap: round"/>
   </g>
   <g id="line2d_14">
    <path d="M 508.86 215.28 
L 508.86 233.28 
" clip-path="url(#p5ebeb5db0c)" style="fill: none; stroke: #000000; stroke-width: 2; stroke-linecap: round"/>
   </g>
   <g id="line2d_15">
    <path d="M 544.86 215.28 
L 544.86 233.28 
" clip-path="url(#p5ebeb5db0c)" style="fill: none; stroke: #000000; stroke-width: 2; stroke-linecap: round"/>
   </g>
   <g id="line2d_16">
    <path d="M 508.86 233.28 
L 508.86 240.48 
L 508.86 247.68 
" clip-path="url(#p5ebeb5db0c)" style="fill: none; stroke: #546e7a; stroke-width: 2; stroke-linecap: round"/>
   </g>
   <g id="line2d_17">
    <path d="M 508.86 247.68 
L 508.86 262.08 
L 499.86 262.08 
L 517.86 262.08 
M 502.56 266.4 
L 515.16 266.4 
M 507.06 270.72 
L 510.66 270.72 
" clip-path="url(#p5ebeb5db0c)" style="fill: none; stroke: #546e7a; stroke-width: 2; stroke-linecap: round"/>
   </g>
   <g id="line2d_18">
    <path d="M 544.86 233.28 
L 555.66 233.28 
L 566.46 233.28 
" clip-path="url(#p5ebeb5db0c)" style="fill: none; stroke: #c62828; stroke-width: 2; stroke-linecap: round"/>
   </g>
   <g id="line2d_19">
    <path d="M 566.46 233.28 
L 602.46 233.28 
L 638.46 233.28 
" clip-path="url(#p5ebeb5db0c)" style="fill: none; stroke: #c62828; stroke-width: 2; stroke-linecap: round"/>
   </g>
   <g id="line2d_20">
    <path d="M 638.46 233.28 
L 683.46 233.28 
L 728.46 233.28 
" clip-path="url(#p5ebeb5db0c)" style="fill: none; stroke: #c62828; stroke-width: 2; stroke-linecap: round"/>
   </g>
   <g id="line2d_21">
    <path d="M 566.46 233.28 
L 566.46 284.04 
M 575.46 284.04 
L 557.46 284.04 
M 566.46 290.52 
L 566.46 341.28 
" clip-path="url(#p5ebeb5db0c)" style="fill: none; stroke: #c62828; stroke-width: 2; stroke-linecap: round"/>
   </g>
   <g id="line2d_22">
    <path d="M 566.46 341.28 
L 566.46 355.68 
L 557.46 355.68 
L 575.46 355.68 
M 560.16 360 
L 572.76 360 
M 564.66 364.32 
L 568.26 364.32 
" clip-path="url(#p5ebeb5db0c)" style="fill: none; stroke: #546e7a; stroke-width: 2; stroke-linecap: round"/>
   </g>
   <g id="line2d_23">
    <path d="M 638.46 233.28 
L 638.46 284.04 
M 647.46 284.04 
L 629.46 284.04 
M 647.46 290.52 
L 629.46 290.52 
M 638.46 290.52 
L 638.46 341.28 
" clip-path="url(#p5ebeb5db0c)" style="fill: none; stroke: #c62828; stroke-width: 2; stroke-linecap: round"/>
   </g>
   <g id="line2d_24">
    <path d="M 638.46 341.28 
L 638.46 355.68 
L 629.46 355.68 
L 647.46 355.68 
M 632.16 360 
L 644.76 360 
M 636.66 364.32 
L 640.26 364.32 
" clip-path="url(#p5ebeb5db0c)" style="fill: none; stroke: #546e7a; stroke-width: 2; stroke-linecap: round"/>
   </g>
   <g id="line2d_25">
    <path d="M 746.46 267.48 
L 861.132 267.48 
L 861.132 166.68 
L 746.46 166.68 
L 746.46 267.48 
" clip-path="url(#p5ebeb5db0c)" style="fill: none; stroke: #000000; stroke-width: 2; stroke-linecap: round"/>
   </g>
   <g id="line2d_26">
    <path d="M 746.46 233.28 
L 728.46 233.28 
" clip-path="url(#p5ebeb5db0c)" style="fill: none; stroke: #000000; stroke-width: 2; stroke-linecap: round"/>
   </g>
   <g id="line2d_27">
    <path d="M 746.46 200.88 
L 728.46 200.88 
" clip-path="url(#p5ebeb5db0c)" style="fill: none; stroke: #000000; stroke-width: 2; stroke-linecap: round"/>
   </g>
   <g id="line2d_28">
    <path d="M 861.132 249.48 
L 879.132 249.48 
" clip-path="url(#p5ebeb5db0c)" style="fill: none; stroke: #000000; stroke-width: 2; stroke-linecap: round"/>
   </g>
   <g id="line2d_29">
    <path d="M 861.132 217.08 
L 879.132 217.08 
" clip-path="url(#p5ebeb5db0c)" style="fill: none; stroke: #000000; stroke-width: 2; stroke-linecap: round"/>
   </g>
   <g id="line2d_30">
    <path d="M 861.132 184.68 
L 879.132 184.68 
" clip-path="url(#p5ebeb5db0c)" style="fill: none; stroke: #000000; stroke-width: 2; stroke-linecap: round"/>
   </g>
   <g id="line2d_31">
    <path d="M 728.46 200.88 
L 719.46 200.88 
L 710.46 200.88 
" clip-path="url(#p5ebeb5db0c)" style="fill: none; stroke: #546e7a; stroke-width: 2; stroke-linecap: round"/>
   </g>
   <g id="line2d_32">
    <path d="M 710.46 200.88 
L 710.46 215.28 
L 701.46 215.28 
L 719.46 215.28 
M 704.16 219.6 
L 716.76 219.6 
M 708.66 223.92 
L 712.26 223.92 
" clip-path="url(#p5ebeb5db0c)" style="fill: none; stroke: #546e7a; stroke-width: 2; stroke-linecap: round"/>
   </g>
   <g id="line2d_33">
    <path d="M 879.132 249.48 
L 888.132 249.48 
L 897.132 249.48 
" clip-path="url(#p5ebeb5db0c)" style="fill: none; stroke: #2e7d32; stroke-width: 2; stroke-linecap: round"/>
   </g>
   <g id="line2d_34">
    <path d="M 879.132 217.08 
L 888.132 217.08 
L 897.132 217.08 
" clip-path="url(#p5ebeb5db0c)" style="fill: none; stroke: #2e7d32; stroke-width: 2; stroke-linecap: round"/>
   </g>
   <g id="line2d_35">
    <path d="M 879.132 184.68 
L 888.132 184.68 
L 897.132 184.68 
" clip-path="url(#p5ebeb5db0c)" style="fill: none; stroke: #2e7d32; stroke-width: 2; stroke-linecap: round"/>
   </g>
   <g id="line2d_36">
    <path d="M 760.86 215.28 
L 766.26 215.28 
L 771.66 215.28 
" clip-path="url(#p5ebeb5db0c)" style="fill: none; stroke: #2e7d32; stroke-width: 2; stroke-linecap: round"/>
   </g>
   <g id="line2d_37">
    <path d="M 771.66 215.28 
L 807.66 215.28 
L 810.66 206.28 
L 816.66 224.28 
L 822.66 206.28 
L 828.66 224.28 
L 834.66 206.28 
L 840.66 224.28 
L 843.66 215.28 
L 879.66 215.28 
" clip-path="url(#p5ebeb5db0c)" style="fill: none; stroke: #2e7d32; stroke-width: 2; stroke-linecap: round"/>
   </g>
   <g id="line2d_38">
    <path d="M 879.66 215.28 
L 885.06 215.28 
L 890.46 215.28 
" clip-path="url(#p5ebeb5db0c)" style="fill: none; stroke: #2e7d32; stroke-width: 2; stroke-linecap: round"/>
   </g>
   <g id="line2d_39">
    <path d="M 890.46 215.28 
L 890.46 251.28 
L 899.46 254.28 
L 881.46 260.28 
L 899.46 266.28 
L 881.46 272.28 
L 899.46 278.28 
L 881.46 284.28 
L 890.46 287.28 
L 890.46 323.28 
" clip-path="url(#p5ebeb5db0c)" style="fill: none; stroke: #546e7a; stroke-width: 2; stroke-linecap: round"/>
   </g>
   <g id="line2d_40">
    <path d="M 890.46 323.28 
L 890.46 337.68 
L 881.46 337.68 
L 899.46 337.68 
M 884.16 342 
L 896.76 342 
M 888.66 346.32 
L 892.26 346.32 
" clip-path="url(#p5ebeb5db0c)" style="fill: none; stroke: #546e7a; stroke-width: 2; stroke-linecap: round"/>
   </g>
   <g id="line2d_41">
    <path d="M 890.46 215.28 
L 895.86 215.28 
L 901.26 215.28 
" clip-path="url(#p5ebeb5db0c)" style="fill: none; stroke: #2e7d32; stroke-width: 2; stroke-linecap: round"/>
   </g>
   <g id="line2d_42">
    <path d="M 852.06 188.28 
L 852.06 203.28 
L 876.06 203.28 
L 876.06 227.28 
L 852.06 227.28 
L 852.06 242.28 
" clip-path="url(#p5ebeb5db0c)" style="fill: none; stroke: #212121; stroke-width: 2; stroke-linecap: round"/>
   </g>
   <g id="line2d_43">
    <path d="M 882.06 203.28 
L 882.06 227.28 
" clip-path="url(#p5ebeb5db0c)" style="fill: none; stroke: #212121; stroke-width: 2; stroke-linecap: round"/>
   </g>
   <g id="line2d_44">
    <path d="M 882.06 215.28 
L 901.26 215.28 
" clip-path="url(#p5ebeb5db0c)" style="fill: none; stroke: #212121; stroke-width: 2; stroke-linecap: round"/>
   </g>
   <g id="line2d_45">
    <path d="M 851.94 35.28 
L 851.94 111.78 
L 851.94 188.28 
" clip-path="url(#p5ebeb5db0c)" style="fill: none; stroke: #1565c0; stroke-width: 2; stroke-linecap: round"/>
   </g>
   <g id="line2d_46">
    <path d="M 851.94 242.28 
L 851.94 253.08 
L 851.94 263.88 
" clip-path="url(#p5ebeb5db0c)" style="fill: none; stroke: #546e7a; stroke-width: 2; stroke-linecap: round"/>
   </g>
   <g id="line2d_47">
    <path d="M 851.94 263.88 
L 851.94 278.28 
L 842.94 278.28 
L 860.94 278.28 
M 845.64 282.6 
L 858.24 282.6 
M 850.14 286.92 
L 853.74 286.92 
" clip-path="url(#p5ebeb5db0c)" style="fill: none; stroke: #546e7a; stroke-width: 2; stroke-linecap: round"/>
   </g>
   <g id="line2d_48">
    <path d="M 1012.86 215.28 
L 1018.26 215.28 
L 1023.66 215.28 
" clip-path="url(#p5ebeb5db0c)" style="fill: none; stroke: #2e7d32; stroke-width: 2; stroke-linecap: round"/>
   </g>
   <g id="line2d_49">
    <path d="M 1023.66 215.28 
L 1059.66 215.28 
L 1062.66 206.28 
L 1068.66 224.28 
L 1074.66 206.28 
L 1080.66 224.28 
L 1086.66 206.28 
L 1092.66 224.28 
L 1095.66 215.28 
L 1131.66 215.28 
" clip-path="url(#p5ebeb5db0c)" style="fill: none; stroke: #2e7d32; stroke-width: 2; stroke-linecap: round"/>
   </g>
   <g id="line2d_50">
    <path d="M 1131.66 215.28 
L 1137.06 215.28 
L 1142.46 215.28 
" clip-path="url(#p5ebeb5db0c)" style="fill: none; stroke: #2e7d32; stroke-width: 2; stroke-linecap: round"/>
   </g>
   <g id="line2d_51">
    <path d="M 1142.46 215.28 
L 1142.46 251.28 
L 1151.46 254.28 
L 1133.46 260.28 
L 1151.46 266.28 
L 1133.46 272.28 
L 1151.46 278.28 
L 1133.46 284.28 
L 1142.46 287.28 
L 1142.46 323.28 
" clip-path="url(#p5ebeb5db0c)" style="fill: none; stroke: #546e7a; stroke-width: 2; stroke-linecap: round"/>
   </g>
   <g id="line2d_52">
    <path d="M 1142.46 323.28 
L 1142.46 337.68 
L 1133.46 337.68 
L 1151.46 337.68 
M 1136.16 342 
L 1148.76 342 
M 1140.66 346.32 
L 1144.26 346.32 
" clip-path="url(#p5ebeb5db0c)" style="fill: none; stroke: #546e7a; stroke-width: 2; stroke-linecap: round"/>
   </g>
   <g id="line2d_53">
    <path d="M 1142.46 215.28 
L 1147.86 215.28 
L 1153.26 215.28 
" clip-path="url(#p5ebeb5db0c)" style="fill: none; stroke: #2e7d32; stroke-width: 2; stroke-linecap: round"/>
   </g>
   <g id="line2d_54">
    <path d="M 1104.06 188.28 
L 1104.06 203.28 
L 1128.06 203.28 
L 1128.06 227.28 
L 1104.06 227.28 
L 1104.06 242.28 
" clip-path="url(#p5ebeb5db0c)" style="fill: none; stroke: #212121; stroke-width: 2; stroke-linecap: round"/>
   </g>
   <g id="line2d_55">
    <path d="M 1134.06 203.28 
L 1134.06 227.28 
" clip-path="url(#p5ebeb5db0c)" style="fill: none; stroke: #212121; stroke-width: 2; stroke-linecap: round"/>
   </g>
   <g id="line2d_56">
    <path d="M 1134.06 215.28 
L 1153.26 215.28 
" clip-path="url(#p5ebeb5db0c)" style="fill: none; stroke: #212121; stroke-width: 2; stroke-linecap: round"/>
   </g>
   <g id="line2d_57">
    <path d="M 1103.94 35.28 
L 1103.94 111.78 
L 1103.94 188.28 
" clip-path="url(#p5ebeb5db0c)" style="fill: none; stroke: #1565c0; stroke-width: 2; stroke-linecap: round"/>
   </g>
   <g id="line2d_58">
    <path d="M 1103.94 242.28 
L 1103.94 253.08 
L 1103.94 263.88 
" clip-path="url(#p5ebeb5db0c)" style="fill: none; stroke: #546e7a; stroke-width: 2; stroke-linecap: round"/>
   </g>
   <g id="line2d_59">
    <path d="M 1103.94 263.88 
L 1103.94 278.28 
L 1094.94 278.28 
L 1112.94 278.28 
M 1097.64 282.6 
L 1110.24 282.6 
M 1102.14 286.92 
L 1105.74 286.92 
" clip-path="url(#p5ebeb5db0c)" style="fill: none; stroke: #546e7a; stroke-width: 2; stroke-linecap: round"/>
   </g>
   <g id="line2d_60">
    <path d="M 1264.86 215.28 
L 1270.26 215.28 
L 1275.66 215.28 
" clip-path="url(#p5ebeb5db0c)" style="fill: none; stroke: #2e7d32; stroke-width: 2; stroke-linecap: round"/>
   </g>
   <g id="line2d_61">
    <path d="M 1275.66 215.28 
L 1311.66 215.28 
L 1314.66 206.28 
L 1320.66 224.28 
L 1326.66 206.28 
L 1332.66 224.28 
L 1338.66 206.28 
L 1344.66 224.28 
L 1347.66 215.28 
L 1383.66 215.28 
" clip-path="url(#p5ebeb5db0c)" style="fill: none; stroke: #2e7d32; stroke-width: 2; stroke-linecap: round"/>
   </g>
   <g id="line2d_62">
    <path d="M 1383.66 215.28 
L 1389.06 215.28 
L 1394.46 215.28 
" clip-path="url(#p5ebeb5db0c)" style="fill: none; stroke: #2e7d32; stroke-width: 2; stroke-linecap: round"/>
   </g>
   <g id="line2d_63">
    <path d="M 1394.46 215.28 
L 1394.46 251.28 
L 1403.46 254.28 
L 1385.46 260.28 
L 1403.46 266.28 
L 1385.46 272.28 
L 1403.46 278.28 
L 1385.46 284.28 
L 1394.46 287.28 
L 1394.46 323.28 
" clip-path="url(#p5ebeb5db0c)" style="fill: none; stroke: #546e7a; stroke-width: 2; stroke-linecap: round"/>
   </g>
   <g id="line2d_64">
    <path d="M 1394.46 323.28 
L 1394.46 337.68 
L 1385.46 337.68 
L 1403.46 337.68 
M 1388.16 342 
L 1400.76 342 
M 1392.66 346.32 
L 1396.26 346.32 
" clip-path="url(#p5ebeb5db0c)" style="fill: none; stroke: #546e7a; stroke-width: 2; stroke-linecap: round"/>
   </g>
   <g id="line2d_65">
    <path d="M 1394.46 215.28 
L 1399.86 215.28 
L 1405.26 215.28 
" clip-path="url(#p5ebeb5db0c)" style="fill: none; stroke: #2e7d32; stroke-width: 2; stroke-linecap: round"/>
   </g>
   <g id="line2d_66">
    <path d="M 1356.06 188.28 
L 1356.06 203.28 
L 1380.06 203.28 
L 1380.06 227.28 
L 1356.06 227.28 
L 1356.06 242.28 
" clip-path="url(#p5ebeb5db0c)" style="fill: none; stroke: #212121; stroke-width: 2; stroke-linecap: round"/>
   </g>
   <g id="line2d_67">
    <path d="M 1386.06 203.28 
L 1386.06 227.28 
" clip-path="url(#p5ebeb5db0c)" style="fill: none; stroke: #212121; stroke-width: 2; stroke-linecap: round"/>
   </g>
   <g id="line2d_68">
    <path d="M 1386.06 215.28 
L 1405.26 215.28 
" clip-path="url(#p5ebeb5db0c)" style="fill: none; stroke: #212121; stroke-width: 2; stroke-linecap: round"/>
   </g>
   <g id="line2d_69">
    <path d="M 1355.94 35.28 
L 1355.94 111.78 
L 1355.94 188.28 
" clip-path="url(#p5ebeb5db0c)" style="fill: none; stroke: #1565c0; stroke-width: 2; stroke-linecap: round"/>
   </g>
   <g id="line2d_70">
    <path d="M 1355.94 242.28 
L 1355.94 253.08 
L 1355.94 263.88 
" clip-path="url(#p5ebeb5db0c)" style="fill: none; stroke: #546e7a; stroke-width: 2; stroke-linecap: round"/>
   </g>
   <g id="line2d_71">
    <path d="M 1355.94 263.88 
L 1355.94 278.28 
L 1346.94 278.28 
L 1364.94 278.28 
M 1349.64 282.6 
L 1362.24 282.6 
M 1354.14 286.92 
L 1357.74 286.92 
" clip-path="url(#p5ebeb5db0c)" style="fill: none; stroke: #546e7a; stroke-width: 2; stroke-linecap: round"/>
   </g>
   <g id="text_1">
    <!-- 12 V -->
    <g style="fill: #e65100" transform="translate(1431.54 34.163438) scale(0.09 -0.09)">
     <defs>
      <path id="DejaVuSans-31" d="M 794 531 
L 1825 531 
L 1825 4091 
L 703 3866 
L 703 4441 
L 1819 4666 
L 2450 4666 
L 2450 531 
L 3481 531 
L 3481 0 
L 794 0 
L 794 531 
z
" transform="scale(0.015625)"/>
      <path id="DejaVuSans-32" d="M 1228 531 
L 3431 531 
L 3431 0 
L 469 0 
L 469 531 
Q 828 903 1448 1529 
Q 2069 2156 2228 2338 
Q 2531 2678 2651 2914 
Q 2772 3150 2772 3378 
Q 2772 3750 2511 3984 
Q 2250 4219 1831 4219 
Q 1534 4219 1204 4116 
Q 875 4013 500 3803 
L 500 4441 
Q 881 4594 1212 4672 
Q 1544 4750 1819 4750 
Q 2544 4750 2975 4387 
Q 3406 4025 3406 3419 
Q 3406 3131 3298 2873 
Q 3191 2616 2906 2266 
Q 2828 2175 2409 1742 
Q 1991 1309 1228 531 
z
" transform="scale(0.015625)"/>
      <path id="DejaVuSans-20" transform="scale(0.015625)"/>
      <path id="DejaVuSans-56" d="M 1831 0 
L 50 4666 
L 709 4666 
L 2188 738 
L 3669 4666 
L 4325 4666 
L 2547 0 
L 1831 0 
z
" transform="scale(0.015625)"/>
     </defs>
     <use xlink:href="#DejaVuSans-31"/>
     <use xlink:href="#DejaVuSans-32" transform="translate(63.623047 0)"/>
     <use xlink:href="#DejaVuSans-20" transform="translate(127.246094 0)"/>
     <use xlink:href="#DejaVuSans-56" transform="translate(159.033203 0)"/>
    </g>
   </g>
   <g id="text_2">
    <!-- A -->
    <g transform="translate(86.435312 93.292344) scale(0.11 -0.11)">
     <defs>
      <path id="DejaVuSans-41" d="M 2188 4044 
L 1331 1722 
L 3047 1722 
L 2188 4044 
z
M 1831 4666 
L 2547 4666 
L 4325 0 
L 3669 0 
L 3244 1197 
L 1141 1197 
L 716 0 
L 50 0 
L 1831 4666 
z
" transform="scale(0.015625)"/>
     </defs>
     <use xlink:href="#DejaVuSans-41"/>
    </g>
   </g>
   <g id="text_3">
    <!-- USB -->
    <g transform="translate(102.06 102.143125) scale(0.14 -0.14)">
     <defs>
      <path id="DejaVuSans-55" d="M 556 4666 
L 1191 4666 
L 1191 1831 
Q 1191 1081 1462 751 
Q 1734 422 2344 422 
Q 2950 422 3222 751 
Q 3494 1081 3494 1831 
L 3494 4666 
L 4128 4666 
L 4128 1753 
Q 4128 841 3676 375 
Q 3225 -91 2344 -91 
Q 1459 -91 1007 375 
Q 556 841 556 1753 
L 556 4666 
z
" transform="scale(0.015625)"/>
      <path id="DejaVuSans-53" d="M 3425 4513 
L 3425 3897 
Q 3066 4069 2747 4153 
Q 2428 4238 2131 4238 
Q 1616 4238 1336 4038 
Q 1056 3838 1056 3469 
Q 1056 3159 1242 3001 
Q 1428 2844 1947 2747 
L 2328 2669 
Q 3034 2534 3370 2195 
Q 3706 1856 3706 1288 
Q 3706 609 3251 259 
Q 2797 -91 1919 -91 
Q 1588 -91 1214 -16 
Q 841 59 441 206 
L 441 856 
Q 825 641 1194 531 
Q 1563 422 1919 422 
Q 2459 422 2753 634 
Q 3047 847 3047 1241 
Q 3047 1584 2836 1778 
Q 2625 1972 2144 2069 
L 1759 2144 
Q 1053 2284 737 2584 
Q 422 2884 422 3419 
Q 422 4038 858 4394 
Q 1294 4750 2059 4750 
Q 2388 4750 2728 4690 
Q 3069 4631 3425 4513 
z
" transform="scale(0.015625)"/>
      <path id="DejaVuSans-42" d="M 1259 2228 
L 1259 519 
L 2272 519 
Q 2781 519 3026 730 
Q 3272 941 3272 1375 
Q 3272 1813 3026 2020 
Q 2781 2228 2272 2228 
L 1259 2228 
z
M 1259 4147 
L 1259 2741 
L 2194 2741 
Q 2656 2741 2882 2914 
Q 3109 3088 3109 3444 
Q 3109 3797 2882 3972 
Q 2656 4147 2194 4147 
L 1259 4147 
z
M 628 4666 
L 2241 4666 
Q 2963 4666 3353 4366 
Q 3744 4066 3744 3513 
Q 3744 3084 3544 2831 
Q 3344 2578 2956 2516 
Q 3422 2416 3680 2098 
Q 3938 1781 3938 1306 
Q 3938 681 3513 340 
Q 3088 0 2303 0 
L 628 0 
L 628 4666 
z
" transform="scale(0.015625)"/>
     </defs>
     <use xlink:href="#DejaVuSans-55"/>
     <use xlink:href="#DejaVuSans-53" transform="translate(73.193359 0)"/>
     <use xlink:href="#DejaVuSans-42" transform="translate(136.669922 0)"/>
    </g>
   </g>
   <g id="text_4">
    <!-- 1 -->
    <g transform="translate(151.56 48.292344) scale(0.11 -0.11)">
     <use xlink:href="#DejaVuSans-31"/>
    </g>
   </g>
   <g id="text_5">
    <!-- VOUT -->
    <g transform="translate(129.285156 69.317813) scale(0.14 -0.14)">
     <defs>
      <path id="DejaVuSans-4f" d="M 2522 4238 
Q 1834 4238 1429 3725 
Q 1025 3213 1025 2328 
Q 1025 1447 1429 934 
Q 1834 422 2522 422 
Q 3209 422 3611 934 
Q 4013 1447 4013 2328 
Q 4013 3213 3611 3725 
Q 3209 4238 2522 4238 
z
M 2522 4750 
Q 3503 4750 4090 4092 
Q 4678 3434 4678 2328 
Q 4678 1225 4090 567 
Q 3503 -91 2522 -91 
Q 1538 -91 948 565 
Q 359 1222 359 2328 
Q 359 3434 948 4092 
Q 1538 4750 2522 4750 
z
" transform="scale(0.015625)"/>
      <path id="DejaVuSans-54" d="M -19 4666 
L 3928 4666 
L 3928 4134 
L 2272 4134 
L 2272 0 
L 1638 0 
L 1638 4134 
L -19 4134 
L -19 4666 
z
" transform="scale(0.015625)"/>
     </defs>
     <use xlink:href="#DejaVuSans-56"/>
     <use xlink:href="#DejaVuSans-4f" transform="translate(66.658203 0)"/>
     <use xlink:href="#DejaVuSans-55" transform="translate(145.369141 0)"/>
     <use xlink:href="#DejaVuSans-54" transform="translate(218.5625 0)"/>
    </g>
   </g>
   <g id="text_6">
    <!-- 2 -->
    <g transform="translate(151.56 154.338281) scale(0.11 -0.11)">
     <use xlink:href="#DejaVuSans-32"/>
    </g>
   </g>
   <g id="text_7">
    <!-- GND -->
    <g transform="translate(132.809219 134.968437) scale(0.14 -0.14)">
     <defs>
      <path id="DejaVuSans-47" d="M 3809 666 
L 3809 1919 
L 2778 1919 
L 2778 2438 
L 4434 2438 
L 4434 434 
Q 4069 175 3628 42 
Q 3188 -91 2688 -91 
Q 1594 -91 976 548 
Q 359 1188 359 2328 
Q 359 3472 976 4111 
Q 1594 4750 2688 4750 
Q 3144 4750 3555 4637 
Q 3966 4525 4313 4306 
L 4313 3634 
Q 3963 3931 3569 4081 
Q 3175 4231 2741 4231 
Q 1884 4231 1454 3753 
Q 1025 3275 1025 2328 
Q 1025 1384 1454 906 
Q 1884 428 2741 428 
Q 3075 428 3337 486 
Q 3600 544 3809 666 
z
" transform="scale(0.015625)"/>
      <path id="DejaVuSans-4e" d="M 628 4666 
L 1478 4666 
L 3547 763 
L 3547 4666 
L 4159 4666 
L 4159 0 
L 3309 0 
L 1241 3903 
L 1241 0 
L 628 0 
L 628 4666 
z
" transform="scale(0.015625)"/>
      <path id="DejaVuSans-44" d="M 1259 4147 
L 1259 519 
L 2022 519 
Q 2988 519 3436 956 
Q 3884 1394 3884 2338 
Q 3884 3275 3436 3711 
Q 2988 4147 2022 4147 
L 1259 4147 
z
M 628 4666 
L 1925 4666 
Q 3281 4666 3915 4102 
Q 4550 3538 4550 2338 
Q 4550 1131 3912 565 
Q 3275 0 1925 0 
L 628 0 
L 628 4666 
z
" transform="scale(0.015625)"/>
     </defs>
     <use xlink:href="#DejaVuSans-47"/>
     <use xlink:href="#DejaVuSans-4e" transform="translate(77.490234 0)"/>
     <use xlink:href="#DejaVuSans-44" transform="translate(152.294922 0)"/>
    </g>
   </g>
   <g id="text_8">
    <!-- U1 -->
    <g transform="translate(146.303438 88.453125) scale(0.09 -0.09)">
     <use xlink:href="#DejaVuSans-55"/>
     <use xlink:href="#DejaVuSans-31" transform="translate(73.193359 0)"/>
    </g>
    <!-- Hailege H-1-1765 -->
    <g transform="translate(113.046328 97.163438) scale(0.09 -0.09)">
     <defs>
      <path id="DejaVuSans-48" d="M 628 4666 
L 1259 4666 
L 1259 2753 
L 3553 2753 
L 3553 4666 
L 4184 4666 
L 4184 0 
L 3553 0 
L 3553 2222 
L 1259 2222 
L 1259 0 
L 628 0 
L 628 4666 
z
" transform="scale(0.015625)"/>
      <path id="DejaVuSans-61" d="M 2194 1759 
Q 1497 1759 1228 1600 
Q 959 1441 959 1056 
Q 959 750 1161 570 
Q 1363 391 1709 391 
Q 2188 391 2477 730 
Q 2766 1069 2766 1631 
L 2766 1759 
L 2194 1759 
z
M 3341 1997 
L 3341 0 
L 2766 0 
L 2766 531 
Q 2569 213 2275 61 
Q 1981 -91 1556 -91 
Q 1019 -91 701 211 
Q 384 513 384 1019 
Q 384 1609 779 1909 
Q 1175 2209 1959 2209 
L 2766 2209 
L 2766 2266 
Q 2766 2663 2505 2880 
Q 2244 3097 1772 3097 
Q 1472 3097 1187 3025 
Q 903 2953 641 2809 
L 641 3341 
Q 956 3463 1253 3523 
Q 1550 3584 1831 3584 
Q 2591 3584 2966 3190 
Q 3341 2797 3341 1997 
z
" transform="scale(0.015625)"/>
      <path id="DejaVuSans-69" d="M 603 3500 
L 1178 3500 
L 1178 0 
L 603 0 
L 603 3500 
z
M 603 4863 
L 1178 4863 
L 1178 4134 
L 603 4134 
L 603 4863 
z
" transform="scale(0.015625)"/>
      <path id="DejaVuSans-6c" d="M 603 4863 
L 1178 4863 
L 1178 0 
L 603 0 
L 603 4863 
z
" transform="scale(0.015625)"/>
      <path id="DejaVuSans-65" d="M 3597 1894 
L 3597 1613 
L 953 1613 
Q 991 1019 1311 708 
Q 1631 397 2203 397 
Q 2534 397 2845 478 
Q 3156 559 3463 722 
L 3463 178 
Q 3153 47 2828 -22 
Q 2503 -91 2169 -91 
Q 1331 -91 842 396 
Q 353 884 353 1716 
Q 353 2575 817 3079 
Q 1281 3584 2069 3584 
Q 2775 3584 3186 3129 
Q 3597 2675 3597 1894 
z
M 3022 2063 
Q 3016 2534 2758 2815 
Q 2500 3097 2075 3097 
Q 1594 3097 1305 2825 
Q 1016 2553 972 2059 
L 3022 2063 
z
" transform="scale(0.015625)"/>
      <path id="DejaVuSans-67" d="M 2906 1791 
Q 2906 2416 2648 2759 
Q 2391 3103 1925 3103 
Q 1463 3103 1205 2759 
Q 947 2416 947 1791 
Q 947 1169 1205 825 
Q 1463 481 1925 481 
Q 2391 481 2648 825 
Q 2906 1169 2906 1791 
z
M 3481 434 
Q 3481 -459 3084 -895 
Q 2688 -1331 1869 -1331 
Q 1566 -1331 1297 -1286 
Q 1028 -1241 775 -1147 
L 775 -588 
Q 1028 -725 1275 -790 
Q 1522 -856 1778 -856 
Q 2344 -856 2625 -561 
Q 2906 -266 2906 331 
L 2906 616 
Q 2728 306 2450 153 
Q 2172 0 1784 0 
Q 1141 0 747 490 
Q 353 981 353 1791 
Q 353 2603 747 3093 
Q 1141 3584 1784 3584 
Q 2172 3584 2450 3431 
Q 2728 3278 2906 2969 
L 2906 3500 
L 3481 3500 
L 3481 434 
z
" transform="scale(0.015625)"/>
      <path id="DejaVuSans-2d" d="M 313 2009 
L 1997 2009 
L 1997 1497 
L 313 1497 
L 313 2009 
z
" transform="scale(0.015625)"/>
      <path id="DejaVuSans-37" d="M 525 4666 
L 3525 4666 
L 3525 4397 
L 1831 0 
L 1172 0 
L 2766 4134 
L 525 4134 
L 525 4666 
z
" transform="scale(0.015625)"/>
      <path id="DejaVuSans-36" d="M 2113 2584 
Q 1688 2584 1439 2293 
Q 1191 2003 1191 1497 
Q 1191 994 1439 701 
Q 1688 409 2113 409 
Q 2538 409 2786 701 
Q 3034 994 3034 1497 
Q 3034 2003 2786 2293 
Q 2538 2584 2113 2584 
z
M 3366 4563 
L 3366 3988 
Q 3128 4100 2886 4159 
Q 2644 4219 2406 4219 
Q 1781 4219 1451 3797 
Q 1122 3375 1075 2522 
Q 1259 2794 1537 2939 
Q 1816 3084 2150 3084 
Q 2853 3084 3261 2657 
Q 3669 2231 3669 1497 
Q 3669 778 3244 343 
Q 2819 -91 2113 -91 
Q 1303 -91 875 529 
Q 447 1150 447 2328 
Q 447 3434 972 4092 
Q 1497 4750 2381 4750 
Q 2619 4750 2861 4703 
Q 3103 4656 3366 4563 
z
" transform="scale(0.015625)"/>
      <path id="DejaVuSans-35" d="M 691 4666 
L 3169 4666 
L 3169 4134 
L 1269 4134 
L 1269 2991 
Q 1406 3038 1543 3061 
Q 1681 3084 1819 3084 
Q 2600 3084 3056 2656 
Q 3513 2228 3513 1497 
Q 3513 744 3044 326 
Q 2575 -91 1722 -91 
Q 1428 -91 1123 -41 
Q 819 9 494 109 
L 494 744 
Q 775 591 1075 516 
Q 1375 441 1709 441 
Q 2250 441 2565 725 
Q 2881 1009 2881 1497 
Q 2881 1984 2565 2268 
Q 2250 2553 1709 2553 
Q 1456 2553 1204 2497 
Q 953 2441 691 2322 
L 691 4666 
z
" transform="scale(0.015625)"/>
     </defs>
     <use xlink:href="#DejaVuSans-48"/>
     <use xlink:href="#DejaVuSans-61" transform="translate(75.195312 0)"/>
     <use xlink:href="#DejaVuSans-69" transform="translate(136.474609 0)"/>
     <use xlink:href="#DejaVuSans-6c" transform="translate(164.257812 0)"/>
     <use xlink:href="#DejaVuSans-65" transform="translate(192.041016 0)"/>
     <use xlink:href="#DejaVuSans-67" transform="translate(253.564453 0)"/>
     <use xlink:href="#DejaVuSans-65" transform="translate(317.041016 0)"/>
     <use xlink:href="#DejaVuSans-20" transform="translate(378.564453 0)"/>
     <use xlink:href="#DejaVuSans-48" transform="translate(410.351562 0)"/>
     <use xlink:href="#DejaVuSans-2d" transform="translate(485.546875 0)"/>
     <use xlink:href="#DejaVuSans-31" transform="translate(521.630859 0)"/>
     <use xlink:href="#DejaVuSans-2d" transform="translate(585.253906 0)"/>
     <use xlink:href="#DejaVuSans-31" transform="translate(621.337891 0)"/>
     <use xlink:href="#DejaVuSans-37" transform="translate(684.960938 0)"/>
     <use xlink:href="#DejaVuSans-36" transform="translate(748.583984 0)"/>
     <use xlink:href="#DejaVuSans-35" transform="translate(812.207031 0)"/>
    </g>
    <!-- (USB-C PD → 12 V) -->
    <g transform="translate(110.470781 105.87375) scale(0.09 -0.09)">
     <defs>
      <path id="DejaVuSans-28" d="M 1984 4856 
Q 1566 4138 1362 3434 
Q 1159 2731 1159 2009 
Q 1159 1288 1364 580 
Q 1569 -128 1984 -844 
L 1484 -844 
Q 1016 -109 783 600 
Q 550 1309 550 2009 
Q 550 2706 781 3412 
Q 1013 4119 1484 4856 
L 1984 4856 
z
" transform="scale(0.015625)"/>
      <path id="DejaVuSans-43" d="M 4122 4306 
L 4122 3641 
Q 3803 3938 3442 4084 
Q 3081 4231 2675 4231 
Q 1875 4231 1450 3742 
Q 1025 3253 1025 2328 
Q 1025 1406 1450 917 
Q 1875 428 2675 428 
Q 3081 428 3442 575 
Q 3803 722 4122 1019 
L 4122 359 
Q 3791 134 3420 21 
Q 3050 -91 2638 -91 
Q 1578 -91 968 557 
Q 359 1206 359 2328 
Q 359 3453 968 4101 
Q 1578 4750 2638 4750 
Q 3056 4750 3426 4639 
Q 3797 4528 4122 4306 
z
" transform="scale(0.015625)"/>
      <path id="DejaVuSans-50" d="M 1259 4147 
L 1259 2394 
L 2053 2394 
Q 2494 2394 2734 2622 
Q 2975 2850 2975 3272 
Q 2975 3691 2734 3919 
Q 2494 4147 2053 4147 
L 1259 4147 
z
M 628 4666 
L 2053 4666 
Q 2838 4666 3239 4311 
Q 3641 3956 3641 3272 
Q 3641 2581 3239 2228 
Q 2838 1875 2053 1875 
L 1259 1875 
L 1259 0 
L 628 0 
L 628 4666 
z
" transform="scale(0.015625)"/>
      <path id="DejaVuSans-2192" d="M 5050 2147 
L 5050 1866 
L 3822 638 
L 3447 1013 
L 4175 1741 
L 366 1741 
L 366 2272 
L 4175 2272 
L 3447 3000 
L 3822 3375 
L 5050 2147 
z
" transform="scale(0.015625)"/>
      <path id="DejaVuSans-29" d="M 513 4856 
L 1013 4856 
Q 1481 4119 1714 3412 
Q 1947 2706 1947 2009 
Q 1947 1309 1714 600 
Q 1481 -109 1013 -844 
L 513 -844 
Q 928 -128 1133 580 
Q 1338 1288 1338 2009 
Q 1338 2731 1133 3434 
Q 928 4138 513 4856 
z
" transform="scale(0.015625)"/>
     </defs>
     <use xlink:href="#DejaVuSans-28"/>
     <use xlink:href="#DejaVuSans-55" transform="translate(39.013672 0)"/>
     <use xlink:href="#DejaVuSans-53" transform="translate(112.207031 0)"/>
     <use xlink:href="#DejaVuSans-42" transform="translate(175.683594 0)"/>
     <use xlink:href="#DejaVuSans-2d" transform="translate(244.287109 0)"/>
     <use xlink:href="#DejaVuSans-43" transform="translate(280.371094 0)"/>
     <use xlink:href="#DejaVuSans-20" transform="translate(350.195312 0)"/>
     <use xlink:href="#DejaVuSans-50" transform="translate(381.982422 0)"/>
     <use xlink:href="#DejaVuSans-44" transform="translate(442.285156 0)"/>
     <use xlink:href="#DejaVuSans-20" transform="translate(519.287109 0)"/>
     <use xlink:href="#DejaVuSans-2192" transform="translate(551.074219 0)"/>
     <use xlink:href="#DejaVuSans-20" transform="translate(634.863281 0)"/>
     <use xlink:href="#DejaVuSans-31" transform="translate(666.650391 0)"/>
     <use xlink:href="#DejaVuSans-32" transform="translate(730.273438 0)"/>
     <use xlink:href="#DejaVuSans-20" transform="translate(793.896484 0)"/>
     <use xlink:href="#DejaVuSans-56" transform="translate(825.683594 0)"/>
     <use xlink:href="#DejaVuSans-29" transform="translate(894.091797 0)"/>
    </g>
   </g>
   <g id="text_9">
    <!-- USB-C -->
    <g transform="translate(18.253125 100.008281) scale(0.09 -0.09)">
     <use xlink:href="#DejaVuSans-55"/>
     <use xlink:href="#DejaVuSans-53" transform="translate(73.193359 0)"/>
     <use xlink:href="#DejaVuSans-42" transform="translate(136.669922 0)"/>
     <use xlink:href="#DejaVuSans-2d" transform="translate(205.273438 0)"/>
     <use xlink:href="#DejaVuSans-43" transform="translate(241.357422 0)"/>
    </g>
    <!-- 5–20 V PD -->
    <g transform="translate(0.347344 108.718594) scale(0.09 -0.09)">
     <defs>
      <path id="DejaVuSans-2013" d="M 313 1978 
L 2888 1978 
L 2888 1528 
L 313 1528 
L 313 1978 
z
" transform="scale(0.015625)"/>
      <path id="DejaVuSans-30" d="M 2034 4250 
Q 1547 4250 1301 3770 
Q 1056 3291 1056 2328 
Q 1056 1369 1301 889 
Q 1547 409 2034 409 
Q 2525 409 2770 889 
Q 3016 1369 3016 2328 
Q 3016 3291 2770 3770 
Q 2525 4250 2034 4250 
z
M 2034 4750 
Q 2819 4750 3233 4129 
Q 3647 3509 3647 2328 
Q 3647 1150 3233 529 
Q 2819 -91 2034 -91 
Q 1250 -91 836 529 
Q 422 1150 422 2328 
Q 422 3509 836 4129 
Q 1250 4750 2034 4750 
z
" transform="scale(0.015625)"/>
     </defs>
     <use xlink:href="#DejaVuSans-35"/>
     <use xlink:href="#DejaVuSans-2013" transform="translate(63.623047 0)"/>
     <use xlink:href="#DejaVuSans-32" transform="translate(113.623047 0)"/>
     <use xlink:href="#DejaVuSans-30" transform="translate(177.246094 0)"/>
     <use xlink:href="#DejaVuSans-20" transform="translate(240.869141 0)"/>
     <use xlink:href="#DejaVuSans-56" transform="translate(272.65625 0)"/>
     <use xlink:href="#DejaVuSans-20" transform="translate(341.064453 0)"/>
     <use xlink:href="#DejaVuSans-50" transform="translate(372.851562 0)"/>
     <use xlink:href="#DejaVuSans-44" transform="translate(433.154297 0)"/>
    </g>
   </g>
   <g id="text_10">
    <!-- C1 -->
    <g style="fill: #e65100" transform="translate(322.854609 12.387656) scale(0.09 -0.09)">
     <use xlink:href="#DejaVuSans-43"/>
     <use xlink:href="#DejaVuSans-31" transform="translate(69.824219 0)"/>
    </g>
    <!-- 1000 µF -->
    <g style="fill: #e65100" transform="translate(310.526016 21.097969) scale(0.09 -0.09)">
     <defs>
      <path id="DejaVuSans-b5" d="M 544 -1331 
L 544 3500 
L 1119 3500 
L 1119 1325 
Q 1119 872 1334 640 
Q 1550 409 1972 409 
Q 2434 409 2667 671 
Q 2900 934 2900 1459 
L 2900 3500 
L 3475 3500 
L 3475 806 
Q 3475 619 3529 530 
Q 3584 441 3700 441 
Q 3728 441 3778 458 
Q 3828 475 3916 513 
L 3916 50 
Q 3788 -22 3673 -56 
Q 3559 -91 3450 -91 
Q 3234 -91 3106 31 
Q 2978 153 2931 403 
Q 2775 156 2548 32 
Q 2322 -91 2016 -91 
Q 1697 -91 1473 31 
Q 1250 153 1119 397 
L 1119 -1331 
L 544 -1331 
z
" transform="scale(0.015625)"/>
      <path id="DejaVuSans-46" d="M 628 4666 
L 3309 4666 
L 3309 4134 
L 1259 4134 
L 1259 2759 
L 3109 2759 
L 3109 2228 
L 1259 2228 
L 1259 0 
L 628 0 
L 628 4666 
z
" transform="scale(0.015625)"/>
     </defs>
     <use xlink:href="#DejaVuSans-31"/>
     <use xlink:href="#DejaVuSans-30" transform="translate(63.623047 0)"/>
     <use xlink:href="#DejaVuSans-30" transform="translate(127.246094 0)"/>
     <use xlink:href="#DejaVuSans-30" transform="translate(190.869141 0)"/>
     <use xlink:href="#DejaVuSans-20" transform="translate(254.492188 0)"/>
     <use xlink:href="#DejaVuSans-b5" transform="translate(286.279297 0)"/>
     <use xlink:href="#DejaVuSans-46" transform="translate(349.902344 0)"/>
    </g>
    <!-- 25 V -->
    <g style="fill: #e65100" transform="translate(318.625313 29.808281) scale(0.09 -0.09)">
     <use xlink:href="#DejaVuSans-32"/>
     <use xlink:href="#DejaVuSans-35" transform="translate(63.623047 0)"/>
     <use xlink:href="#DejaVuSans-20" transform="translate(127.246094 0)"/>
     <use xlink:href="#DejaVuSans-56" transform="translate(159.033203 0)"/>
    </g>
   </g>
   <g id="text_11">
    <!-- 1 -->
    <g transform="translate(529.56 120.292344) scale(0.11 -0.11)">
     <use xlink:href="#DejaVuSans-31"/>
    </g>
   </g>
   <g id="text_12">
    <!-- VIN -->
    <g transform="translate(514.769688 141.317813) scale(0.14 -0.14)">
     <defs>
      <path id="DejaVuSans-49" d="M 628 4666 
L 1259 4666 
L 1259 0 
L 628 0 
L 628 4666 
z
" transform="scale(0.015625)"/>
     </defs>
     <use xlink:href="#DejaVuSans-56"/>
     <use xlink:href="#DejaVuSans-49" transform="translate(68.408203 0)"/>
     <use xlink:href="#DejaVuSans-4e" transform="translate(97.900391 0)"/>
    </g>
   </g>
   <g id="text_13">
    <!-- 2 -->
    <g transform="translate(511.56 226.338281) scale(0.11 -0.11)">
     <use xlink:href="#DejaVuSans-32"/>
    </g>
   </g>
   <g id="text_14">
    <!-- GND -->
    <g transform="translate(492.809219 206.968437) scale(0.14 -0.14)">
     <use xlink:href="#DejaVuSans-47"/>
     <use xlink:href="#DejaVuSans-4e" transform="translate(77.490234 0)"/>
     <use xlink:href="#DejaVuSans-44" transform="translate(152.294922 0)"/>
    </g>
   </g>
   <g id="text_15">
    <!-- 3 -->
    <g transform="translate(547.56 226.338281) scale(0.11 -0.11)">
     <defs>
      <path id="DejaVuSans-33" d="M 2597 2516 
Q 3050 2419 3304 2112 
Q 3559 1806 3559 1356 
Q 3559 666 3084 287 
Q 2609 -91 1734 -91 
Q 1441 -91 1130 -33 
Q 819 25 488 141 
L 488 750 
Q 750 597 1062 519 
Q 1375 441 1716 441 
Q 2309 441 2620 675 
Q 2931 909 2931 1356 
Q 2931 1769 2642 2001 
Q 2353 2234 1838 2234 
L 1294 2234 
L 1294 2753 
L 1863 2753 
Q 2328 2753 2575 2939 
Q 2822 3125 2822 3475 
Q 2822 3834 2567 4026 
Q 2313 4219 1838 4219 
Q 1578 4219 1281 4162 
Q 984 4106 628 3988 
L 628 4550 
Q 988 4650 1302 4700 
Q 1616 4750 1894 4750 
Q 2613 4750 3031 4423 
Q 3450 4097 3450 3541 
Q 3450 3153 3228 2886 
Q 3006 2619 2597 2516 
z
" transform="scale(0.015625)"/>
     </defs>
     <use xlink:href="#DejaVuSans-33"/>
    </g>
   </g>
   <g id="text_16">
    <!-- VOUT -->
    <g transform="translate(525.285156 206.968437) scale(0.14 -0.14)">
     <use xlink:href="#DejaVuSans-56"/>
     <use xlink:href="#DejaVuSans-4f" transform="translate(66.658203 0)"/>
     <use xlink:href="#DejaVuSans-55" transform="translate(145.369141 0)"/>
     <use xlink:href="#DejaVuSans-54" transform="translate(218.5625 0)"/>
    </g>
   </g>
   <g id="text_17">
    <!-- U2 -->
    <g transform="translate(524.303437 160.453125) scale(0.09 -0.09)">
     <use xlink:href="#DejaVuSans-55"/>
     <use xlink:href="#DejaVuSans-32" transform="translate(73.193359 0)"/>
    </g>
    <!-- LM2596S -->
    <g transform="translate(509.760703 169.163438) scale(0.09 -0.09)">
     <defs>
      <path id="DejaVuSans-4c" d="M 628 4666 
L 1259 4666 
L 1259 531 
L 3531 531 
L 3531 0 
L 628 0 
L 628 4666 
z
" transform="scale(0.015625)"/>
      <path id="DejaVuSans-4d" d="M 628 4666 
L 1569 4666 
L 2759 1491 
L 3956 4666 
L 4897 4666 
L 4897 0 
L 4281 0 
L 4281 4097 
L 3078 897 
L 2444 897 
L 1241 4097 
L 1241 0 
L 628 0 
L 628 4666 
z
" transform="scale(0.015625)"/>
      <path id="DejaVuSans-39" d="M 703 97 
L 703 672 
Q 941 559 1184 500 
Q 1428 441 1663 441 
Q 2288 441 2617 861 
Q 2947 1281 2994 2138 
Q 2813 1869 2534 1725 
Q 2256 1581 1919 1581 
Q 1219 1581 811 2004 
Q 403 2428 403 3163 
Q 403 3881 828 4315 
Q 1253 4750 1959 4750 
Q 2769 4750 3195 4129 
Q 3622 3509 3622 2328 
Q 3622 1225 3098 567 
Q 2575 -91 1691 -91 
Q 1453 -91 1209 -44 
Q 966 3 703 97 
z
M 1959 2075 
Q 2384 2075 2632 2365 
Q 2881 2656 2881 3163 
Q 2881 3666 2632 3958 
Q 2384 4250 1959 4250 
Q 1534 4250 1286 3958 
Q 1038 3666 1038 3163 
Q 1038 2656 1286 2365 
Q 1534 2075 1959 2075 
z
" transform="scale(0.015625)"/>
     </defs>
     <use xlink:href="#DejaVuSans-4c"/>
     <use xlink:href="#DejaVuSans-4d" transform="translate(55.712891 0)"/>
     <use xlink:href="#DejaVuSans-32" transform="translate(141.992188 0)"/>
     <use xlink:href="#DejaVuSans-35" transform="translate(205.615234 0)"/>
     <use xlink:href="#DejaVuSans-39" transform="translate(269.238281 0)"/>
     <use xlink:href="#DejaVuSans-36" transform="translate(332.861328 0)"/>
     <use xlink:href="#DejaVuSans-53" transform="translate(396.484375 0)"/>
    </g>
    <!-- 12 V → 3.3 V -->
    <g transform="translate(501.929297 177.87375) scale(0.09 -0.09)">
     <defs>
      <path id="DejaVuSans-2e" d="M 684 794 
L 1344 794 
L 1344 0 
L 684 0 
L 684 794 
z
" transform="scale(0.015625)"/>
     </defs>
     <use xlink:href="#DejaVuSans-31"/>
     <use xlink:href="#DejaVuSans-32" transform="translate(63.623047 0)"/>
     <use xlink:href="#DejaVuSans-20" transform="translate(127.246094 0)"/>
     <use xlink:href="#DejaVuSans-56" transform="translate(159.033203 0)"/>
     <use xlink:href="#DejaVuSans-20" transform="translate(227.441406 0)"/>
     <use xlink:href="#DejaVuSans-2192" transform="translate(259.228516 0)"/>
     <use xlink:href="#DejaVuSans-20" transform="translate(343.017578 0)"/>
     <use xlink:href="#DejaVuSans-33" transform="translate(374.804688 0)"/>
     <use xlink:href="#DejaVuSans-2e" transform="translate(438.427734 0)"/>
     <use xlink:href="#DejaVuSans-33" transform="translate(470.214844 0)"/>
     <use xlink:href="#DejaVuSans-20" transform="translate(533.837891 0)"/>
     <use xlink:href="#DejaVuSans-56" transform="translate(565.625 0)"/>
    </g>
   </g>
   <g id="text_18">
    <!-- C2 -->
    <g style="fill: #c62828" transform="translate(560.454609 210.387656) scale(0.09 -0.09)">
     <use xlink:href="#DejaVuSans-43"/>
     <use xlink:href="#DejaVuSans-32" transform="translate(69.824219 0)"/>
    </g>
    <!-- 100 µF -->
    <g style="fill: #c62828" transform="translate(550.989141 219.097969) scale(0.09 -0.09)">
     <use xlink:href="#DejaVuSans-31"/>
     <use xlink:href="#DejaVuSans-30" transform="translate(63.623047 0)"/>
     <use xlink:href="#DejaVuSans-30" transform="translate(127.246094 0)"/>
     <use xlink:href="#DejaVuSans-20" transform="translate(190.869141 0)"/>
     <use xlink:href="#DejaVuSans-b5" transform="translate(222.65625 0)"/>
     <use xlink:href="#DejaVuSans-46" transform="translate(286.279297 0)"/>
    </g>
    <!-- 16 V -->
    <g style="fill: #c62828" transform="translate(556.225313 227.808281) scale(0.09 -0.09)">
     <use xlink:href="#DejaVuSans-31"/>
     <use xlink:href="#DejaVuSans-36" transform="translate(63.623047 0)"/>
     <use xlink:href="#DejaVuSans-20" transform="translate(127.246094 0)"/>
     <use xlink:href="#DejaVuSans-56" transform="translate(159.033203 0)"/>
    </g>
   </g>
   <g id="text_19">
    <!-- C3 -->
    <g style="fill: #c62828" transform="translate(632.454609 219.097969) scale(0.09 -0.09)">
     <use xlink:href="#DejaVuSans-43"/>
     <use xlink:href="#DejaVuSans-33" transform="translate(69.824219 0)"/>
    </g>
    <!-- 100 nF -->
    <g style="fill: #c62828" transform="translate(623.000391 227.808281) scale(0.09 -0.09)">
     <defs>
      <path id="DejaVuSans-6e" d="M 3513 2113 
L 3513 0 
L 2938 0 
L 2938 2094 
Q 2938 2591 2744 2837 
Q 2550 3084 2163 3084 
Q 1697 3084 1428 2787 
Q 1159 2491 1159 1978 
L 1159 0 
L 581 0 
L 581 3500 
L 1159 3500 
L 1159 2956 
Q 1366 3272 1645 3428 
Q 1925 3584 2291 3584 
Q 2894 3584 3203 3211 
Q 3513 2838 3513 2113 
z
" transform="scale(0.015625)"/>
     </defs>
     <use xlink:href="#DejaVuSans-31"/>
     <use xlink:href="#DejaVuSans-30" transform="translate(63.623047 0)"/>
     <use xlink:href="#DejaVuSans-30" transform="translate(127.246094 0)"/>
     <use xlink:href="#DejaVuSans-20" transform="translate(190.869141 0)"/>
     <use xlink:href="#DejaVuSans-6e" transform="translate(222.65625 0)"/>
     <use xlink:href="#DejaVuSans-46" transform="translate(286.035156 0)"/>
    </g>
   </g>
   <g id="text_20">
    <!-- 1 -->
    <g transform="translate(736.76125 228.292344) scale(0.11 -0.11)">
     <use xlink:href="#DejaVuSans-31"/>
    </g>
   </g>
   <g id="text_21">
    <!-- V33 -->
    <g transform="translate(751.86 237.143125) scale(0.14 -0.14)">
     <use xlink:href="#DejaVuSans-56"/>
     <use xlink:href="#DejaVuSans-33" transform="translate(68.408203 0)"/>
     <use xlink:href="#DejaVuSans-33" transform="translate(132.03125 0)"/>
    </g>
   </g>
   <g id="text_22">
    <!-- 2 -->
    <g transform="translate(736.76125 195.892344) scale(0.11 -0.11)">
     <use xlink:href="#DejaVuSans-32"/>
    </g>
   </g>
   <g id="text_23">
    <!-- EGND -->
    <g transform="translate(751.86 204.743125) scale(0.14 -0.14)">
     <defs>
      <path id="DejaVuSans-45" d="M 628 4666 
L 3578 4666 
L 3578 4134 
L 1259 4134 
L 1259 2753 
L 3481 2753 
L 3481 2222 
L 1259 2222 
L 1259 531 
L 3634 531 
L 3634 0 
L 628 0 
L 628 4666 
z
" transform="scale(0.015625)"/>
     </defs>
     <use xlink:href="#DejaVuSans-45"/>
     <use xlink:href="#DejaVuSans-47" transform="translate(63.183594 0)"/>
     <use xlink:href="#DejaVuSans-4e" transform="translate(140.673828 0)"/>
     <use xlink:href="#DejaVuSans-44" transform="translate(215.478516 0)"/>
    </g>
   </g>
   <g id="text_24">
    <!-- 3 -->
    <g transform="translate(863.832 244.492344) scale(0.11 -0.11)">
     <use xlink:href="#DejaVuSans-33"/>
    </g>
   </g>
   <g id="text_25">
    <!-- GPIO25 -->
    <g transform="translate(803.477 253.343125) scale(0.14 -0.14)">
     <use xlink:href="#DejaVuSans-47"/>
     <use xlink:href="#DejaVuSans-50" transform="translate(77.490234 0)"/>
     <use xlink:href="#DejaVuSans-49" transform="translate(137.792969 0)"/>
     <use xlink:href="#DejaVuSans-4f" transform="translate(167.285156 0)"/>
     <use xlink:href="#DejaVuSans-32" transform="translate(245.996094 0)"/>
     <use xlink:href="#DejaVuSans-35" transform="translate(309.619141 0)"/>
    </g>
   </g>
   <g id="text_26">
    <!-- 4 -->
    <g transform="translate(863.832 212.092344) scale(0.11 -0.11)">
     <defs>
      <path id="DejaVuSans-34" d="M 2419 4116 
L 825 1625 
L 2419 1625 
L 2419 4116 
z
M 2253 4666 
L 3047 4666 
L 3047 1625 
L 3713 1625 
L 3713 1100 
L 3047 1100 
L 3047 0 
L 2419 0 
L 2419 1100 
L 313 1100 
L 313 1709 
L 2253 4666 
z
" transform="scale(0.015625)"/>
     </defs>
     <use xlink:href="#DejaVuSans-34"/>
    </g>
   </g>
   <g id="text_27">
    <!-- GPIO26 -->
    <g transform="translate(803.477 220.943125) scale(0.14 -0.14)">
     <use xlink:href="#DejaVuSans-47"/>
     <use xlink:href="#DejaVuSans-50" transform="translate(77.490234 0)"/>
     <use xlink:href="#DejaVuSans-49" transform="translate(137.792969 0)"/>
     <use xlink:href="#DejaVuSans-4f" transform="translate(167.285156 0)"/>
     <use xlink:href="#DejaVuSans-32" transform="translate(245.996094 0)"/>
     <use xlink:href="#DejaVuSans-36" transform="translate(309.619141 0)"/>
    </g>
   </g>
   <g id="text_28">
    <!-- 5 -->
    <g transform="translate(863.832 179.692344) scale(0.11 -0.11)">
     <use xlink:href="#DejaVuSans-35"/>
    </g>
   </g>
   <g id="text_29">
    <!-- GPIO27 -->
    <g transform="translate(803.477 188.543125) scale(0.14 -0.14)">
     <use xlink:href="#DejaVuSans-47"/>
     <use xlink:href="#DejaVuSans-50" transform="translate(77.490234 0)"/>
     <use xlink:href="#DejaVuSans-49" transform="translate(137.792969 0)"/>
     <use xlink:href="#DejaVuSans-4f" transform="translate(167.285156 0)"/>
     <use xlink:href="#DejaVuSans-32" transform="translate(245.996094 0)"/>
     <use xlink:href="#DejaVuSans-37" transform="translate(309.619141 0)"/>
    </g>
   </g>
   <g id="text_30">
    <!-- U3 -->
    <g transform="translate(801.239438 211.608281) scale(0.09 -0.09)">
     <use xlink:href="#DejaVuSans-55"/>
     <use xlink:href="#DejaVuSans-33" transform="translate(73.193359 0)"/>
    </g>
    <!-- ESP32 DevKit C V4 -->
    <g transform="translate(765.019359 220.318594) scale(0.09 -0.09)">
     <defs>
      <path id="DejaVuSans-76" d="M 191 3500 
L 800 3500 
L 1894 563 
L 2988 3500 
L 3597 3500 
L 2284 0 
L 1503 0 
L 191 3500 
z
" transform="scale(0.015625)"/>
      <path id="DejaVuSans-4b" d="M 628 4666 
L 1259 4666 
L 1259 2694 
L 3353 4666 
L 4166 4666 
L 1850 2491 
L 4331 0 
L 3500 0 
L 1259 2247 
L 1259 0 
L 628 0 
L 628 4666 
z
" transform="scale(0.015625)"/>
      <path id="DejaVuSans-74" d="M 1172 4494 
L 1172 3500 
L 2356 3500 
L 2356 3053 
L 1172 3053 
L 1172 1153 
Q 1172 725 1289 603 
Q 1406 481 1766 481 
L 2356 481 
L 2356 0 
L 1766 0 
Q 1100 0 847 248 
Q 594 497 594 1153 
L 594 3053 
L 172 3053 
L 172 3500 
L 594 3500 
L 594 4494 
L 1172 4494 
z
" transform="scale(0.015625)"/>
     </defs>
     <use xlink:href="#DejaVuSans-45"/>
     <use xlink:href="#DejaVuSans-53" transform="translate(63.183594 0)"/>
     <use xlink:href="#DejaVuSans-50" transform="translate(126.660156 0)"/>
     <use xlink:href="#DejaVuSans-33" transform="translate(186.962891 0)"/>
     <use xlink:href="#DejaVuSans-32" transform="translate(250.585938 0)"/>
     <use xlink:href="#DejaVuSans-20" transform="translate(314.208984 0)"/>
     <use xlink:href="#DejaVuSans-44" transform="translate(345.996094 0)"/>
     <use xlink:href="#DejaVuSans-65" transform="translate(422.998047 0)"/>
     <use xlink:href="#DejaVuSans-76" transform="translate(484.521484 0)"/>
     <use xlink:href="#DejaVuSans-4b" transform="translate(543.701172 0)"/>
     <use xlink:href="#DejaVuSans-69" transform="translate(609.277344 0)"/>
     <use xlink:href="#DejaVuSans-74" transform="translate(637.060547 0)"/>
     <use xlink:href="#DejaVuSans-20" transform="translate(676.269531 0)"/>
     <use xlink:href="#DejaVuSans-43" transform="translate(708.056641 0)"/>
     <use xlink:href="#DejaVuSans-20" transform="translate(777.880859 0)"/>
     <use xlink:href="#DejaVuSans-56" transform="translate(809.667969 0)"/>
     <use xlink:href="#DejaVuSans-34" transform="translate(878.076172 0)"/>
    </g>
   </g>
   <g id="text_31">
    <!-- PWM1  (GPIO25) -->
    <g style="fill: #2e7d32" transform="translate(900.732 248.363438) scale(0.09 -0.09)">
     <defs>
      <path id="DejaVuSans-57" d="M 213 4666 
L 850 4666 
L 1831 722 
L 2809 4666 
L 3519 4666 
L 4500 722 
L 5478 4666 
L 6119 4666 
L 4947 0 
L 4153 0 
L 3169 4050 
L 2175 0 
L 1381 0 
L 213 4666 
z
" transform="scale(0.015625)"/>
     </defs>
     <use xlink:href="#DejaVuSans-50"/>
     <use xlink:href="#DejaVuSans-57" transform="translate(60.302734 0)"/>
     <use xlink:href="#DejaVuSans-4d" transform="translate(159.179688 0)"/>
     <use xlink:href="#DejaVuSans-31" transform="translate(245.458984 0)"/>
     <use xlink:href="#DejaVuSans-20" transform="translate(309.082031 0)"/>
     <use xlink:href="#DejaVuSans-20" transform="translate(340.869141 0)"/>
     <use xlink:href="#DejaVuSans-28" transform="translate(372.65625 0)"/>
     <use xlink:href="#DejaVuSans-47" transform="translate(411.669922 0)"/>
     <use xlink:href="#DejaVuSans-50" transform="translate(489.160156 0)"/>
     <use xlink:href="#DejaVuSans-49" transform="translate(549.462891 0)"/>
     <use xlink:href="#DejaVuSans-4f" transform="translate(578.955078 0)"/>
     <use xlink:href="#DejaVuSans-32" transform="translate(657.666016 0)"/>
     <use xlink:href="#DejaVuSans-35" transform="translate(721.289062 0)"/>
     <use xlink:href="#DejaVuSans-29" transform="translate(784.912109 0)"/>
    </g>
   </g>
   <g id="text_32">
    <!-- PWM2  (GPIO26) -->
    <g style="fill: #2e7d32" transform="translate(900.732 215.963438) scale(0.09 -0.09)">
     <use xlink:href="#DejaVuSans-50"/>
     <use xlink:href="#DejaVuSans-57" transform="translate(60.302734 0)"/>
     <use xlink:href="#DejaVuSans-4d" transform="translate(159.179688 0)"/>
     <use xlink:href="#DejaVuSans-32" transform="translate(245.458984 0)"/>
     <use xlink:href="#DejaVuSans-20" transform="translate(309.082031 0)"/>
     <use xlink:href="#DejaVuSans-20" transform="translate(340.869141 0)"/>
     <use xlink:href="#DejaVuSans-28" transform="translate(372.65625 0)"/>
     <use xlink:href="#DejaVuSans-47" transform="translate(411.669922 0)"/>
     <use xlink:href="#DejaVuSans-50" transform="translate(489.160156 0)"/>
     <use xlink:href="#DejaVuSans-49" transform="translate(549.462891 0)"/>
     <use xlink:href="#DejaVuSans-4f" transform="translate(578.955078 0)"/>
     <use xlink:href="#DejaVuSans-32" transform="translate(657.666016 0)"/>
     <use xlink:href="#DejaVuSans-36" transform="translate(721.289062 0)"/>
     <use xlink:href="#DejaVuSans-29" transform="translate(784.912109 0)"/>
    </g>
   </g>
   <g id="text_33">
    <!-- PWM3  (GPIO27) -->
    <g style="fill: #2e7d32" transform="translate(900.732 183.563438) scale(0.09 -0.09)">
     <use xlink:href="#DejaVuSans-50"/>
     <use xlink:href="#DejaVuSans-57" transform="translate(60.302734 0)"/>
     <use xlink:href="#DejaVuSans-4d" transform="translate(159.179688 0)"/>
     <use xlink:href="#DejaVuSans-33" transform="translate(245.458984 0)"/>
     <use xlink:href="#DejaVuSans-20" transform="translate(309.082031 0)"/>
     <use xlink:href="#DejaVuSans-20" transform="translate(340.869141 0)"/>
     <use xlink:href="#DejaVuSans-28" transform="translate(372.65625 0)"/>
     <use xlink:href="#DejaVuSans-47" transform="translate(411.669922 0)"/>
     <use xlink:href="#DejaVuSans-50" transform="translate(489.160156 0)"/>
     <use xlink:href="#DejaVuSans-49" transform="translate(549.462891 0)"/>
     <use xlink:href="#DejaVuSans-4f" transform="translate(578.955078 0)"/>
     <use xlink:href="#DejaVuSans-32" transform="translate(657.666016 0)"/>
     <use xlink:href="#DejaVuSans-37" transform="translate(721.289062 0)"/>
     <use xlink:href="#DejaVuSans-29" transform="translate(784.912109 0)"/>
    </g>
   </g>
   <g id="text_34">
    <!-- PWM1  (GPIO25) -->
    <g style="fill: #2e7d32" transform="translate(690.307031 214.163438) scale(0.09 -0.09)">
     <use xlink:href="#DejaVuSans-50"/>
     <use xlink:href="#DejaVuSans-57" transform="translate(60.302734 0)"/>
     <use xlink:href="#DejaVuSans-4d" transform="translate(159.179688 0)"/>
     <use xlink:href="#DejaVuSans-31" transform="translate(245.458984 0)"/>
     <use xlink:href="#DejaVuSans-20" transform="translate(309.082031 0)"/>
     <use xlink:href="#DejaVuSans-20" transform="translate(340.869141 0)"/>
     <use xlink:href="#DejaVuSans-28" transform="translate(372.65625 0)"/>
     <use xlink:href="#DejaVuSans-47" transform="translate(411.669922 0)"/>
     <use xlink:href="#DejaVuSans-50" transform="translate(489.160156 0)"/>
     <use xlink:href="#DejaVuSans-49" transform="translate(549.462891 0)"/>
     <use xlink:href="#DejaVuSans-4f" transform="translate(578.955078 0)"/>
     <use xlink:href="#DejaVuSans-32" transform="translate(657.666016 0)"/>
     <use xlink:href="#DejaVuSans-35" transform="translate(721.289062 0)"/>
     <use xlink:href="#DejaVuSans-29" transform="translate(784.912109 0)"/>
    </g>
   </g>
   <g id="text_35">
    <!-- R1  100 Ω -->
    <g style="fill: #2e7d32" transform="translate(803.35125 200.808281) scale(0.09 -0.09)">
     <defs>
      <path id="DejaVuSans-52" d="M 2841 2188 
Q 3044 2119 3236 1894 
Q 3428 1669 3622 1275 
L 4263 0 
L 3584 0 
L 2988 1197 
Q 2756 1666 2539 1819 
Q 2322 1972 1947 1972 
L 1259 1972 
L 1259 0 
L 628 0 
L 628 4666 
L 2053 4666 
Q 2853 4666 3247 4331 
Q 3641 3997 3641 3322 
Q 3641 2881 3436 2590 
Q 3231 2300 2841 2188 
z
M 1259 4147 
L 1259 2491 
L 2053 2491 
Q 2509 2491 2742 2702 
Q 2975 2913 2975 3322 
Q 2975 3731 2742 3939 
Q 2509 4147 2053 4147 
L 1259 4147 
z
" transform="scale(0.015625)"/>
      <path id="DejaVuSans-3a9" d="M 4647 556 
L 4647 0 
L 2772 0 
L 2772 556 
Q 3325 859 3634 1378 
Q 3944 1897 3944 2528 
Q 3944 3278 3531 3731 
Q 3119 4184 2444 4184 
Q 1769 4184 1355 3729 
Q 941 3275 941 2528 
Q 941 1897 1250 1378 
Q 1563 859 2119 556 
L 2119 0 
L 244 0 
L 244 556 
L 1241 556 
Q 747 991 519 1456 
Q 294 1922 294 2497 
Q 294 3491 894 4106 
Q 1491 4722 2444 4722 
Q 3391 4722 3994 4106 
Q 4594 3494 4594 2528 
Q 4594 1922 4372 1459 
Q 4150 997 3647 556 
L 4647 556 
z
" transform="scale(0.015625)"/>
     </defs>
     <use xlink:href="#DejaVuSans-52"/>
     <use xlink:href="#DejaVuSans-31" transform="translate(69.482422 0)"/>
     <use xlink:href="#DejaVuSans-20" transform="translate(133.105469 0)"/>
     <use xlink:href="#DejaVuSans-20" transform="translate(164.892578 0)"/>
     <use xlink:href="#DejaVuSans-31" transform="translate(196.679688 0)"/>
     <use xlink:href="#DejaVuSans-30" transform="translate(260.302734 0)"/>
     <use xlink:href="#DejaVuSans-30" transform="translate(323.925781 0)"/>
     <use xlink:href="#DejaVuSans-20" transform="translate(387.548828 0)"/>
     <use xlink:href="#DejaVuSans-3a9" transform="translate(419.335938 0)"/>
    </g>
   </g>
   <g id="text_36">
    <!-- R4  10 kΩ -->
    <g style="fill: #546e7a" transform="translate(868.408594 209.808281) scale(0.09 -0.09)">
     <defs>
      <path id="DejaVuSans-6b" d="M 581 4863 
L 1159 4863 
L 1159 1991 
L 2875 3500 
L 3609 3500 
L 1753 1863 
L 3688 0 
L 2938 0 
L 1159 1709 
L 1159 0 
L 581 0 
L 581 4863 
z
" transform="scale(0.015625)"/>
     </defs>
     <use xlink:href="#DejaVuSans-52"/>
     <use xlink:href="#DejaVuSans-34" transform="translate(69.482422 0)"/>
     <use xlink:href="#DejaVuSans-20" transform="translate(133.105469 0)"/>
     <use xlink:href="#DejaVuSans-20" transform="translate(164.892578 0)"/>
     <use xlink:href="#DejaVuSans-31" transform="translate(196.679688 0)"/>
     <use xlink:href="#DejaVuSans-30" transform="translate(260.302734 0)"/>
     <use xlink:href="#DejaVuSans-20" transform="translate(323.925781 0)"/>
     <use xlink:href="#DejaVuSans-6b" transform="translate(355.712891 0)"/>
     <use xlink:href="#DejaVuSans-3a9" transform="translate(413.623047 0)"/>
    </g>
   </g>
   <g id="text_37">
    <!-- Q1 -->
    <g style="fill: #212121" transform="translate(904.86 213.408281) scale(0.09 -0.09)">
     <defs>
      <path id="DejaVuSans-51" d="M 2522 4238 
Q 1834 4238 1429 3725 
Q 1025 3213 1025 2328 
Q 1025 1447 1429 934 
Q 1834 422 2522 422 
Q 3209 422 3611 934 
Q 4013 1447 4013 2328 
Q 4013 3213 3611 3725 
Q 3209 4238 2522 4238 
z
M 3406 84 
L 4238 -825 
L 3475 -825 
L 2784 -78 
Q 2681 -84 2626 -87 
Q 2572 -91 2522 -91 
Q 1538 -91 948 567 
Q 359 1225 359 2328 
Q 359 3434 948 4092 
Q 1538 4750 2522 4750 
Q 3503 4750 4090 4092 
Q 4678 3434 4678 2328 
Q 4678 1516 4351 937 
Q 4025 359 3406 84 
z
" transform="scale(0.015625)"/>
     </defs>
     <use xlink:href="#DejaVuSans-51"/>
     <use xlink:href="#DejaVuSans-31" transform="translate(78.710938 0)"/>
    </g>
    <!-- IRLZ44N -->
    <g style="fill: #212121" transform="translate(904.86 222.118594) scale(0.09 -0.09)">
     <defs>
      <path id="DejaVuSans-5a" d="M 359 4666 
L 4025 4666 
L 4025 4184 
L 1075 531 
L 4097 531 
L 4097 0 
L 288 0 
L 288 481 
L 3238 4134 
L 359 4134 
L 359 4666 
z
" transform="scale(0.015625)"/>
     </defs>
     <use xlink:href="#DejaVuSans-49"/>
     <use xlink:href="#DejaVuSans-52" transform="translate(29.492188 0)"/>
     <use xlink:href="#DejaVuSans-4c" transform="translate(98.974609 0)"/>
     <use xlink:href="#DejaVuSans-5a" transform="translate(154.6875 0)"/>
     <use xlink:href="#DejaVuSans-34" transform="translate(223.193359 0)"/>
     <use xlink:href="#DejaVuSans-34" transform="translate(286.816406 0)"/>
     <use xlink:href="#DejaVuSans-4e" transform="translate(350.439453 0)"/>
    </g>
   </g>
   <g id="text_38">
    <!-- LED1 -->
    <g style="fill: #1565c0" transform="translate(840.261094 21.097969) scale(0.09 -0.09)">
     <use xlink:href="#DejaVuSans-4c"/>
     <use xlink:href="#DejaVuSans-45" transform="translate(55.712891 0)"/>
     <use xlink:href="#DejaVuSans-44" transform="translate(118.896484 0)"/>
     <use xlink:href="#DejaVuSans-31" transform="translate(195.898438 0)"/>
    </g>
    <!-- 12 V LED strip -->
    <g style="fill: #1565c0" transform="translate(819.963984 29.808281) scale(0.09 -0.09)">
     <defs>
      <path id="DejaVuSans-73" d="M 2834 3397 
L 2834 2853 
Q 2591 2978 2328 3040 
Q 2066 3103 1784 3103 
Q 1356 3103 1142 2972 
Q 928 2841 928 2578 
Q 928 2378 1081 2264 
Q 1234 2150 1697 2047 
L 1894 2003 
Q 2506 1872 2764 1633 
Q 3022 1394 3022 966 
Q 3022 478 2636 193 
Q 2250 -91 1575 -91 
Q 1294 -91 989 -36 
Q 684 19 347 128 
L 347 722 
Q 666 556 975 473 
Q 1284 391 1588 391 
Q 1994 391 2212 530 
Q 2431 669 2431 922 
Q 2431 1156 2273 1281 
Q 2116 1406 1581 1522 
L 1381 1569 
Q 847 1681 609 1914 
Q 372 2147 372 2553 
Q 372 3047 722 3315 
Q 1072 3584 1716 3584 
Q 2034 3584 2315 3537 
Q 2597 3491 2834 3397 
z
" transform="scale(0.015625)"/>
      <path id="DejaVuSans-72" d="M 2631 2963 
Q 2534 3019 2420 3045 
Q 2306 3072 2169 3072 
Q 1681 3072 1420 2755 
Q 1159 2438 1159 1844 
L 1159 0 
L 581 0 
L 581 3500 
L 1159 3500 
L 1159 2956 
Q 1341 3275 1631 3429 
Q 1922 3584 2338 3584 
Q 2397 3584 2469 3576 
Q 2541 3569 2628 3553 
L 2631 2963 
z
" transform="scale(0.015625)"/>
      <path id="DejaVuSans-70" d="M 1159 525 
L 1159 -1331 
L 581 -1331 
L 581 3500 
L 1159 3500 
L 1159 2969 
Q 1341 3281 1617 3432 
Q 1894 3584 2278 3584 
Q 2916 3584 3314 3078 
Q 3713 2572 3713 1747 
Q 3713 922 3314 415 
Q 2916 -91 2278 -91 
Q 1894 -91 1617 61 
Q 1341 213 1159 525 
z
M 3116 1747 
Q 3116 2381 2855 2742 
Q 2594 3103 2138 3103 
Q 1681 3103 1420 2742 
Q 1159 2381 1159 1747 
Q 1159 1113 1420 752 
Q 1681 391 2138 391 
Q 2594 391 2855 752 
Q 3116 1113 3116 1747 
z
" transform="scale(0.015625)"/>
     </defs>
     <use xlink:href="#DejaVuSans-31"/>
     <use xlink:href="#DejaVuSans-32" transform="translate(63.623047 0)"/>
     <use xlink:href="#DejaVuSans-20" transform="translate(127.246094 0)"/>
     <use xlink:href="#DejaVuSans-56" transform="translate(159.033203 0)"/>
     <use xlink:href="#DejaVuSans-20" transform="translate(227.441406 0)"/>
     <use xlink:href="#DejaVuSans-4c" transform="translate(259.228516 0)"/>
     <use xlink:href="#DejaVuSans-45" transform="translate(314.941406 0)"/>
     <use xlink:href="#DejaVuSans-44" transform="translate(378.125 0)"/>
     <use xlink:href="#DejaVuSans-20" transform="translate(455.126953 0)"/>
     <use xlink:href="#DejaVuSans-73" transform="translate(486.914062 0)"/>
     <use xlink:href="#DejaVuSans-74" transform="translate(539.013672 0)"/>
     <use xlink:href="#DejaVuSans-72" transform="translate(578.222656 0)"/>
     <use xlink:href="#DejaVuSans-69" transform="translate(619.335938 0)"/>
     <use xlink:href="#DejaVuSans-70" transform="translate(647.119141 0)"/>
    </g>
   </g>
   <g id="text_39">
    <!-- PWM2  (GPIO26) -->
    <g style="fill: #2e7d32" transform="translate(979.383516 225.718594) scale(0.09 -0.09)">
     <use xlink:href="#DejaVuSans-50"/>
     <use xlink:href="#DejaVuSans-57" transform="translate(60.302734 0)"/>
     <use xlink:href="#DejaVuSans-4d" transform="translate(159.179688 0)"/>
     <use xlink:href="#DejaVuSans-32" transform="translate(245.458984 0)"/>
     <use xlink:href="#DejaVuSans-20" transform="translate(309.082031 0)"/>
     <use xlink:href="#DejaVuSans-20" transform="translate(340.869141 0)"/>
     <use xlink:href="#DejaVuSans-28" transform="translate(372.65625 0)"/>
     <use xlink:href="#DejaVuSans-47" transform="translate(411.669922 0)"/>
     <use xlink:href="#DejaVuSans-50" transform="translate(489.160156 0)"/>
     <use xlink:href="#DejaVuSans-49" transform="translate(549.462891 0)"/>
     <use xlink:href="#DejaVuSans-4f" transform="translate(578.955078 0)"/>
     <use xlink:href="#DejaVuSans-32" transform="translate(657.666016 0)"/>
     <use xlink:href="#DejaVuSans-36" transform="translate(721.289062 0)"/>
     <use xlink:href="#DejaVuSans-29" transform="translate(784.912109 0)"/>
    </g>
   </g>
   <g id="text_40">
    <!-- R2  100 Ω -->
    <g style="fill: #2e7d32" transform="translate(1055.35125 200.808281) scale(0.09 -0.09)">
     <use xlink:href="#DejaVuSans-52"/>
     <use xlink:href="#DejaVuSans-32" transform="translate(69.482422 0)"/>
     <use xlink:href="#DejaVuSans-20" transform="translate(133.105469 0)"/>
     <use xlink:href="#DejaVuSans-20" transform="translate(164.892578 0)"/>
     <use xlink:href="#DejaVuSans-31" transform="translate(196.679688 0)"/>
     <use xlink:href="#DejaVuSans-30" transform="translate(260.302734 0)"/>
     <use xlink:href="#DejaVuSans-30" transform="translate(323.925781 0)"/>
     <use xlink:href="#DejaVuSans-20" transform="translate(387.548828 0)"/>
     <use xlink:href="#DejaVuSans-3a9" transform="translate(419.335938 0)"/>
    </g>
   </g>
   <g id="text_41">
    <!-- R5  10 kΩ -->
    <g style="fill: #546e7a" transform="translate(1120.408594 209.808281) scale(0.09 -0.09)">
     <use xlink:href="#DejaVuSans-52"/>
     <use xlink:href="#DejaVuSans-35" transform="translate(69.482422 0)"/>
     <use xlink:href="#DejaVuSans-20" transform="translate(133.105469 0)"/>
     <use xlink:href="#DejaVuSans-20" transform="translate(164.892578 0)"/>
     <use xlink:href="#DejaVuSans-31" transform="translate(196.679688 0)"/>
     <use xlink:href="#DejaVuSans-30" transform="translate(260.302734 0)"/>
     <use xlink:href="#DejaVuSans-20" transform="translate(323.925781 0)"/>
     <use xlink:href="#DejaVuSans-6b" transform="translate(355.712891 0)"/>
     <use xlink:href="#DejaVuSans-3a9" transform="translate(413.623047 0)"/>
    </g>
   </g>
   <g id="text_42">
    <!-- Q2 -->
    <g style="fill: #212121" transform="translate(1156.86 213.408281) scale(0.09 -0.09)">
     <use xlink:href="#DejaVuSans-51"/>
     <use xlink:href="#DejaVuSans-32" transform="translate(78.710938 0)"/>
    </g>
    <!-- IRLZ44N -->
    <g style="fill: #212121" transform="translate(1156.86 222.118594) scale(0.09 -0.09)">
     <use xlink:href="#DejaVuSans-49"/>
     <use xlink:href="#DejaVuSans-52" transform="translate(29.492188 0)"/>
     <use xlink:href="#DejaVuSans-4c" transform="translate(98.974609 0)"/>
     <use xlink:href="#DejaVuSans-5a" transform="translate(154.6875 0)"/>
     <use xlink:href="#DejaVuSans-34" transform="translate(223.193359 0)"/>
     <use xlink:href="#DejaVuSans-34" transform="translate(286.816406 0)"/>
     <use xlink:href="#DejaVuSans-4e" transform="translate(350.439453 0)"/>
    </g>
   </g>
   <g id="text_43">
    <!-- LED2 -->
    <g style="fill: #1565c0" transform="translate(1092.261094 21.097969) scale(0.09 -0.09)">
     <use xlink:href="#DejaVuSans-4c"/>
     <use xlink:href="#DejaVuSans-45" transform="translate(55.712891 0)"/>
     <use xlink:href="#DejaVuSans-44" transform="translate(118.896484 0)"/>
     <use xlink:href="#DejaVuSans-32" transform="translate(195.898438 0)"/>
    </g>
    <!-- 12 V LED strip -->
    <g style="fill: #1565c0" transform="translate(1071.963984 29.808281) scale(0.09 -0.09)">
     <use xlink:href="#DejaVuSans-31"/>
     <use xlink:href="#DejaVuSans-32" transform="translate(63.623047 0)"/>
     <use xlink:href="#DejaVuSans-20" transform="translate(127.246094 0)"/>
     <use xlink:href="#DejaVuSans-56" transform="translate(159.033203 0)"/>
     <use xlink:href="#DejaVuSans-20" transform="translate(227.441406 0)"/>
     <use xlink:href="#DejaVuSans-4c" transform="translate(259.228516 0)"/>
     <use xlink:href="#DejaVuSans-45" transform="translate(314.941406 0)"/>
     <use xlink:href="#DejaVuSans-44" transform="translate(378.125 0)"/>
     <use xlink:href="#DejaVuSans-20" transform="translate(455.126953 0)"/>
     <use xlink:href="#DejaVuSans-73" transform="translate(486.914062 0)"/>
     <use xlink:href="#DejaVuSans-74" transform="translate(539.013672 0)"/>
     <use xlink:href="#DejaVuSans-72" transform="translate(578.222656 0)"/>
     <use xlink:href="#DejaVuSans-69" transform="translate(619.335938 0)"/>
     <use xlink:href="#DejaVuSans-70" transform="translate(647.119141 0)"/>
    </g>
   </g>
   <g id="text_44">
    <!-- PWM3  (GPIO27) -->
    <g style="fill: #2e7d32" transform="translate(1231.383516 225.718594) scale(0.09 -0.09)">
     <use xlink:href="#DejaVuSans-50"/>
     <use xlink:href="#DejaVuSans-57" transform="translate(60.302734 0)"/>
     <use xlink:href="#DejaVuSans-4d" transform="translate(159.179688 0)"/>
     <use xlink:href="#DejaVuSans-33" transform="translate(245.458984 0)"/>
     <use xlink:href="#DejaVuSans-20" transform="translate(309.082031 0)"/>
     <use xlink:href="#DejaVuSans-20" transform="translate(340.869141 0)"/>
     <use xlink:href="#DejaVuSans-28" transform="translate(372.65625 0)"/>
     <use xlink:href="#DejaVuSans-47" transform="translate(411.669922 0)"/>
     <use xlink:href="#DejaVuSans-50" transform="translate(489.160156 0)"/>
     <use xlink:href="#DejaVuSans-49" transform="translate(549.462891 0)"/>
     <use xlink:href="#DejaVuSans-4f" transform="translate(578.955078 0)"/>
     <use xlink:href="#DejaVuSans-32" transform="translate(657.666016 0)"/>
     <use xlink:href="#DejaVuSans-37" transform="translate(721.289062 0)"/>
     <use xlink:href="#DejaVuSans-29" transform="translate(784.912109 0)"/>
    </g>
   </g>
   <g id="text_45">
    <!-- R3  100 Ω -->
    <g style="fill: #2e7d32" transform="translate(1307.35125 200.808281) scale(0.09 -0.09)">
     <use xlink:href="#DejaVuSans-52"/>
     <use xlink:href="#DejaVuSans-33" transform="translate(69.482422 0)"/>
     <use xlink:href="#DejaVuSans-20" transform="translate(133.105469 0)"/>
     <use xlink:href="#DejaVuSans-20" transform="translate(164.892578 0)"/>
     <use xlink:href="#DejaVuSans-31" transform="translate(196.679688 0)"/>
     <use xlink:href="#DejaVuSans-30" transform="translate(260.302734 0)"/>
     <use xlink:href="#DejaVuSans-30" transform="translate(323.925781 0)"/>
     <use xlink:href="#DejaVuSans-20" transform="translate(387.548828 0)"/>
     <use xlink:href="#DejaVuSans-3a9" transform="translate(419.335938 0)"/>
    </g>
   </g>
   <g id="text_46">
    <!-- R6  10 kΩ -->
    <g style="fill: #546e7a" transform="translate(1372.408594 209.808281) scale(0.09 -0.09)">
     <use xlink:href="#DejaVuSans-52"/>
     <use xlink:href="#DejaVuSans-36" transform="translate(69.482422 0)"/>
     <use xlink:href="#DejaVuSans-20" transform="translate(133.105469 0)"/>
     <use xlink:href="#DejaVuSans-20" transform="translate(164.892578 0)"/>
     <use xlink:href="#DejaVuSans-31" transform="translate(196.679688 0)"/>
     <use xlink:href="#DejaVuSans-30" transform="translate(260.302734 0)"/>
     <use xlink:href="#DejaVuSans-20" transform="translate(323.925781 0)"/>
     <use xlink:href="#DejaVuSans-6b" transform="translate(355.712891 0)"/>
     <use xlink:href="#DejaVuSans-3a9" transform="translate(413.623047 0)"/>
    </g>
   </g>
   <g id="text_47">
    <!-- Q3 -->
    <g style="fill: #212121" transform="translate(1408.86 213.408281) scale(0.09 -0.09)">
     <use xlink:href="#DejaVuSans-51"/>
     <use xlink:href="#DejaVuSans-33" transform="translate(78.710938 0)"/>
    </g>
    <!-- IRLZ44N -->
    <g style="fill: #212121" transform="translate(1408.86 222.118594) scale(0.09 -0.09)">
     <use xlink:href="#DejaVuSans-49"/>
     <use xlink:href="#DejaVuSans-52" transform="translate(29.492188 0)"/>
     <use xlink:href="#DejaVuSans-4c" transform="translate(98.974609 0)"/>
     <use xlink:href="#DejaVuSans-5a" transform="translate(154.6875 0)"/>
     <use xlink:href="#DejaVuSans-34" transform="translate(223.193359 0)"/>
     <use xlink:href="#DejaVuSans-34" transform="translate(286.816406 0)"/>
     <use xlink:href="#DejaVuSans-4e" transform="translate(350.439453 0)"/>
    </g>
   </g>
   <g id="text_48">
    <!-- LED3 -->
    <g style="fill: #1565c0" transform="translate(1344.261094 21.097969) scale(0.09 -0.09)">
     <use xlink:href="#DejaVuSans-4c"/>
     <use xlink:href="#DejaVuSans-45" transform="translate(55.712891 0)"/>
     <use xlink:href="#DejaVuSans-44" transform="translate(118.896484 0)"/>
     <use xlink:href="#DejaVuSans-33" transform="translate(195.898438 0)"/>
    </g>
    <!-- 12 V LED strip -->
    <g style="fill: #1565c0" transform="translate(1323.963984 29.808281) scale(0.09 -0.09)">
     <use xlink:href="#DejaVuSans-31"/>
     <use xlink:href="#DejaVuSans-32" transform="translate(63.623047 0)"/>
     <use xlink:href="#DejaVuSans-20" transform="translate(127.246094 0)"/>
     <use xlink:href="#DejaVuSans-56" transform="translate(159.033203 0)"/>
     <use xlink:href="#DejaVuSans-20" transform="translate(227.441406 0)"/>
     <use xlink:href="#DejaVuSans-4c" transform="translate(259.228516 0)"/>
     <use xlink:href="#DejaVuSans-45" transform="translate(314.941406 0)"/>
     <use xlink:href="#DejaVuSans-44" transform="translate(378.125 0)"/>
     <use xlink:href="#DejaVuSans-20" transform="translate(455.126953 0)"/>
     <use xlink:href="#DejaVuSans-73" transform="translate(486.914062 0)"/>
     <use xlink:href="#DejaVuSans-74" transform="translate(539.013672 0)"/>
     <use xlink:href="#DejaVuSans-72" transform="translate(578.222656 0)"/>
     <use xlink:href="#DejaVuSans-69" transform="translate(619.335938 0)"/>
     <use xlink:href="#DejaVuSans-70" transform="translate(647.119141 0)"/>
    </g>
   </g>
   <g id="patch_4">
    <path d="M 148.86 37.98 
C 149.576048 37.98 150.262866 37.695511 150.769188 37.189188 
C 151.275511 36.682866 151.56 35.996048 151.56 35.28 
C 151.56 34.563952 151.275511 33.877134 150.769188 33.370812 
C 150.262866 32.864489 149.576048 32.58 148.86 32.58 
C 148.143952 32.58 147.457134 32.864489 146.950812 33.370812 
C 146.444489 33.877134 146.16 34.563952 146.16 35.28 
C 146.16 35.996048 146.444489 36.682866 146.950812 37.189188 
C 147.457134 37.695511 148.143952 37.98 148.86 37.98 
z
" clip-path="url(#p5ebeb5db0c)" style="fill: #e65100; stroke: #e65100; stroke-width: 2; stroke-linejoin: miter"/>
   </g>
   <g id="patch_5">
    <path d="M 328.86 37.98 
C 329.576048 37.98 330.262866 37.695511 330.769188 37.189188 
C 331.275511 36.682866 331.56 35.996048 331.56 35.28 
C 331.56 34.563952 331.275511 33.877134 330.769188 33.370812 
C 330.262866 32.864489 329.576048 32.58 328.86 32.58 
C 328.143952 32.58 327.457134 32.864489 326.950812 33.370812 
C 326.444489 33.877134 326.16 34.563952 326.16 35.28 
C 326.16 35.996048 326.444489 36.682866 326.950812 37.189188 
C 327.457134 37.695511 328.143952 37.98 328.86 37.98 
z
" clip-path="url(#p5ebeb5db0c)" style="fill: #e65100; stroke: #e65100; stroke-width: 2; stroke-linejoin: miter"/>
   </g>
   <g id="patch_6">
    <path d="M 526.86 37.98 
C 527.576048 37.98 528.262866 37.695511 528.769188 37.189188 
C 529.275511 36.682866 529.56 35.996048 529.56 35.28 
C 529.56 34.563952 529.275511 33.877134 528.769188 33.370812 
C 528.262866 32.864489 527.576048 32.58 526.86 32.58 
C 526.143952 32.58 525.457134 32.864489 524.950812 33.370812 
C 524.444489 33.877134 524.16 34.563952 524.16 35.28 
C 524.16 35.996048 524.444489 36.682866 524.950812 37.189188 
C 525.457134 37.695511 526.143952 37.98 526.86 37.98 
z
" clip-path="url(#p5ebeb5db0c)" style="fill: #e65100; stroke: #e65100; stroke-width: 2; stroke-linejoin: miter"/>
   </g>
   <g id="patch_7">
    <path d="M 851.94 37.98 
C 852.656048 37.98 853.342866 37.695511 853.849188 37.189188 
C 854.355511 36.682866 854.64 35.996048 854.64 35.28 
C 854.64 34.563952 854.355511 33.877134 853.849188 33.370812 
C 853.342866 32.864489 852.656048 32.58 851.94 32.58 
C 851.223952 32.58 850.537134 32.864489 850.030812 33.370812 
C 849.524489 33.877134 849.24 34.563952 849.24 35.28 
C 849.24 35.996048 849.524489 36.682866 850.030812 37.189188 
C 850.537134 37.695511 851.223952 37.98 851.94 37.98 
z
" clip-path="url(#p5ebeb5db0c)" style="fill: #e65100; stroke: #e65100; stroke-width: 2; stroke-linejoin: miter"/>
   </g>
   <g id="patch_8">
    <path d="M 1103.94 37.98 
C 1104.656048 37.98 1105.342866 37.695511 1105.849188 37.189188 
C 1106.355511 36.682866 1106.64 35.996048 1106.64 35.28 
C 1106.64 34.563952 1106.355511 33.877134 1105.849188 33.370812 
C 1105.342866 32.864489 1104.656048 32.58 1103.94 32.58 
C 1103.223952 32.58 1102.537134 32.864489 1102.030812 33.370812 
C 1101.524489 33.877134 1101.24 34.563952 1101.24 35.28 
C 1101.24 35.996048 1101.524489 36.682866 1102.030812 37.189188 
C 1102.537134 37.695511 1103.223952 37.98 1103.94 37.98 
z
" clip-path="url(#p5ebeb5db0c)" style="fill: #e65100; stroke: #e65100; stroke-width: 2; stroke-linejoin: miter"/>
   </g>
   <g id="patch_9">
    <path d="M 1355.94 37.98 
C 1356.656048 37.98 1357.342866 37.695511 1357.849188 37.189188 
C 1358.355511 36.682866 1358.64 35.996048 1358.64 35.28 
C 1358.64 34.563952 1358.355511 33.877134 1357.849188 33.370812 
C 1357.342866 32.864489 1356.656048 32.58 1355.94 32.58 
C 1355.223952 32.58 1354.537134 32.864489 1354.030812 33.370812 
C 1353.524489 33.877134 1353.24 34.563952 1353.24 35.28 
C 1353.24 35.996048 1353.524489 36.682866 1354.030812 37.189188 
C 1354.537134 37.695511 1355.223952 37.98 1355.94 37.98 
z
" clip-path="url(#p5ebeb5db0c)" style="fill: #e65100; stroke: #e65100; stroke-width: 2; stroke-linejoin: miter"/>
   </g>
   <g id="patch_10">
    <path d="M 566.46 235.98 
C 567.176048 235.98 567.862866 235.695511 568.369188 235.189188 
C 568.875511 234.682866 569.16 233.996048 569.16 233.28 
C 569.16 232.563952 568.875511 231.877134 568.369188 231.370812 
C 567.862866 230.864489 567.176048 230.58 566.46 230.58 
C 565.743952 230.58 565.057134 230.864489 564.550812 231.370812 
C 564.044489 231.877134 563.76 232.563952 563.76 233.28 
C 563.76 233.996048 564.044489 234.682866 564.550812 235.189188 
C 565.057134 235.695511 565.743952 235.98 566.46 235.98 
z
" clip-path="url(#p5ebeb5db0c)" style="fill: #c62828; stroke: #c62828; stroke-width: 2; stroke-linejoin: miter"/>
   </g>
   <g id="patch_11">
    <path d="M 638.46 235.98 
C 639.176048 235.98 639.862866 235.695511 640.369188 235.189188 
C 640.875511 234.682866 641.16 233.996048 641.16 233.28 
C 641.16 232.563952 640.875511 231.877134 640.369188 231.370812 
C 639.862866 230.864489 639.176048 230.58 638.46 230.58 
C 637.743952 230.58 637.057134 230.864489 636.550812 231.370812 
C 636.044489 231.877134 635.76 232.563952 635.76 233.28 
C 635.76 233.996048 636.044489 234.682866 636.550812 235.189188 
C 637.057134 235.695511 637.743952 235.98 638.46 235.98 
z
" clip-path="url(#p5ebeb5db0c)" style="fill: #c62828; stroke: #c62828; stroke-width: 2; stroke-linejoin: miter"/>
   </g>
   <g id="patch_12">
    <path d="M 728.46 235.98 
C 729.176048 235.98 729.862866 235.695511 730.369188 235.189188 
C 730.875511 234.682866 731.16 233.996048 731.16 233.28 
C 731.16 232.563952 730.875511 231.877134 730.369188 231.370812 
C 729.862866 230.864489 729.176048 230.58 728.46 230.58 
C 727.743952 230.58 727.057134 230.864489 726.550812 231.370812 
C 726.044489 231.877134 725.76 232.563952 725.76 233.28 
C 725.76 233.996048 726.044489 234.682866 726.550812 235.189188 
C 727.057134 235.695511 727.743952 235.98 728.46 235.98 
z
" clip-path="url(#p5ebeb5db0c)" style="fill: #c62828; stroke: #c62828; stroke-width: 2; stroke-linejoin: miter"/>
   </g>
   <g id="patch_13">
    <path d="M 890.46 217.98 
C 891.176048 217.98 891.862866 217.695511 892.369188 217.189188 
C 892.875511 216.682866 893.16 215.996048 893.16 215.28 
C 893.16 214.563952 892.875511 213.877134 892.369188 213.370812 
C 891.862866 212.864489 891.176048 212.58 890.46 212.58 
C 889.743952 212.58 889.057134 212.864489 888.550812 213.370812 
C 888.044489 213.877134 887.76 214.563952 887.76 215.28 
C 887.76 215.996048 888.044489 216.682866 888.550812 217.189188 
C 889.057134 217.695511 889.743952 217.98 890.46 217.98 
z
" clip-path="url(#p5ebeb5db0c)" style="fill: #2e7d32; stroke: #2e7d32; stroke-width: 2; stroke-linejoin: miter"/>
   </g>
   <g id="patch_14">
    <path d="M 851.94 190.98 
C 852.656048 190.98 853.342866 190.695511 853.849188 190.189188 
C 854.355511 189.682866 854.64 188.996048 854.64 188.28 
C 854.64 187.563952 854.355511 186.877134 853.849188 186.370812 
C 853.342866 185.864489 852.656048 185.58 851.94 185.58 
C 851.223952 185.58 850.537134 185.864489 850.030812 186.370812 
C 849.524489 186.877134 849.24 187.563952 849.24 188.28 
C 849.24 188.996048 849.524489 189.682866 850.030812 190.189188 
C 850.537134 190.695511 851.223952 190.98 851.94 190.98 
z
" clip-path="url(#p5ebeb5db0c)" style="fill: #1565c0; stroke: #1565c0; stroke-width: 2; stroke-linejoin: miter"/>
   </g>
   <g id="patch_15">
    <path d="M 1142.46 217.98 
C 1143.176048 217.98 1143.862866 217.695511 1144.369188 217.189188 
C 1144.875511 216.682866 1145.16 215.996048 1145.16 215.28 
C 1145.16 214.563952 1144.875511 213.877134 1144.369188 213.370812 
C 1143.862866 212.864489 1143.176048 212.58 1142.46 212.58 
C 1141.743952 212.58 1141.057134 212.864489 1140.550812 213.370812 
C 1140.044489 213.877134 1139.76 214.563952 1139.76 215.28 
C 1139.76 215.996048 1140.044489 216.682866 1140.550812 217.189188 
C 1141.057134 217.695511 1141.743952 217.98 1142.46 217.98 
z
" clip-path="url(#p5ebeb5db0c)" style="fill: #2e7d32; stroke: #2e7d32; stroke-width: 2; stroke-linejoin: miter"/>
   </g>
   <g id="patch_16">
    <path d="M 1103.94 190.98 
C 1104.656048 190.98 1105.342866 190.695511 1105.849188 190.189188 
C 1106.355511 189.682866 1106.64 188.996048 1106.64 188.28 
C 1106.64 187.563952 1106.355511 186.877134 1105.849188 186.370812 
C 1105.342866 185.864489 1104.656048 185.58 1103.94 185.58 
C 1103.223952 185.58 1102.537134 185.864489 1102.030812 186.370812 
C 1101.524489 186.877134 1101.24 187.563952 1101.24 188.28 
C 1101.24 188.996048 1101.524489 189.682866 1102.030812 190.189188 
C 1102.537134 190.695511 1103.223952 190.98 1103.94 190.98 
z
" clip-path="url(#p5ebeb5db0c)" style="fill: #1565c0; stroke: #1565c0; stroke-width: 2; stroke-linejoin: miter"/>
   </g>
   <g id="patch_17">
    <path d="M 1394.46 217.98 
C 1395.176048 217.98 1395.862866 217.695511 1396.369188 217.189188 
C 1396.875511 216.682866 1397.16 215.996048 1397.16 215.28 
C 1397.16 214.563952 1396.875511 213.877134 1396.369188 213.370812 
C 1395.862866 212.864489 1395.176048 212.58 1394.46 212.58 
C 1393.743952 212.58 1393.057134 212.864489 1392.550812 213.370812 
C 1392.044489 213.877134 1391.76 214.563952 1391.76 215.28 
C 1391.76 215.996048 1392.044489 216.682866 1392.550812 217.189188 
C 1393.057134 217.695511 1393.743952 217.98 1394.46 217.98 
z
" clip-path="url(#p5ebeb5db0c)" style="fill: #2e7d32; stroke: #2e7d32; stroke-width: 2; stroke-linejoin: miter"/>
   </g>
   <g id="patch_18">
    <path d="M 1355.94 190.98 
C 1356.656048 190.98 1357.342866 190.695511 1357.849188 190.189188 
C 1358.355511 189.682866 1358.64 188.996048 1358.64 188.28 
C 1358.64 187.563952 1358.355511 186.877134 1357.849188 186.370812 
C 1357.342866 185.864489 1356.656048 185.58 1355.94 185.58 
C 1355.223952 185.58 1354.537134 185.864489 1354.030812 186.370812 
C 1353.524489 186.877134 1353.24 187.563952 1353.24 188.28 
C 1353.24 188.996048 1353.524489 189.682866 1354.030812 190.189188 
C 1354.537134 190.695511 1355.223952 190.98 1355.94 190.98 
z
" clip-path="url(#p5ebeb5db0c)" style="fill: #1565c0; stroke: #1565c0; stroke-width: 2; stroke-linejoin: miter"/>
   </g>
  </g>
 </g>
 <defs>
  <clipPath id="p5ebeb5db0c">
   <rect x="0" y="0" width="1454.526" height="369"/>
  </clipPath>
 </defs>
</svg>
